<svg enable-background="new 0 0 382 98" height="110" viewBox="0 0 382 110" width="382" xmlns="http://www.w3.org/2000/svg"><path d="m56.8 90.5c.6-.1 1.1 0 1.4.4s.4.8.1 1.4c-.3.5-.7 1-1.2 1.7-.6.6-1.3 1.2-2.3 1.8s-2.1 1-3.5 1.4-3 .6-4.9.6c-2.6 0-4.8-.5-6.6-1.6s-3-2.3-3.7-3.6c-.2-.3-.4-.5-.7-.4-.3 0-.6.2-.8.4-.4.4-.8.7-1.2 1.1-.7.6-1.6 1.2-2.8 1.9s-2.7 1.3-4.4 1.8-3.7.8-5.9.8c-3.8 0-7-.5-9.6-1.6-2.6-1.1-4.7-2.5-6.3-4.1-1.6-1.7-2.7-3.6-3.5-5.7-.5-2.4-.9-4.5-.9-6.6 0-3.4.9-6.3 2.8-8.9 1.9-2.5 4.4-4.4 7.4-5.7 1.6-.6 3.3-1.1 5.1-1.4s3.5-.6 5.3-.9c1.7-.3 3.5-.7 5.1-1.1 1.7-.5 3.3-1.2 4.8-2.2 1.6-1.1 2.7-2.4 3.3-4.1s.9-3.4.9-5.3c0-1.4-.2-2.7-.5-4-.4-1.3-.9-2.4-1.5-3.3-.7-.9-1.4-1.7-2.3-2.2-.8-.5-1.8-.8-2.8-.8-1.8 0-3.2.5-4 1.4-.9.9-1.5 2.1-2 3.4-.5 1.4-1 2.7-1.4 4.1s-1.1 2.7-2 3.7c-.8.8-1.8 1.4-3 1.8s-2.4.6-3.5.6-2.2-.2-3.1-.6c-.9-.4-1.6-.9-2.3-1.6-.6-.7-1.1-1.4-1.4-2.3s-.5-1.8-.5-2.8c0-1.3.3-2.7 1-4 .6-1.3 1.8-2.5 3.4-3.6s3.8-1.9 6.6-2.6 6.3-1 10.5-1c4.7 0 8.8.5 12.1 1.4 3.3 1 6.1 2.4 8.2 4.2s3.6 4.1 4.6 6.8 1.4 5.8 1.4 9.3c0 4.2-.1 8.1-.4 11.7-.2 3.2-.4 6.4-.5 9.7-.1 2.8-.1 5.1.2 6.9s.8 2.9 1.8 3.4c.4.2 1 .3 1.6.3.5.2 1.2.1 1.9 0zm-22.1-28.7c0-.3-.1-.4-.3-.5s-.4 0-.6.2c-.3.4-.7.8-.9 1.1-.3.3-.7.8-1.1 1.2-.8.9-1.6 1.7-2.5 2.4-.9.8-1.7 1.5-2.6 2.3-.8.7-1.7 1.4-2.5 2.1s-1.6 1.4-2.3 2.2c-1.1 1.3-1.9 2.7-2.5 4.2-.5 1.5-.8 3.1-.8 4.9 0 1.2.2 2.3.5 3.5.3 1.1.9 2.2 1.6 3.1s1.6 1.7 2.7 2.2c1.1.6 2.4.9 3.9.9s2.8-.3 3.7-1c1-.6 1.7-1.4 2.2-2.3s.9-1.8 1.1-2.7.3-1.6.3-2.2zm56.9-21.3c-1.7 0-3.3.6-4.7 1.8s-2.7 2.8-3.7 5c-1 2.1-1.8 4.7-2.4 7.7s-.8 6.3-.8 10 .5 7 1.4 9.9 2.2 5.3 3.8 7.4 3.5 3.6 5.7 4.6 4.5 1.6 7 1.6c2.4 0 4.7-.4 6.7-1.1s3.8-1.5 5.4-2.4 2.8-1.8 3.8-2.6 1.7-1.3 2.1-1.5c.6-.3 1.1-.2 1.4.2.4.4.4.9 0 1.6-.3.5-.7 1.2-1.3 2.1s-1.4 2-2.4 3.1-2.2 2.3-3.6 3.5-3 2.3-4.9 3.3-3.9 1.8-6.3 2.4c-2.2.6-4.8.9-7.7.9-4.4 0-8.4-.6-12-1.9s-6.6-3.2-9.1-5.7-4.4-5.5-5.8-9.2c-1.3-3.6-2-7.7-2-12.4 0-4.1.5-7.7 1.5-10.9s2.4-5.9 4.1-8.3 3.6-4.3 5.8-6 4.4-2.9 6.7-4c2.3-1 4.5-1.7 6.7-2.2s4.2-.7 6-.7c2.9 0 5.6.3 8 .8s4.5 1.3 6.3 2.2c1.7 1 3.1 2.1 4.1 3.4s1.5 2.7 1.5 4.2c0 1.3-.2 2.4-.7 3.3-.4.9-1 1.6-1.7 2.2s-1.5 1-2.4 1.3-1.8.4-2.7.4c-1.2 0-2.5-.2-3.6-.7s-2.1-1.3-2.8-2.4c-.6-.8-1-1.9-1.3-3.1-.3-1.3-.7-2.5-1.2-3.7-.4-1.2-1-2.2-1.8-3.1-.6-.6-1.7-1-3.1-1zm60.5-3.5c4.4 0 8.4.8 12.1 2.3 3.7 1.6 6.9 3.7 9.5 6.4s4.7 5.9 6.2 9.6 2.2 7.6 2.2 11.8-.8 8.2-2.4 12c-1.6 3.7-3.8 7-6.6 9.8s-6.1 5-9.9 6.7c-3.8 1.6-7.9 2.4-12.3 2.4s-8.4-.8-12.1-2.3c-3.7-1.6-6.9-3.7-9.5-6.4s-4.7-5.9-6.2-9.6-2.2-7.6-2.2-11.9c0-4.2.8-8.2 2.4-11.9s3.8-7 6.6-9.8 6.1-5 9.9-6.7c3.8-1.6 7.9-2.4 12.3-2.4zm-.6 57.6c2 0 3.8-.7 5.3-2.1s2.8-3.4 3.8-5.8c1-2.5 1.8-5.3 2.3-8.6s.8-6.8.8-10.5-.3-7.2-.8-10.5-1.3-6.2-2.3-8.6c-1-2.5-2.3-4.4-3.8-5.8s-3.3-2.1-5.3-2.1-3.8.7-5.3 2.1-2.8 3.4-3.8 5.8c-1 2.5-1.8 5.3-2.3 8.6s-.7 6.8-.7 10.5.2 7.2.7 10.5 1.2 6.2 2.3 8.6c1 2.5 2.3 4.4 3.8 5.8 1.4 1.4 3.2 2.1 5.3 2.1zm59.5-8.6c0 1.8.4 3.2 1.1 4.2.7 1.1 1.6 1.9 2.6 2.5s1.9 1.1 2.8 1.3c.9.3 1.5.4 1.9.4.3.1.6.2.7.4s.2.4.2.6-.2.4-.4.6-.5.3-.8.3h-33.5c-.3 0-.6-.1-.8-.3-.2-.1-.3-.4-.4-.6 0-.2 0-.4.2-.6.1-.2.4-.3.7-.4.3 0 1-.2 1.9-.4.9-.3 1.9-.7 2.8-1.3s1.8-1.5 2.6-2.5 1.1-2.5 1.1-4.2v-72c0-.6-.3-.9-.8-1-.1 0-.4-.1-.9-.2s-1.1-.3-1.8-.4c-.6-.2-1.3-.3-1.9-.4-.4-.1-.7-.2-1.1-.3-.6-.1-.8-.4-.9-.9 0-.4.3-.8.9-.9 1.8-.4 3.6-1 5.4-1.6 2-.7 3.9-1.4 5.9-2.2 1.9-.8 3.8-1.7 5.7-2.7 1.8-1 3.5-1.9 4.9-2.9.4-.3.8-.4 1.2-.3.4 0 .6.4.6 1zm68.4 4.5c.6-.1 1.1 0 1.4.4s.4.8.1 1.4c-.3.5-.7 1-1.2 1.7-.6.6-1.3 1.2-2.3 1.8s-2.1 1-3.5 1.4-3 .6-4.9.6c-2.6 0-4.8-.5-6.6-1.6s-3-2.3-3.7-3.6c-.2-.3-.4-.5-.7-.4-.3 0-.6.2-.8.4-.4.4-.8.7-1.2 1.1-.7.6-1.6 1.2-2.8 1.9s-2.7 1.3-4.4 1.8-3.7.8-5.9.8c-3.8 0-7-.5-9.6-1.6s-4.7-2.5-6.3-4.1c-1.6-1.7-2.7-3.6-3.5-5.7-.7-2.1-1.1-4.2-1.1-6.3 0-3.4.9-6.3 2.8-8.9 1.9-2.5 4.4-4.4 7.4-5.7 1.6-.6 3.3-1.1 5.1-1.4s3.5-.6 5.3-.9c1.7-.3 3.5-.7 5.1-1.1 1.7-.5 3.3-1.2 4.8-2.2 1.6-1.1 2.7-2.4 3.3-4.1s.9-3.4.9-5.3c0-1.4-.2-2.7-.5-4-.4-1.3-.9-2.4-1.5-3.3-.7-.9-1.4-1.7-2.3-2.2-.8-.5-1.8-.8-2.8-.8-1.8 0-3.2.5-4 1.4-.9.9-1.5 2.1-2 3.4-.5 1.4-1 2.7-1.4 4.1s-1.1 2.7-2 3.7c-.8.8-1.8 1.4-3 1.8s-2.4.6-3.5.6c-1.2 0-2.2-.2-3.1-.6s-1.6-.9-2.3-1.6c-.6-.7-1.1-1.4-1.4-2.3s-.5-1.8-.5-2.8c0-1.3.3-2.7 1-4 .6-1.3 1.8-2.5 3.4-3.6s3.8-1.9 6.6-2.6 6.3-1 10.5-1c4.7 0 8.8.5 12.1 1.4 3.3 1 6.1 2.4 8.2 4.2s3.6 4.1 4.6 6.8 1.4 5.8 1.4 9.3c0 4.2-.1 8.1-.4 11.7-.2 3.2-.4 6.4-.5 9.7-.1 2.8-.1 5.1.2 6.9s.8 2.9 1.8 3.4c.4.2 1 .3 1.6.3zm-22.2-28.7c0-.3-.1-.4-.3-.5s-.4 0-.6.2c-.3.4-.6.8-.9 1.1s-.6.8-1.1 1.2c-.8.9-1.6 1.7-2.5 2.4-.9.8-1.7 1.5-2.6 2.3-.8.7-1.7 1.4-2.5 2.1s-1.6 1.4-2.3 2.2c-1.1 1.3-1.9 2.7-2.5 4.2-.5 1.5-.8 3.1-.8 4.9 0 1.2.2 2.3.5 3.5.3 1.1.9 2.2 1.6 3.1s1.6 1.7 2.7 2.2c1.1.6 2.4.9 3.9.9s2.8-.3 3.7-1c1-.6 1.7-1.4 2.2-2.3s.9-1.8 1.1-2.7.3-1.6.3-2.2c.1 0 .1-21.6.1-21.6zm97.8 32.7c.3.1.6.2.7.4s.2.4.2.6-.2.4-.4.6-.5.3-.8.3h-23.1c-.5 0-.8-.1-1.1-.3s-.4-.6-.4-1v-5.7c0-.3-.1-.5-.3-.6s-.4 0-.6.2c-.6.8-1.3 1.5-1.9 2.2-.9 1-2.1 2-3.7 3s-3.5 1.9-5.8 2.6c-2.3.8-5 1.1-8 1.1-3.4 0-6.4-.4-9-1.3s-4.8-2.1-6.6-3.7-3.4-3.3-4.6-5.3-2.2-4-2.9-6.2c-.7-2.1-1.2-4.3-1.5-6.6-.3-2-.4-4.1-.4-6.2 0-4.8.6-9.2 1.8-13.1s2.9-7.3 5.3-10.1 5.3-4.9 8.9-6.4 7.7-2.2 12.6-2.2c2.7 0 5 .2 7 .5s3.6.7 4.9 1.1 2.2.8 2.9 1.2c.4.2.7.4 1.1.6.2.2.4.2.6.1s.3-.3.3-.5v-25.8c0-.6-.3-.9-.8-1-.1 0-.4-.1-.9-.2s-1.1-.3-1.8-.4c-.6-.2-1.3-.3-1.9-.4-.4-.1-.7-.2-1.1-.3-.6-.1-.8-.4-.9-.9s.3-.8.9-.9c1.8-.4 3.6-1 5.4-1.6 2-.7 3.9-1.4 5.9-2.2 1.9-.8 3.8-1.7 5.7-2.7 1.8-1 3.5-1.9 4.9-2.9.4-.3.8-.4 1.2-.3.4 0 .6.4.6 1v85.3c0 1.7.3 3.1 1 4.1.7 1.1 1.5 1.9 2.3 2.4.9.6 1.7 1 2.6 1.2.7.1 1.3.3 1.7.3zm-25-36.3c0-1.1-.1-2.2-.2-3.5-.2-1.3-.4-2.6-.8-3.9s-.9-2.6-1.5-3.8-1.4-2.3-2.3-3.2c-1-1-2.1-1.7-3.3-2.3-1.3-.6-2.8-.9-4.4-.9-2.5 0-4.7.6-6.5 1.9s-3.2 3.1-4.3 5.3-1.9 4.9-2.4 8-.8 6.4-.8 9.9v3.8c0 1.6.1 3.3.4 5.2.2 1.9.6 3.8 1.1 5.6.5 1.9 1.3 3.6 2.2 5.1 1 1.5 2.3 2.8 3.8 3.7 1.5 1 3.4 1.4 5.7 1.4 2.9 0 5.2-.5 7-1.6 1.7-1.1 3.1-2.4 4-3.9s1.6-3.2 1.9-4.9.4-3.3.4-4.6zm52 30.2c0 1.3-.3 2.6-.8 3.7s-1.2 2.2-2.1 3.1-1.9 1.6-3.1 2.1-2.5.7-3.8.7c-1.4 0-2.6-.2-3.8-.7-1.1-.5-2.1-1.1-3-2-.8-.8-1.5-1.9-2-3s-.7-2.4-.7-3.7.3-2.5.8-3.7c.5-1.1 1.2-2.2 2.1-3.1s1.9-1.6 3.1-2.1 2.5-.8 3.8-.8c1.4 0 2.6.2 3.8.7 1.1.5 2.1 1.1 3 2 .8.9 1.5 1.9 2 3 .5 1.3.7 2.6.7 3.8z"/></svg>