<svg height="126.7" viewBox="-153 -46 600.09998 126.7" width="600.09998" xmlns="http://www.w3.org/2000/svg"><g fill="#001b50"><path d="m311.2-1.2v52.8c1.2.7 3.2 1 6.3 1 3.2 0 5.2-.3 6.4-1v-52.8c-1.2-.7-3.2-1-6.4-1-3.1 0-5.1.3-6.3 1m-242.7 7.1c9.2 0 11.4 7 10.6 13.6h-24.3c.5-8.2 5.5-13.6 13.7-13.6m-26.8 19.9c0 17.6 10.1 28.7 28.6 28.7 7.5 0 13.5-1.9 17-4 2.1-2.2 3.5-7.1 3.2-10.6-4.1 2.1-10.1 3.9-17.2 3.9-11.4 0-18-4.5-18.6-14.5h35.3c1-3 1.4-6.4 1.4-9.9 0-13.8-7.2-23.5-22.5-23.5-16.8 0-27.2 12.1-27.2 29.9m72.9-20h-.7l-.8-8.6c-4.2 0-7.9.7-10.3 2v52.5c1.2.7 3.2 1 6.3 1 3.2 0 5.2-.3 6.4-1v-36.6c2.1-3.9 6.1-7.4 13-7.4 7.9 0 10.2 4.5 10.2 11.8v32.2c1.2.7 3.2 1 6.3 1 3.2 0 5.2-.3 6.4-1v-34.6c0-18-9.9-21-18.4-21-10.2-.2-15.9 4.2-18.4 9.7m47 20c0 17.8 9.4 28.7 26.6 28.7 6.3 0 11.4-1.4 14.9-3.3 2.3-2.5 3.9-8.2 3.4-11.8-4.1 2.2-8.7 3.7-14.3 3.7-10.7 0-17.7-5.6-17.7-18s6.9-17.8 17.6-17.8c5.2 0 9.1 1.2 13.2 3.7.7-3.8-.3-9.2-2.2-11.7-3.1-2-8-3.1-13.5-3.1-15.9-.3-28 9.1-28 29.6m187.6-20h-.7l-.8-8.6c-4.2 0-7.9.7-10.3 2v52.5c1.2.7 3.2 1 6.3 1 3.2 0 5.2-.3 6.4-1v-36.6c2.1-3.9 6.1-7.4 12.9-7.4 7.9 0 10.2 4.5 10.2 11.8v32.2c1.2.7 3.2 1 6.3 1 3.2 0 5.2-.3 6.4-1v-34.6c0-18-9.8-21-18.4-21-10.1-.2-15.7 4.2-18.3 9.7m60.2 18.8c0-10.8 5.2-18.2 16.9-18.2 3.5 0 6 .7 8.1 1.7v26.1c-2.2 3.5-5.8 6.4-11.7 6.4-8.4 0-13.3-5.5-13.3-16m-13 1.3c0 17.8 9.3 26.1 22.2 26.1 8.1 0 13.3-3.2 16.2-8.1h.7c-.7 2.6-1.2 7.1-1.2 10.4 0 9.8-3.7 14.9-14.6 14.9-5.9 0-13.1-1.7-20-5.5-1.2 3.8-.7 9.5 1.7 13 5.6 2.7 13.3 4 19.8 4 20.8 0 25.9-12.3 25.9-28.8v-50.4c-6-3.8-12.4-5.7-20.5-5.7-18.9.1-30.2 10.4-30.2 30.1m-408.7 15.2v-23.2h13.3c11.6 0 18.8 3.8 18.8 12 0 8.3-7.3 11.8-19.6 11.8-4.6-.1-9.2-.3-12.5-.6m0-55.7c2.9-.6 6.1-.8 10.1-.8 11.1 0 18 3.3 18 11.2 0 7.2-5.8 10.7-14.9 10.7h-13.2zm-13.2-10v76.5c7.1.8 16.8 1.1 26.1 1.1 18.5 0 32.8-6.3 32.8-22.9 0-10.8-6.2-16.2-15.5-18.6v-.7c6.9-1.9 11.4-8 11.4-16.7 0-15.1-13.3-20.8-31.8-20.8-8.7 0-16.2.9-23 2.1m335.1 4.4c0 5 2.9 7.9 7.9 7.9 4.8 0 8-2.8 8-8s-3.1-8.1-7.9-8.1-8 2.9-8 8.2m-93.1-6.8v78.6c1.2.7 3.2 1 6.3 1 3.2 0 5.2-.3 6.4-1v-36.6c2.2-4 6.2-7.4 13.3-7.4 8 0 10.4 4.4 10.4 11.8v32.2c1.2.7 3.2 1 6.3 1 3.2 0 5.2-.3 6.4-1v-34.6c0-18-10.1-21-18.8-21-10.6 0-15.7 4.4-18.2 9.5h-.6c.8-4.3 1.2-9.2 1.2-15.3v-19.8c-5.9-.1-9.8.8-12.7 2.6m62.3 0v66.5c0 9.3 3.5 14.9 12.7 14.9 3.7 0 6.8-.9 8.9-2.2 2-2.3 3.3-7.4 2.7-11.3-1.9 1.3-4.3 2.1-6.9 2.1-2.9 0-4.6-.9-4.6-5.4v-67.3c-6 0-9.9.9-12.8 2.7"/><path d="m-119 53.8c-1.6 1.4-2.7 2.9-3.2 4.7h18.4c-.6-1.7-1.6-3.3-3.2-4.7zm17.1-9c-1.6 1-3.4 1.9-5.3 2.7l-.4.2.4.2c5.6 3.4 8.4 7.8 8.4 13.6 0 1.6 1.3 2.9 2.9 2.9s2.9-1.3 2.9-2.9c0-6.8-2.9-12.5-8.6-16.8l-.1-.1zm-20.4-18.5c.6 1.8 1.6 3.3 3.2 4.7h11.9c1.6-1.4 2.6-2.9 3.2-4.7zm3.3-11.4c-1.6 1.4-2.7 2.9-3.2 4.7h18.4c-.6-1.7-1.6-3.3-3.2-4.7zm-13.9-31.3c0-1.9 1.5-3.4 3.4-3.4s3.4 1.5 3.4 3.4-1.5 3.4-3.4 3.4-3.4-1.6-3.4-3.4m32.8 0c0-1.9 1.5-3.4 3.4-3.4s3.4 1.5 3.4 3.4-1.5 3.4-3.4 3.4-3.4-1.6-3.4-3.4m-45.6-1.7c-.3 1.3-.6 2.5-.9 3.1-2.2 5.7-5.1 8.3-5.1 8.4-.7.4-1.2 1.2-1.3 2v.7.3c.3 1.1 1.2 2 2.4 2.1 15.3 1.4 23.9 3.6 29.6 5.2-8 4.5-12.1 10.9-12.1 19.1 0 8.4 4.3 14.9 12.7 19.4-8.4 4.5-12.7 11.1-12.7 19.4 0 1.6 1.3 2.9 2.9 2.9s2.9-1.3 2.9-2.9c0-9.9 8.1-14.1 14.2-16.4.3-.1.6-.2.9-.3 2.1-.8 4.1-1.6 5.9-2.5 8.7-4.5 13.1-11.1 13.1-19.7 0-6.3-2.5-11.7-7.4-15.9l-.1-.1h-.1c-2.4.6-4.6 1.2-6.5 1.8l-.5.2.5.3c5.6 3.4 8.3 7.8 8.3 13.6 0 9.9-8.1 14.1-14.2 16.3-6.1-2.3-14.2-6.4-14.2-16.3s8.1-14.1 14.2-16.4l.4-.1c1.4-.6 3.4-1.4 7-2.4 5.8-1.7 14.4-3.9 30.2-5.4 1.2-.1 2.1-.9 2.4-2.1.3-1.1-.2-2.3-1.2-2.9 0 0-2.9-2.7-5.1-8.4-.3-.7-.5-1.8-.9-3.1-2.1-8.3-7.1-27.8-32.6-27.8-25.6.1-30.6 19.6-32.7 27.9"/></g></svg>