<svg height="305pt" preserveAspectRatio="xMidYMid" viewBox="0 0 1240 305" width="1240pt" xmlns="http://www.w3.org/2000/svg"><g transform="matrix(.1 0 0 -.1 -114.032958 419.40588)"><path d="m1915 3993c-157-13-541-95-567-121-7-7 96-297 111-314 4-4 35 4 71 18 96 39 271 80 399 94 137 15 423 7 531-15 296-60 473-195 519-396 18-75 13-189-9-237-14-30-23-41-32-35-7 4-56 37-108 72-318 212-758 344-1033 310-197-25-341-125-378-263-18-67-7-183 23-248 88-189 352-323 731-373 239-31 446-14 632 51 55 19 104 35 109 37 15 3 102-111 140-182 58-111 81-201 81-321 0-93-3-111-26-160-67-140-226-225-445-237-367-21-712 165-907 489l-33 54-152-39-152-40v-359-358h160 160v125c0 69 4 125 8 125 5 0 19-12 33-26 37-40 206-149 290-188 176-81 343-116 551-116 373 0 651 144 777 402 56 114 71 181 71 316 0 249-82 455-273 686l-24 30 33 42c39 53 80 137 93 195 15 64 13 233-4 311-31 148-96 268-206 377-204 205-520 303-957 299-97-1-195-3-217-5zm178-963c132-29 258-74 405-147 98-48 130-69 122-77-19-19-388-14-495 7-180 36-291 76-349 127-40 36-45 59-18 83 44 40 170 43 335 7z"/><path d="m3895 3931c-151-37-221-209-140-347 92-157 339-140 409 28 22 51 20 143-3 194-44 96-159 151-266 125z"/><path d="m9650 2660v-1240h165 165v136 135l48-59c95-118 221-201 362-239 82-22 309-25 390-4 300 75 514 311 592 654 30 130 30 382 1 517-42 196-115 334-243 461-71 71-103 94-181 133-136 67-198 81-359 81-154 0-222-15-337-71-77-38-172-118-235-197l-38-49v491 491h-165-165zm990 269c181-41 321-190 382-404 32-115 32-325 0-440-61-214-204-364-387-405-64-15-186-15-250 0-186 42-333 200-392 420-25 91-25 320 0 410 57 211 184 353 366 411 64 20 210 25 281 8z"/><path d="m8353 3225c-164-30-288-89-386-186-94-94-130-171-135-296-3-51-1-108 2-128l7-35h172 172v88c0 76 3 93 27 133 52 89 139 130 290 137 89 4 118 1 176-17 116-35 205-134 242-270 14-53 28-221 19-221-4 0-60 9-126 21-139 24-384 29-508 9-344-53-555-232-584-495-40-364 231-612 649-592 235 11 428 111 546 283l39 57 3-147 3-146h159 160v508c0 533-7 679-41 802-74 274-261 447-534 495-104 18-253 18-352 0zm438-1039c138-26 159-34 159-59-1-43-51-163-96-230-112-164-308-257-509-243-96 6-159 26-207 66-97 80-106 240-20 341 60 70 161 118 291 139 75 12 288 4 382-14z"/><path d="m12305 3230c-307-49-549-247-654-537-45-121-64-239-64-388 1-154 13-237 55-362 124-375 451-589 868-569 151 7 244 30 365 90 218 108 363 293 432 551 24 92 26 115 26 290 0 174-2 198-26 289-85 318-300 539-602 617-92 24-304 34-400 19zm292-304c89-24 145-57 214-125 46-46 77-89 102-141 59-121 72-184 72-355 0-111-5-167-18-215-57-214-202-369-383-411-111-25-259-8-358 43-56 28-142 112-188 182-78 121-120 326-99 492 33 275 163 459 369 525 70 22 215 25 289 5z"/><path d="m3780 2305v-885h170 170v885 885h-170-170z"/><path d="m4490 3050v-140h461c286 0 459-4 457-9-1-6-225-278-495-606l-493-597v-139-139h725 725v140 140h-521c-311 0-519 4-517 9s229 283 506 617l502 607v128 129h-675-675z"/><path d="m6140 3050v-140h460c253 0 460-3 460-6s-223-275-495-605l-495-599v-140-140h725 725v140 140h-520c-286 0-520 3-520 8 0 4 228 282 505 617l505 610v128 127h-675-675z"/></g></svg>