<svg height="97.010002" viewBox="0 0 490.79001 97.009999" width="490.79001" xmlns="http://www.w3.org/2000/svg"><g fill="none" transform="translate(9.67 9.81)"><path d="m27.49 77.2c17.83 0 26.88-12.61 26.88-27.45s-17.69-36.22-17.69-36.22-7.78-8.4-9.2-12.95h-.28c-1.44 4.55-9.2 12.95-9.2 12.95s-17.67 21.38-17.67 36.22c0 14.83 9.06 27.45 26.88 27.45z" fill="#5facce"/><path d="m27.43 65.24c7.91 0 11.93-5.41 11.93-11.78s-7.85-15.54-7.85-15.54-3.52-3.84-4.08-5.99h-.13c-.56 2.16-4.08 5.99-4.08 5.99s-7.85 9.18-7.85 15.54c0 6.37 4.02 11.78 11.93 11.78z" fill="#fff"/><path d="m108.41 76.81c17.83 0 26.88-12.61 26.88-27.45s-17.69-36.22-17.69-36.22-7.78-8.4-9.2-12.95h-.28c-1.43 4.54-9.2 12.95-9.2 12.95s-17.68 21.38-17.68 36.22 9.06 27.45 26.88 27.45z" fill="#f2db13"/><path d="m108.35 64.85c7.91 0 11.93-5.41 11.93-11.78s-7.85-15.55-7.85-15.55-3.52-3.84-4.08-5.99h-.13c-.56 2.15-4.08 5.99-4.08 5.99s-7.85 9.18-7.85 15.55 4.02 11.78 11.93 11.78z" fill="#fff"/><path d="m67.73 77.2c17.83 0 26.88-12.61 26.88-27.45s-17.69-36.22-17.69-36.22-7.78-8.4-9.2-12.95h-.28c-1.44 4.55-9.2 12.95-9.2 12.95s-17.68 21.38-17.68 36.22c0 14.83 9.06 27.45 26.88 27.45z" fill="#f29624"/><path d="m67.67 65.24c7.91 0 11.93-5.41 11.93-11.78s-7.85-15.54-7.85-15.54-3.52-3.84-4.08-5.99h-.13c-.56 2.16-4.08 5.99-4.08 5.99s-7.85 9.18-7.85 15.54c0 6.37 4.02 11.78 11.93 11.78z" fill="#fff"/><g fill="#3e3e3e"><path d="m155.77 9.49h22.52c8.77 0 15.29 1.3 19.54 3.91s6.38 6.66 6.38 12.17c0 3.62-.93 6.71-2.78 9.27s-4.3 4.21-7.33 4.94v.44c4.01 1.06 6.9 2.83 8.7 5.3 1.79 2.47 2.69 5.68 2.69 9.63 0 5.85-2.2 10.47-6.6 13.84-4.4 3.38-10.4 5.06-17.99 5.06h-25.13zm17.44 24.77h5.25c2.5 0 4.44-.52 5.81-1.54 1.37-1.03 2.05-2.56 2.05-4.59 0-3.62-2.74-5.43-8.22-5.43h-4.9v11.56zm0 12.77v13.56h6.14c5.45 0 8.17-2.29 8.17-6.89 0-2.15-.73-3.8-2.19-4.95s-3.57-1.72-6.34-1.72z"/><path d="m259.85 48.92c0 8.19-2.2 14.57-6.6 19.14-4.4 4.58-10.56 6.87-18.48 6.87-7.59 0-13.64-2.34-18.12-7.02-4.49-4.68-6.73-11.01-6.73-18.99 0-8.15 2.2-14.49 6.6-19.01s10.57-6.78 18.52-6.78c4.92 0 9.26 1.05 13.03 3.13 3.77 2.09 6.68 5.09 8.72 8.99 2.04 3.91 3.06 8.47 3.06 13.67m-32.41 0c0 4.3.57 7.57 1.72 9.83 1.15 2.25 3.08 3.38 5.78 3.38 2.68 0 4.57-1.13 5.68-3.38 1.1-2.25 1.66-5.53 1.66-9.83 0-4.27-.56-7.49-1.68-9.67s-3.03-3.27-5.74-3.27c-2.65 0-4.55 1.08-5.7 3.24-1.15 2.17-1.72 5.41-1.72 9.7"/><path d="m297.66 74.05v-27.29c0-3.33-.48-5.84-1.44-7.53s-2.49-2.54-4.61-2.54c-2.91 0-5.02 1.16-6.31 3.49-1.3 2.33-1.94 6.32-1.94 11.97v21.9h-17.27v-50.03h13.03l2.17 6.18h1.01c1.47-2.36 3.51-4.12 6.12-5.3 2.6-1.18 5.6-1.77 8.99-1.77 5.53 0 9.84 1.6 12.92 4.81s4.62 7.73 4.62 13.55v32.55h-17.29z"/><path d="m353.61 36.96h-10.64v37.09h-17.27v-37.09h-6.62v-8.48l6.98-4.24v-.84c0-6.59 1.35-11.33 4.04-14.22 2.7-2.88 7.02-4.33 12.97-4.33 2.29 0 4.46.17 6.51.53 2.04.35 4.43.97 7.13 1.85l-3.71 11.17c-2.12-.59-4.19-.88-6.23-.88-1.32 0-2.29.4-2.89 1.21-.61.81-.91 2.13-.91 3.95v1.32h10.64zm6.44-25.39c0-2.59.72-4.52 2.16-5.79 1.44-1.26 3.77-1.9 6.98-1.9s5.55.65 7.02 1.94 2.21 3.21 2.21 5.74c0 5.06-3.08 7.6-9.23 7.6-6.09 0-9.14-2.53-9.14-7.59m17.71 62.48h-17.26v-50.03h17.26z"/><path d="m416.36 23.14c1.5 0 2.93.12 4.28.35l.97.18-1.54 16.29c-1.41-.35-3.37-.53-5.87-.53-3.77 0-6.51.86-8.21 2.58-1.71 1.72-2.56 4.21-2.56 7.44v24.59h-17.27v-50.02h12.84l2.7 7.99h.84c1.44-2.65 3.45-4.79 6.03-6.43 2.57-1.63 5.17-2.44 7.79-2.44"/><path d="m449.13 74.93c-8.33 0-14.8-2.21-19.41-6.65-4.61-4.43-6.91-10.74-6.91-18.92 0-8.45 2.14-14.93 6.4-19.45 4.27-4.52 10.36-6.78 18.28-6.78 7.54 0 13.36 1.97 17.47 5.89 4.11 3.93 6.16 9.59 6.16 16.98v7.68h-30.87c.12 2.8 1.14 4.99 3.07 6.58s4.56 2.38 7.88 2.38c3.03 0 5.82-.29 8.37-.86s5.31-1.55 8.28-2.94v12.41c-2.71 1.38-5.51 2.34-8.39 2.87-2.89.55-6.33.81-10.33.81m-1.02-40.05c-2.03 0-3.73.64-5.1 1.92s-2.17 3.29-2.41 6.03h14.83c-.06-2.41-.74-4.34-2.05-5.78-1.3-1.45-3.06-2.17-5.27-2.17"/></g></g></svg>