<svg fill="none" height="24" viewBox="0 0 115 24" width="115" xmlns="http://www.w3.org/2000/svg"><g fill="#181818"><path d="m23.3984 13.8095c0-5.75012 3.9663-8.64934 8.3833-8.64934 4.0833 0 7.175 2.39135 7.6345 5.89514h-3.3374c-.2419-1.86022-2.0315-3.14103-4.3-3.14103-2.9476 0-5.1696 2.05374-5.1696 5.89523 0 3.8414 2.2249 5.871 5.1696 5.871 2.3217 0 4.1075-1.2808 4.3967-3.1169h3.1924c-.3386 3.5028-3.4303 5.8952-7.5862 5.8952-4.4934 0-8.3833-2.8993-8.3833-8.6493z"/><path d="m40.4062 16.1757c0-3.7205 2.1283-6.28117 5.7501-6.28117 1.5217 0 2.8509.62787 3.5513 1.57007v-1.3776h2.9717v12.1764h-2.9717v-1.4249c-.5805.9673-1.9812 1.6184-3.5029 1.6184-3.6731 0-5.7985-2.5607-5.7985-6.2812zm9.5181 0c0-2.2472-1.305-3.7205-3.3094-3.7205-1.957 0-3.2611 1.4733-3.2611 3.7205s1.305 3.7205 3.2611 3.7205c2.0053 0 3.3094-1.4743 3.3094-3.7205z"/><path d="m60.1518 12.574c-3.1062 0-2.6332 3.0831-2.6332 4.774v4.9133h-2.9717v-12.1754h2.9717v2.1505c.6037-1.5478 1.5479-2.1505 3.1169-2.1505h1.4259v2.4881z"/><path d="m62.4297 16.1817c0-3.7205 2.1505-6.28118 5.7501-6.28118 1.5942 0 2.875.67718 3.5793 1.66678v-6.6923h2.9437v17.3944h-2.9476v-1.5217c-.7004 1.0641-2.0538 1.7152-3.5271 1.7152-3.6489 0-5.7984-2.5607-5.7984-6.2812zm9.518 0c0-2.2472-1.305-3.7205-3.2891-3.7205s-3.2891 1.4733-3.2891 3.7205 1.305 3.7205 3.2891 3.7205 3.2891-1.4743 3.2891-3.7205z"/><path d="m76.6094 4.875h2.9476v17.3944h-2.9476z"/><path d="m93.0908 18.1995c-.4595 2.5848-2.73 4.2564-5.7259 4.2564-3.9866 0-6.2087-3.141-6.2087-6.3295 0-3.2126 1.9812-6.32952 5.9678-6.32952 4.0833 0 5.9194 3.06852 5.9194 5.96772 0 .4111-.0242.7739-.0484 1.0148h-8.9869c.2176 1.957 1.4733 3.2136 3.3577 3.2136 1.5217 0 2.5152-.6278 2.8267-1.7877h2.9021zm-9.0121-3.3858h5.989c-.1209-1.5478-1.1841-2.7087-2.9476-2.7087-1.6639.0058-2.727.8755-3.0414 2.7116z"/><path d="m94.1641 18.2053h2.7086c.1209 1.1608 1.0148 1.8844 2.343 1.8844 1.1613 0 1.9343-.5804 1.9343-1.305 0-2.7086-6.6677-.1209-6.6677-5.2664 0-2.1282 1.8603-3.62377 4.3726-3.62377 2.8511 0 4.8081 1.57007 4.9291 3.93817h-2.709c-.169-1.1357-1.2083-1.7151-2.1505-1.7151-1.0641 0-1.7635.4836-1.7635 1.3049 0 2.6332 6.765-.266 6.765 5.2423 0 2.2946-1.86 3.793-4.7113 3.793-2.9485-.0009-4.9055-1.6435-5.0506-4.2525z"/><path d="m104.914 18.2053h2.709c.121 1.1608 1.014 1.8844 2.343 1.8844 1.161 0 1.934-.5804 1.934-1.305 0-2.7086-6.668-.1209-6.668-5.2664 0-2.1282 1.861-3.62377 4.373-3.62377 2.851 0 4.808 1.57007 4.933 3.93817h-2.708c-.169-1.1357-1.208-1.7151-2.151-1.7151-1.064 0-1.763.4836-1.763 1.3049 0 2.6332 6.765-.266 6.765 5.2423 0 2.2946-1.861 3.793-4.711 3.793-2.954-.0009-4.913-1.6435-5.056-4.2525z"/><path d="m5.19577 12.545v6.1448c-.00041.1915.04967.3797.14519.5457.09553.166.23312.3038.39891.3997.16579.0958.35392.1463.54542.1462.1915 0 .3796-.0505.54535-.1465l7.44876-4.3038c.3954-.2298.8443-.3514 1.3016-.3523s.9068.1187 1.303.3469c.3963.2282.7254.5569.9541.9529s.3489.8453.3486 1.3026c-.0011.4558-.1219.9034-.3504 1.2978-.2286.3944-.5568.7218-.9517.9494l-6.7097 3.8792c-.33163.1915-.70782.2924-1.09076.2924s-.75913-.1009-1.09072-.2924l-6.90416-3.9895c-.331077-.1915-.605993-.4666-.797176-.7979-.191182-.3312-.29191089-.7069-.292084-1.0894v-7.97699c.00019946-.38271.101035-.75864.292391-1.09007.191356-.33144.466504-.60673.797839-.79825l13.19307-7.616147c.3954-.22864.8441-.34912729 1.3009-.34934271.4567-.00021542.9055.11984771 1.3011.34811571.3957.228267.7243.556689.9527.952234.2284.39555.3487.84427.3487 1.30104-.0004.45662-.1209.90511-.3495 1.30041-.2285.3953-.5571.7235-.9526.95164l-10.87139 6.27536c-.24846.1437-.45478.3502-.59825.5987-.14347.2486-.21906.5305-.21919.8175z"/></g></svg>