<svg fill="none" height="100" viewBox="0 0 322 100" width="322" xmlns="http://www.w3.org/2000/svg" xmlns:xlink="http://www.w3.org/1999/xlink"><linearGradient id="a" gradientUnits="userSpaceOnUse" x1="69.2016" x2="-32.021" y1="-7.32838" y2="93.9021"><stop offset="0" stop-color="#17ccfc"/><stop offset=".5" stop-color="#5d31ff"/><stop offset="1" stop-color="#f35aff"/></linearGradient><clipPath id="b"><path d="m.832031 0h320.833v100h-320.833z"/></clipPath><g clip-path="url(#b)"><g fill="#1f0256"><path d="m147.281 69.7417c-1.65 1.7105-3.632 3.0667-5.824 3.9859-2.191.9196-4.548 1.3825-6.924 1.3608-2.007.0608-4.006-.29-5.872-1.0308-1.866-.7409-3.561-1.8559-4.98-3.2767-2.578-2.6892-4.062-6.5287-4.062-11.1058 0-9.1625 5.965-15.4296 14.914-15.4296 2.4-.0338 4.778.4629 6.963 1.4542 2.186.9916 4.126 2.4533 5.682 4.2812l7.742-6.8458c-5.045-6.1242-13.232-9.2894-21.006-9.2894-15.215 0-26.004 10.4873-26.004 25.9165 0 7.6312 2.681 14.057 7.203 18.5945s10.963 7.203 18.396 7.203c9.654 0 17.357-3.9188 21.681-8.845z"/><path d="m162.191 14.2822h11.527v70.467h-11.527z"/><path d="m229.24 63.6787c.19-1.5346.296-3.0788.317-4.625 0-14.6121-9.567-25.1946-24.362-25.1946-3.263-.0642-6.504.5404-9.525 1.7765-3.02 1.236-5.756 3.0774-8.038 5.4106-4.323 4.5375-6.917 10.9633-6.917 18.6262 0 15.6196 11.01 25.9004 25.607 25.9004 9.797 0 16.849-3.9662 21.077-9.3446l-7.552-6.6875-.373-.317c-1.498 1.8741-3.408 3.3779-5.582 4.3945-2.174 1.0167-4.552 1.5188-6.951 1.4675-7.41 0-12.757-4.3233-14.279-11.407zm-36.388-9.25c.515-2.233 1.569-4.3055 3.07-6.0367 1.249-1.3608 2.778-2.4363 4.481-3.1525 1.703-.7158 3.541-1.0558 5.387-.9963 6.584 0 10.709 4.1171 12.129 10.1855z"/><path d="m265.185 33.708v12.8511c-1.333-.1029-2.673-.2063-3.491-.2063-8.726 0-13.676 6.2671-13.676 14.4934v23.9016h-11.51v-50.3258h11.51v7.6233h.104c3.91-5.3466 9.519-8.3214 15.627-8.3214z"/><path d="m292.027 63.6717-8.321 9.2579v11.8196h-11.518v-70.467h11.518v43.2257l20.554-22.9256h13.676l-18.087 20.2523 18.404 29.9146h-12.954l-13.057-21.0775z"/></g><path d="m80.482 13.17-12.0025 12.0023c-.3771.3767-.87.616-1.3991.6792-.5296.0633-1.0646-.053-1.52-.3301-4.7213-2.8483-10.1663-4.2688-15.6775-4.09-5.5113.1788-10.8526 1.9492-15.3795 5.0974-2.7841 1.938-5.2015 4.3554-7.1395 7.1395-3.1445 4.5297-4.9132 9.8713-5.0934 15.3825-.1801 5.5113 1.236 10.9571 4.078 15.6825.2752.4546.3904.988.3271 1.5159-.0632.5275-.3013 1.0187-.6762 1.3954l-12.0023 12.0021c-.2417.2433-.5331.4316-.8543.5516-.3211.1205-.6645.1696-1.0065.145-.3421-.025-.6747-.1233-.9751-.2887-.3005-.1654-.5616-.3938-.7655-.6696-6.49407-8.9262-9.850164-19.7512-9.544493-30.7854.305673-11.0343 4.255903-21.6569 11.234093-30.2098 2.1304-2.6169 4.5226-5.0092 7.1396-7.1395 8.5523-6.97638 19.1733-10.925457 30.2059-11.2311195 11.0325-.3056625 21.8558 3.0492895 30.7812 9.5413595.2779.20329.5079.46436.6746.76526.1671.3008.2667.6342.2925.9773s-.0233.6877-.1437 1.0099c-.1205.3223-.3092.6147-.5534.857z" fill="url(#a)"/><path d="m80.4703 86.7874-12.0025-12.0025c-.3771-.3767-.87-.6158-1.3992-.6792-.5291-.0633-1.0645.0529-1.52.33-4.4516 2.6854-9.552 4.105-14.7508 4.105-5.1992 0-10.2995-1.4196-14.7512-4.105-.4554-.2771-.9906-.3933-1.52-.33-.5293.0634-1.0221.3025-1.3993.6792l-12.0023 12.0025c-.2517.2417-.4471.5362-.5722.8621-.1252.3258-.1772.6754-.1522 1.0237.025.3484.1263.6867.2967.9913.1705.305.4058.5683.6895.7716 8.5435 6.2163 18.8373 9.5649 29.4031 9.5649 10.5654 0 20.8592-3.3486 29.4029-9.5649.2846-.202.5213-.4645.6933-.7687.1717-.3042.2746-.6421.3013-.9904.0262-.3484-.0242-.6984-.1479-1.0246-.1242-.3267-.3184-.6221-.5692-.865z" fill="#1f0256"/><path d="m50.8221 64.2593c7.8858 0 14.2792-6.393 14.2792-14.2792 0-7.8858-6.3934-14.2789-14.2792-14.2789-7.8863 0-14.2791 6.3931-14.2791 14.2789 0 7.8862 6.3928 14.2792 14.2791 14.2792z" fill="#1f0256"/></g></svg>