<svg height="35.5" viewBox="0 0 169.606 35.5" width="169.606" xmlns="http://www.w3.org/2000/svg" xmlns:xlink="http://www.w3.org/1999/xlink"><clipPath id="a"><path d="m0 0h169.606v35.5h-169.606z"/></clipPath><g clip-path="url(#a)"><path d="m31.747 17.913a14 14 0 0 1 -27.994 0c0-.054 0-.108 0-.163a14.014 14.014 0 0 1 16.81-13.719v-3.807a17.751 17.751 0 0 0 -20.563 17.526v.163a17.747 17.747 0 0 0 35.492 0z" fill="#f24d4a"/><path d="m32.548 26.242a6.128 6.128 0 0 1 -6.118-5.987c0-.045 0-.09 0-.135a6.127 6.127 0 0 1 3.21-5.384l.06-.036c.065-.034.129-.068.195-.1.048-.023.1-.044.144-.065l.124-.056c.062-.026.126-.05.19-.075l.086-.034c.071-.026.142-.049.214-.073l.069-.023c.073-.023.148-.043.222-.064l.067-.019c.072-.019.145-.035.218-.051l.078-.018c.067-.014.135-.025.2-.037l.1-.017c.061-.009.122-.016.184-.024.041 0 .082-.011.123-.016s.11-.009.165-.013.1-.009.146-.011.1 0 .154 0 .1 0 .154 0h.012a6.079 6.079 0 0 1 2.64.6v-3.716a9.575 9.575 0 0 0 -2.64-.373h-.023a9.615 9.615 0 0 0 -9.582 9.6v.135a9.613 9.613 0 0 0 9.52 9.467h.081q.256 0 .511-.014h.037a9.605 9.605 0 0 0 9.054-9.453c0-.045 0-.09 0-.135v-14.583a16.6 16.6 0 0 0 -3.483-1.885v17.027h-.026a6.13 6.13 0 0 1 -6.1 5.568z" fill="#f24d4a" transform="translate(-14.799 -2.353)"/><g fill="#250c36"><path d="m433.2 29.913a9.125 9.125 0 0 1 -9.554-9.52v-16.264h3.328v9.808a8.472 8.472 0 0 1 6.6-2.859 9.01 9.01 0 0 1 9.281 9.349 9.435 9.435 0 0 1 -2.708 6.8 9.772 9.772 0 0 1 -6.949 2.683m.034-15.679a5.99 5.99 0 0 0 -6.261 6.261 6.261 6.261 0 0 0 12.523 0 5.991 5.991 0 0 0 -6.261-6.261" transform="translate(-273.254 -2.663)"/><path d="m124.823 29.913a9.771 9.771 0 0 1 -6.948-2.683 9.435 9.435 0 0 1 -2.709-6.8 9.01 9.01 0 0 1 9.281-9.349 8.474 8.474 0 0 1 6.6 2.859v-9.811h3.327v16.264a9.125 9.125 0 0 1 -9.554 9.52m-.034-15.679a5.991 5.991 0 0 0 -6.261 6.261 6.261 6.261 0 0 0 12.523 0 5.991 5.991 0 0 0 -6.261-6.261" transform="translate(-74.282 -2.663)"/><path d="m243.926 42.539a8.993 8.993 0 0 1 -9.28-9.314 9.5 9.5 0 0 1 2.7-6.846 9.719 9.719 0 0 1 6.919-2.675c5.646 0 9.588 3.915 9.588 9.521v8.869h-3.153v-2.711a8.241 8.241 0 0 1 -6.775 3.156m.343-15.679a5.991 5.991 0 0 0 -6.261 6.261 6.261 6.261 0 0 0 12.523 0 5.991 5.991 0 0 0 -6.261-6.261" transform="translate(-151.347 -15.289)"/><path d="m0 0h3.328v25.339h-3.328z" transform="translate(105.076 1.466)"/><path d="m190.065 37.158a5.966 5.966 0 0 1 -5 2.224 5.889 5.889 0 0 1 -6.158-4.991h15.712v-1.27a9.389 9.389 0 0 0 -2.669-6.742 9.642 9.642 0 0 0 -6.886-2.676 9.21 9.21 0 0 0 -9.623 9.418 9.693 9.693 0 0 0 18.37 4.037zm-5-10.3a5.844 5.844 0 0 1 6.007 4.444h-12.056a5.851 5.851 0 0 1 6.045-4.444" transform="translate(-113.158 -15.289)"/><path d="m326.875 29.468v-9.349c0-3.74-2.02-5.884-5.543-5.884-3.47 0-5.542 2.2-5.542 5.884v9.349h-3.328v-25.339h3.328v9.462a7.386 7.386 0 0 1 5.884-2.512 8.435 8.435 0 0 1 6.061 2.24 9.242 9.242 0 0 1 2.467 6.8v9.349z" transform="translate(-201.539 -2.663)"/><path d="m376.494 43.348c-5.554 0-8.87-3.38-8.87-9.041v-9.349h3.327v9.349c0 3.686 2.072 5.886 5.543 5.886s5.542-2.2 5.542-5.886v-9.349h3.327v9.349c0 5.662-3.316 9.041-8.869 9.041" transform="translate(-237.118 -16.098)"/></g></g></svg>