<svg enable-background="new 0 0 500 124" viewBox="0 0 500 124" xmlns="http://www.w3.org/2000/svg"><path d="m7.9 23.3v48.2c0 4.4 1.5 7.8 3.3 9.7s30.9 22.6 31.3 22.8c.4-.2 29.5-21 31.3-22.8s3.3-5.3 3.3-9.7v-48.2z" fill="#f7941d" stroke="#f7941d" stroke-miterlimit="10" stroke-width="10"/><path d="m42.5 22.8v81.1c.4-.3 29.5-21.4 31.3-23.2s3.3-5.3 3.3-9.7v-48.2z" fill="#fbb040"/><path d="m42.5 33.5c-6.8 0-12.2 4.9-12.2 10.9v8.9h4.7v-8.2c0-3.6 3.4-6.5 7.4-6.5m-14.3 32.9h10.6l1.1-5.1c-.9-.6-1.4-1.5-1.4-2.5h-10.3c-2.1-.2-4 1.3-4.2 3.4s1.3 4 3.4 4.2c.3.1.6.1.8-0zm14.4-16.7h-14.4c-2.1-.2-4 1.3-4.2 3.4s1.3 4 3.4 4.2h.9 10.6c.9-1.2 2.3-1.9 3.7-1.9m0 12.5h-14.4c-2.1-.2-4 1.3-4.2 3.4s1.3 4 3.4 4.2h.9 14.4" fill="#e6e7e8"/><path d="m42.5 38.5c4.1 0 7.2 3 7.2 6.6v8.2h4.7v-8.9c0-6-5.1-10.9-11.9-10.9m18.4 34.2c-.1-2.2-2.1-3.9-4.3-3.8h-10.2c0 1-.6 2-1.4 2.5l1.1 5.1h10.6c2.2.1 4.1-1.6 4.2-3.8zm-18.4-7.2c1.4 0 2.7.7 3.5 1.9h10.7c2.1.2 4-1.3 4.2-3.4s-1.3-4-3.4-4.2c-.3 0-.6 0-.9 0h-14.1m0 25.8h14.2c2.1.3 4-1.2 4.3-3.3s-1.2-4-3.3-4.3c-.3 0-.6 0-1 0h-14.2" fill="#fff"/><g fill="#333"><path d="m132.2 88.2c-14.9 0-26.6-9.3-26.6-31 0-19 10.8-30.6 25.3-30.6 16.7 0 24.4 13.3 24.4 29.6v2.3h-39c.3 13.8 6.7 20.2 16.7 20.2 8.3 0 14.3-3.3 20.6-8.4l1.6 9.9c-6.5 5.4-14.7 8.2-23 8zm-15.4-37.9h27.7c-1.3-9.5-5.4-15-13.7-15-6.7 0-12.3 4.9-14 15z"/><path d="m195.1 87.8-14.4-23.2-13.6 22.4h-11.3l19.3-30.3-18.1-28 10.6-1.7 13.1 21.5 12.5-20.6h11.2l-18.2 28.6 19.4 29.8z"/><path d="m244.2 87-1.2-8c-4.6 4.8-10.8 9.2-20.2 9.2-10.4 0-16.9-6.4-16.9-16.5 0-14.8 12.3-20.6 36.2-23.2v-2.4c0-7.4-4.3-10-11-10-7 0-13.6 2.2-19.9 5.1l-1.4-9.5c6.9-2.9 13.4-5 22.3-5 14 0 20.7 5.8 20.7 19v41.3zm-2-30c-21.2 2.1-25.7 8-25.7 14.1 0 4.8 3.1 7.9 8.6 7.9 6.3 0 12.3-3.2 17.1-8.3z"/><path d="m331 87v-40.3c0-6.1-2.2-10.2-8.4-10.2-5.7 0-11.1 3.8-16.3 9.5v41h-10.7v-40.3c0-6.1-2.2-10.2-8.4-10.2-5.7 0-11.1 3.8-16.2 9.5v41h-10.7v-59.2h8.5l1.3 8.6c5.4-5.1 11.9-9.8 20-9.8 8.4 0 13 3.7 15.2 9.8 5.2-5.1 12.2-9.8 20.2-9.8 11 0 16.3 6.7 16.3 17.4v43z"/><path d="m356.4 15.9c-3.8 0-6.9-3.1-6.9-6.9s3-7 6.9-7.1c3.8.1 6.8 3.3 6.8 7.1s-3 6.9-6.8 6.9zm-5.4 71.1v-59.2h10.7v59.2z"/><path d="m394.1 88c-10.1 0-16.7-3.7-16.7-15.6v-35.3h-8.7v-9.3h8.7v-19.7l10.5-1.6v21.3h29.4l-5.4 9.3h-24v33.2c0 4.8 1.9 7.8 8 7.8 1.7 0 3.3-.1 4.9-.4l1.5 9.4c-2.8.7-5.5.9-8.2.9z"/><path d="m435.9 92c-4.9 13.8-11.1 17.4-20.6 17.4-1.3 0-2.5-.2-3.7-.5l-1.5-9.7c2 .5 4 .8 6 .9 4.5 0 7.5-2.2 9.2-6.9l2.2-6.1-20.9-58.5 10.6-.5 15.7 46 15.3-46.2h11z"/><path d="m468.4 31.4c0 2.1-1.7 3.8-3.8 3.8s-3.8-1.7-3.8-3.8 1.7-3.8 3.8-3.8 3.8 1.7 3.8 3.8zm-6.6 0c-.1 1.6 1.2 2.9 2.8 3h.1c1.6 0 2.8-1.3 2.8-2.9v-.1c.1-1.6-1-2.9-2.6-3.1-1.6-.1-2.9 1-3.1 2.6zm2.3 2h-.9v-3.8c.5-.1.9-.1 1.4-.1.4 0 .9.1 1.3.3.2.2.4.5.4.8 0 .4-.3.8-.8.9.4.2.6.5.7.9 0 .3.1.7.3 1h-.9c-.1-.3-.2-.6-.3-.9 0-.4-.3-.6-.7-.6 0 0 0 0-.1 0h-.4zm0-2.1h.4c.5 0 .9-.2.9-.5s-.2-.6-.8-.6c-.2 0-.3 0-.5 0z"/></g></svg>