<svg fill="none" height="31" viewBox="0 0 63 31" width="63" xmlns="http://www.w3.org/2000/svg"><g fill="#111827"><path d="m37.5568 30.2745c-.0237-.0163-.0455-.0426-.0719-.0462-.0563-.0091-.1155-.0054-.1728-.0109-1.2614-.1024-.823-.0653-1.3869-.1804-.3746-.0771-.2355-.0254-.7957-.185-.8449-.2402-.8722-.2556-1.5452-.5784-1.5142-.7253-2.9029-2.1542-3.4904-3.3228-.1473-.2919-.0309-.6347.3083-.7117.1837-.0417.3592-.117.5411-.1696.2392-.0698.261-.0634.774-.2085 1.3005-.3681.7648-.2303 1.3978-.4198.1719-.0516.3483-.0897.5202-.1405.723-.2112.9703-.3889 1.2714-.0879.9967.9964 1.4696 1.5639 3.1776 1.6691.0927.0054.1846.0426.2764.039 1.155-.0463.9422-.1143 1.5324-.224.251-.0462.4802-.1441.703-.2565.6821-.3446.9377-.5622 1.2178-.8867.3856-.4479.4402-.7009.6511-1.3119.001-.0028.0664-.437.0719-.6338.0064-.213.0127-1.0426-.0055-1.2566-.1946.1451-1.0476.9339-2.4127 1.3283-1.2278.3544-1.8435.3363-3.0921.3019-.6194-.0173-1.6661-.2648-2.4582-.6583-.613-.3046-.7694-.3889-1.3906-.844-.9585-.7027-1.8862-1.9575-2.2536-2.8605-.402-.9864-.1828-.2429-.6084-1.7715-.02-.0708-.0346-.3718-.0873-.583-.0618-.2466-.0282-.5005-.0728-.7453-.0745-.4116-.05-.8241-.0282-1.233.0455-.884.0974-.932.1637-1.2892.0273-.1469.0455-.2965.0783-.4425.0254-.1142.0673-.2239.1009-.3363.111-.3717.2319-.8242.502-1.321.4065-.7489.2456-.5612.8831-1.43156.4465-.61017 1.3005-1.38444 1.8643-1.70539.2729-.15503.5384-.32548.8185-.46601.2238-.11242.9695-.38985 1.1705-.45059.0537-.01632.9213-.19674.924-.19674.4438-.02267.8849-.10064 1.3323-.06891 1.3542.09701.8549.05077 1.4706.1768.0536.01088.5302.08613.8703.21396 1.3787.51588 1.8153.97373 2.129 1.2158.0228.01723.0546.02267.0955.03808.0564-.6283-.1318-.97917.3556-1.14418.07-.02357 4.2062-.00997 4.2089-.00997.2274.0136.4193.21397.4256.44425.0164.56574-.0027 15.63226-.0027 15.63586-.0009 1.214-.4902 2.6165-.9631 3.3437-.854 1.3128-1.7543 2.0308-3.1485 2.7507-.2164.1115-.4502.1913-.6784.2783-.7903.3037-.8067.272-1.2305.3799-.2046.0517-.4165.1124-.4474.117-1.0259.1505-.5921.0952-1.1341.1804-.1137.0181-.4393.0163-.6766.0299-.0355.0018-.0701.0308-.1046.0471-.5266-.0009-1.0523-.0009-1.5779-.0009zm4.9792-15.4654c-.0027-.2175.0009-.4342-.0437-.6527-.04-.1959-.0627-.3953-.1318-.5848-.0737-.2004-.1246-.4116-.2174-.6029-.3174-.6591-.8876-1.2729-1.3878-1.5866-.4138-.2602-.6721-.3772-1.1532-.4796-.1819-.039-.3638-.0934-.5475-.1061-.9012-.0617-1.8998.165-2.6383.7869-1.2195 1.0254-1.2704 2.1479-1.3314 2.312-.0909.2447-.0445.5031-.0927.7543-.0328.1722-.0119.3572.0272.5403.0401.1895.0082.3917.0728.5839.0709.2122-.0182.253.3265 1 .13.2811.2946.5431.5029.7725.5966.6582 1.1486 1.0027 2.0272 1.1804.2464.0499.4956.0562.7421.0861.1564.0182.3201-.0217.4801-.0407.6849-.0844.5321-.0989.965-.2457.672-.2276 1.4942-.8967 1.9362-1.7607.3401-.6637.2555-.6909.3565-.9874.0654-.1922.0764-.3943.1046-.592.0172-.1233.0027-.2511.0027-.3772z"/><path d="m16.6571 14.3866c-.0627-.0943-.0245-.0662-1.8034-.0662-1.0831 0-2.1663-.0018-3.2485.0018-.1819.0009-.3374-.0381-.4366-.2013-.0673-.1106-.1027-.2321-.1027-.3626.0018-3.3782-.0037-3.1171.0018-3.2059.0109-.1831.06-.3527.2255-.4615.171-.1115-.5202-.0671 10.2276-.0743.1965 0 .3793.019.4757.213.1955.3944.1882 1.7417.1819 2.1479-.0046.2883.0154.5802-.0273.8622-.0355.2293-.0109.4687-.101.689-.0209.0508.0246.1442-.1246.6673-.0218.0771-.2473 1.6084-1.4651 3.4443-.9358 1.4116-2.1072 2.534-3.7205 3.4679-1.1159.6464-1.8662.8812-3.1112 1.2085-.3583.0943-.6021.0916-.874.1451-.2574.0508-.522.0353-.7776.0771-.4701.077-.9403.0344-1.4096.0362-.2956.0009-.59295-.0326-.88761-.0662-.73028-.0825-1.10952-.2076-1.45602-.2937-.48019-.1197-.37014-.0508-1.35689-.4334-.22281-.087-.44835-.1704-.66389-.2747-.37378-.1813-.7412-.3744-1.09224-.5993-2.09445-1.34-3.48044-2.8867-4.507199-5.4634-.070027-.1759-.381057-1.3064-.381966-1.3101-.101858-.3943-.090035-.6908-.1500581-1.0281-.1018576-.5648-.0545666-1.1342-.06457042-1.7017-.00454721-.2403-.02273608-.4887.02637382-.7199.047291-.223.0027284-.4579.0982197-.6709.015461-.0354-.007275-.2249.129141-.69722.034559-.11786.043653-.24298.076393-.36175.060023-.21668.224632-.72621.307392-.94562.171884-.45604.2601-.82594 1.125894-2.20675.99311-1.5848 3.05754-3.26389 4.69545-3.9076.29829-.11696.59205-.2466.89216-.35903.15733-.05893.32467-.09338.48655-.13962.71755-.20309.61206-.2185 2.32997-.42702.1828-.02176 1.5652-.00726 1.7498-.00272.2392.00544.4784.03989.7166.06527.3393.03627.5857.10699.8667.16682 1.6161.33999 2.8911.87491 4.3672 1.94111.6448.46601 1.205 1.02359 1.7406 1.60475.2019.2185.3693.46963.5448.7108.1373.18858.2928.37081.3883.58025.141.30916.03.62013-.3465.70808-.2619.06165-1.305.39801-1.6642.49321-1.346.35449.5129-.15504-2.14.61923-.2082.06074-.5047.18949-.7821-.15232-.2364-.29193-.4956-.55939-.7994-.78333-.1546-.11423-.3037-.23844-.4665-.33999-.4857-.301-.9367-.54035-1.497-.70536-.221-.06437-.4438-.13055-.6793-.14869-.2265-.01722-.4493-.07797-.6757-.09882-.3947-.03717-.9959.00181-1.3469.05893-.23738.03899-.46838.11242-.70302.16682-1.4642.33455-3.0239 1.58661-3.69143 3.11973-.37378.85954-.30102.68994-.44017 1.28384-.01819.0788-.11368.5031-.11641.5276-.05456.4824-.09822.9674-.05002 1.4515.01728.1696.02456.3418.05366.5087.04638.2656.22645.9628.30285 1.1741.13187.3608.25282.747.77757 1.5267.51383.7643 1.57515 1.6973 2.77835 2.1152.74392.2584.99762.253 1.34502.3219.4102.0816 1.2814.0707 1.7553-.0662.0991-.029 1.2123-.1659 2.4209-1.0381.6275-.4524 1.3533-1.2466 1.717-2.0037.0701-.1459.1483-.2883.2156-.4352.0536-.1142.0946-.233.1409-.3526z"/><path d="m55.9237 22.9777c-1.1295 0-1.7252.077-3.605-.5032-.1273-.039-.2519-.0862-.3756-.1369-1.2814-.5313-1.8416-1.0164-2.3209-1.5758-.3738-.4361-.5275-.7915-.7512-1.3101-.0919-.2139-.0164-.5022.1746-.6382.1492-.1061.3629-.126.743-.2348.1774-.0508.3511-.1125.5275-.165.1501-.0445.3629-.0862.5666-.1496.2437-.0771.4856-.1596.7312-.2312.1873-.0544.3801-.0916.5684-.1451.5829-.165 1.175-.4977 1.4105.0562.1319.3101.3092.5839.593.7933.6639.4887 1.4087.6011 2.2408.5957.1601-.0009.6476-.0961.8495-.1605.2355-.0762.4374-.1985.6202-.35.1446-.1187.2528-.2774.2974-.4678.0173-.0752.0536-.1505.0518-.2248-.0073-.2439-.0964-.4542-.2764-.6265-.3138-.3019-.6303-.3618-1.2142-.5367-.0382-.0118-.3419-.0454-.5538-.0862-.1519-.029-.3001-.0743-.4511-.1051-.1473-.03-.2965-.049-.4447-.078-.2055-.0408-.5266-.1152-.5439-.1179-.8103-.1251-.4228-.0689-.9094-.1795-.392-.0888-.6066-.0979-.8085-.1469-.1882-.0462-.7448-.213-1.3078-.4351-.5729-.2267-1.2959-.6873-1.837-1.3174-.4875-.5675-.8822-1.4805-.8695-2.3563.02-1.3409-.0009-.9792.1255-1.5168.362-1.53315 1.4715-2.67279 2.883-3.30834.9376-.4225 1.2177-.44788 2.2108-.63283.2247-.04171.4502-.02176.6694-.06256.411-.07616.8239-.04352 1.2359-.03717 1.0113.01541 1.6124.18223 1.8316.23209.0037.00091.6748.15504.8222.20581 1.5242.52222 2.9784 1.49776 3.6141 2.981.11.2575.1928.3192.0145.5966-.0618.097-.1491.1668-.2764.1994-.2483.0626-.4875.156-.7331.2285-.1873.0544-.3801.0907-.5674.1442-.3111.0897-.2483.1088-1.3979.4234-.1882.0516-.3837.0807-.5656.1468-.1374.0499-.271.0617-.412.0572-.1719-.0055-.2865-.1106-.3438-.2439-.2701-.6229-.8094-1.0644-1.2705-1.2149-.3228-.1052-.4874-.1714-.5238-.175-.3374-.0308-.6739-.1106-1.0131-.0535-.291.049-.593.0689-.8531.233-.2273.1433-.4074.3264-.5202.5766-.0937.2068-.0873.4234-.0455.6274.0573.282.2529.4878.5093.6156.4757.2376.5075.1487 2.4473.5748.1456.0318.2883.078.4339.1079.1518.0318.3073.0481.4592.078.2056.0408.3547.0843.5129.117.2065.0426.8558.1713 1.176.2647 1.3896.4071 2.6892 1.3255 3.223 2.6555.3874.9665.3192 1.4597.3201 2.2376 0 .3055-.0454.5748-.1246.8559-.0836.2983-.0936.5304-.4147 1.0952-.2437.4297-.5429.816-.9203 1.1396-.301.2575-.6203.4905-.9686.6773-.3628.1949-.9667.4696-1.4533.6228-.0782.0245-1.0331.253-1.0367.253-1.1314.1405-.8704.1432-2.1545.1432.0009-.0027.0009-.0072.0009-.0117z"/><path d="m28.6622 21.9463c0 .1587-.0382.2992-.1327.4153-.1819.2221-.3902.1768-.8649.1768-1.1459 0-2.2927.0009-3.4386-.0009-.2319 0-.4202-.0816-.5138-.3119-.061-.1487-.02.8586-.0364-13.75731 0-.21124.08-.35449.2455-.46147.0491-.03173.0664-.03264.553-.17589.4156-.1224.5002-.16047.7466-.233.1774-.05168.3583-.09248.5357-.14416.2983-.08704.4747-.16138 1.4433-.42884.2573-.07072.522-.11967.7721-.21124.1773-.06438.3128-.03446.4629.05711.1473.09067.191.23029.2228.38079.0064.02811-.0027 10.37101.0045 14.69471z"/><path d="m23.6759 2.37957c-.0037-.21578.1336-.40436.3301-.46057 1.5369-.44063.5948-.19765 1.7088-.49956 1.647-.446061 2.0535-.605629 2.2991-.676347.2737-.078877.6448.089757.6439.601097-.0018.97917-.0009 1.95743-.0009 2.9366 0 .16682-.0501.31278-.181.42158-.1655.13781-.1919.09792-.6866.24298-.181.05349-.3593.11695-.5403.17045-.1727.05077-.3483.09066-.5202.14053-.0036.0009-1.3059.39257-1.6479.48867-.1882.05259-.3837.08341-.5675.14778-.1473.05168-.291.07435-.4429.06165-.2055-.01722-.3901-.21215-.391-.41886-.0046-.99549.0045-2.63468-.0036-3.156z"/></g></svg>