<svg fill="none" height="42" viewBox="0 0 100 42" width="100" xmlns="http://www.w3.org/2000/svg"><path clip-rule="evenodd" d="m1.04236.934631c.63095-.261144 1.35722-.116796 1.84013.365739l9.36361 9.35613c.6595.6589.6595 1.7272 0 2.3861-.6594.6589-1.7285.6589-2.3879 0l-6.48115-6.476v17.0079l12.12665 12.117v-17.5534c0-.4474.1779-.8766.4946-1.193l15.6572-15.64473c.483-.482535 1.2092-.626883 1.8402-.365739.6309.261139 1.0423.876349 1.0423 1.558749v21.47322c0 .4475-.1779.8766-.4945 1.193l-3.7181 3.7151c-.6594.6589-1.7286.6589-2.388 0-.6594-.6588-.6594-1.7271 0-2.386l3.2236-3.221v-16.70111l-12.2802 12.27041v20.9277c0 .6824-.4114 1.2976-1.0424 1.5588-.6309.2611-1.3572.1168-1.8401-.3658l-15.503742-15.4913c-.31666-.3164-.494558-.7456-.494558-1.1931v-21.77992c0-.6824.411396-1.29761 1.04236-1.558749z" fill="#ff6868" fill-rule="evenodd"/><g fill="#253646"><path d="m93.498 10.0703h5.91292v23.6205h-5.91292z"/><ellipse cx="96.4523" cy="4.3539" rx="3.54775" ry="3.54775"/><path d="m82.889.806152h5.91291v32.8233h-5.91291z"/><path clip-rule="evenodd" d="m69.0516 10.0103c-6.5278 0-11.8197 5.2876-11.8197 11.8102 0 6.4383 5.383 11.8103 11.8197 11.8103 3.2249 0 6.1481-1.2905 8.2807-3.3828l-4.1662-4.1629c-1.3284 1.2824-3.2218 1.9816-5.2011 1.6189 3.8719-3.8687 7.6385-7.5855 11.486-11.43-2.0138-3.7018-5.9524-6.2637-10.3994-6.2637zm-5.7042 13.6312 7.5266-7.5206c-4.5039-1.4366-8.9643 3.0203-7.5266 7.5206z" fill-rule="evenodd"/><path clip-rule="evenodd" d="m46.4431 10.0103h6.1401v19.9394c0 6.3379-5.1954 11.4945-11.6662 11.6531v.0037h-3.07v-6.1352h3.07v-.002c3.0148-.0799 5.4461-2.5073 5.5261-5.5196z" fill-rule="evenodd"/><ellipse cx="49.5461" cy="4.3539" rx="3.54775" ry="3.54775"/></g></svg>