<?xml version="1.0" encoding="UTF-8" standalone="no"?>
<svg
   width="100%"
   height="100%"
   viewBox="0 0 96 20"
   fill="none"
   version="1.1"
   id="svg3"
   sodipodi:docname="lithic-brand.svg"
   inkscape:export-filename="../../../../../../../tmp/lithic-brand.png"
   inkscape:export-xdpi="90.05"
   inkscape:export-ydpi="90.05"
   inkscape:version="1.3 (0e150ed6c4, 2023-07-21)"
   xmlns:inkscape="http://www.inkscape.org/namespaces/inkscape"
   xmlns:sodipodi="http://sodipodi.sourceforge.net/DTD/sodipodi-0.dtd"
   xmlns="http://www.w3.org/2000/svg"
   xmlns:svg="http://www.w3.org/2000/svg">
  <sodipodi:namedview
     id="namedview3"
     pagecolor="#ffffff"
     bordercolor="#666666"
     borderopacity="1.0"
     inkscape:showpageshadow="2"
     inkscape:pageopacity="0.0"
     inkscape:pagecheckerboard="0"
     inkscape:deskcolor="#d1d1d1"
     inkscape:zoom="1.4390421"
     inkscape:cx="75.049924"
     inkscape:cy="26.406455"
     inkscape:window-width="1206"
     inkscape:window-height="1034"
     inkscape:window-x="0"
     inkscape:window-y="0"
     inkscape:window-maximized="1"
     inkscape:current-layer="svg3" />
  <g
     clip-path="url(#clip0_2124_62976)"
     id="g3">
    <path
       d="M1.35509 3.5539e-06C1.24209 -3.43891e-05 1.13076 0.0271657 1.03051 0.0792991C0.930257 0.131433 0.844051 0.206963 0.779193 0.299491C0.714336 0.392019 0.672737 0.498817 0.657923 0.610837C0.643109 0.722857 0.655515 0.836797 0.694091 0.943004L4.92109 12.603C5.02209 12.881 5.28709 13.066 5.58309 13.066H13.7251C13.8381 13.066 13.9494 13.0388 14.0497 12.9867C14.1499 12.9346 14.2361 12.859 14.301 12.7665C14.3659 12.674 14.4075 12.5672 14.4223 12.4552C14.4371 12.3431 14.4247 12.2292 14.3861 12.123L10.1591 0.463004C10.1097 0.326968 10.0195 0.209497 9.90083 0.126631C9.78217 0.0437653 9.64082 -0.00045653 9.49609 3.5539e-06H1.35509ZM13.4481 19.599C13.3348 19.5991 13.2232 19.5717 13.1228 19.5194C13.0223 19.467 12.936 19.3911 12.8712 19.2982C12.8064 19.2053 12.765 19.0982 12.7505 18.9858C12.7361 18.8735 12.7489 18.7593 12.7881 18.653L15.8661 10.26C15.9157 10.1248 16.0055 10.0081 16.1236 9.92567C16.2416 9.84322 16.3821 9.79901 16.5261 9.799H24.6661C25.1561 9.799 25.4951 10.285 25.3261 10.744L22.2481 19.138C22.1984 19.273 22.1084 19.3895 21.9904 19.4717C21.8724 19.554 21.732 19.5981 21.5881 19.598H13.4481V19.599ZM48.7581 19.69V17.89H39.8961V3.5539e-06H37.9831V19.69H48.7581ZM52.8881 19.69V6.865H51.0581V19.69H52.8881ZM61.1761 18.2C59.7141 18.2 58.9261 17.609 58.9261 15.162V8.439H62.4711V6.864H58.9261V2.616H57.1251V6.864H54.6491V8.439H57.1251V15.499C57.1251 17.384 57.6031 18.649 58.4191 19.184C59.2071 19.747 59.8261 19.859 60.8111 19.859C61.7111 19.859 62.4141 19.775 62.8931 19.634V18.003C62.4141 18.143 61.8231 18.2 61.1761 18.2ZM71.5501 6.526C69.0741 6.526 67.3581 7.82 66.7671 9.817V6.864H66.7391V3.5539e-06H64.9391V19.69H66.7671V13.165C66.7671 10.099 68.2301 8.129 70.9591 8.129C73.4071 8.129 74.6171 9.649 74.6171 12.686V19.691H76.4171V11.955C76.4171 8.439 74.7861 6.526 71.5501 6.526ZM81.4931 19.69V6.865H79.6641V19.69H81.4941H81.4931ZM90.1201 20C93.4681 20 95.6901 18.228 96.0001 15.415H94.1711C93.8341 17.328 92.3711 18.34 90.0911 18.34C87.3061 18.34 85.5611 16.4 85.5611 13.277C85.5611 10.155 87.3061 8.214 90.0911 8.214C92.3711 8.214 93.8341 9.283 94.1711 11.224H96.0001C95.6901 8.383 93.4681 6.582 90.1201 6.582C88.1781 6.582 86.6311 7.202 85.4771 8.411C84.3241 9.648 83.7331 11.28 83.7331 13.277C83.7331 15.274 84.3231 16.906 85.4771 18.144C86.6311 19.38 88.1781 20 90.1201 20Z"
       fill="currentColor"
       style="--darkreader-inline-fill: currentColor;"
       data-darkreader-inline-fill=""
       id="path1" />
    <path
       d="M52.0501 4.22123C52.8272 4.22123 53.4571 3.59129 53.4571 2.81423C53.4571 2.03716 52.8272 1.40723 52.0501 1.40723C51.273 1.40723 50.6431 2.03716 50.6431 2.81423C50.6431 3.59129 51.273 4.22123 52.0501 4.22123Z"
       fill="currentColor"
       style="--darkreader-inline-fill: currentColor;"
       data-darkreader-inline-fill=""
       id="path2" />
    <path
       d="M80.5369 4.22123C81.314 4.22123 81.9439 3.59129 81.9439 2.81423C81.9439 2.03716 81.314 1.40723 80.5369 1.40723C79.7598 1.40723 79.1299 2.03716 79.1299 2.81423C79.1299 3.59129 79.7598 4.22123 80.5369 4.22123Z"
       fill="currentColor"
       style="--darkreader-inline-fill: currentColor;"
       data-darkreader-inline-fill=""
       id="path3" />
  </g>
  <defs
     id="defs3">
    <clipPath
       id="clip0_2124_62976">
      <rect
         width="96"
         height="20"
         fill="currentColor"
         style="--darkreader-inline-fill: currentColor;"
         data-darkreader-inline-fill=""
         id="rect3" />
    </clipPath>
  </defs>
</svg>
