<svg fill="none" height="70" viewBox="0 0 157.74648 70" width="157.74648" xmlns="http://www.w3.org/2000/svg"><g fill="#110837"><path clip-rule="evenodd" d="m43.7129 15.9088h-6.0967v16.3768h-5.5035v-16.3768h-6.0978v-4.613h17.698zm-1.1575 27.274h-7.8161v3.4985h6.1912v4.6129h-6.1912v3.6219h7.8161v4.6129h-13.3196v-21.0203h13.3196zm-17.6656 12.2899c-.3751.8362-.9071 1.5796-1.5949 2.1985s-1.5637 1.0839-2.5954 1.4245c-1.0316.3406-2.188.4944-3.4701.4944-2.6889 0-5.1596-.7739-7.47338-2.3217l2.37608-4.303c.8136.7117 1.626 1.239 2.4396 1.5795.8125.3395 1.5948.5262 2.3761.5262.9071 0 1.5637-.1867 2.0011-.5884.4374-.4028.6566-.8361.6566-1.3623 0-.31-.0623-.5883-.1569-.8045-.1246-.2172-.3116-.4344-.562-.62s-.5943-.3711-1.0317-.5261c-.4074-.155-.9382-.3406-1.5325-.5567-.719-.2172-1.4068-.465-2.0946-.7128s-1.2821-.6189-1.8452-1.0523c-.532-.4333-.9694-.99-1.2822-1.6406-.3438-.6506-.4997-1.4856-.4997-2.5073 0-1.0218.187-1.9201.5309-2.7552.3439-.8361.8447-1.5173 1.4702-2.1056.6255-.5884 1.4068-1.0523 2.3138-1.3623.9059-.3406 1.9387-.4956 3.0639-.4956 1.0629 0 2.158.155 3.2832.4334 1.1563.2794 1.8875.6381 2.9192 1.1948l-1.3622 4.5123c-.5943-.4639-1.6505-1.1247-2.276-1.3725-.5943-.2172-1.1886-.3406-1.7517-.3406-.719 0-1.281.1551-1.7507.4956-.4374.3406-.6878.7423-.6878 1.2695 0 .3711.1247.6495.3439.8973.2193.2478.532.4333.8759.6189.3751.1855.7813.31 1.2509.4333.4686.1245.906.2478 1.3756.4028 1.813.5884 3.1263 1.3623 3.9398 2.3218.8436.9595 1.2499 2.229 1.2499 3.7768.0634 1.0523-.1247 2.0129-.4997 2.8479zm-8.3482-44.2074v16.3768h10.8857l-1.2688 4.613h-15.1204v-20.9898zm-16.5416 59.0711h53.4211v-69.999974h-53.4211z" fill-rule="evenodd"/><path d="m72.7457 43.8364h11.4678v-2.9581h-7.8799v-4.0518h7.2585v-2.9581h-7.2585v-4.0436h7.8468v-2.9581h-11.4347zm29.8233-8.4848c0-5.5516-3.4472-8.7169-7.9465-8.7169-4.5242 0-7.9463 3.1653-7.9463 8.7169 0 5.5267 3.4221 8.7168 7.9463 8.7168 1.0606 0 2.0632-.174 2.9746-.522l1.3672 1.6821h3.3477l-2.4279-3.0493c1.6569-1.4832 2.6849-3.8032 2.6849-6.8276zm-9.1894 2.5852 2.1709 2.867c-.29.058-.6049.0911-.928.0911-2.6101 0-4.3087-1.9472-4.3087-5.5433s1.6986-5.5433 4.3087-5.5433c2.6018 0 4.3087 1.9472 4.3087 5.5433 0 1.8478-.4557 3.2647-1.2429 4.201l-1.2595-1.6158zm22.2704-11.0701v10.7138c0 1.9389-1.359 3.3393-3.447 3.3393-2.08 0-3.447-1.4004-3.447-3.3393v-10.7138h-3.588v11.0204c0 3.7121 2.801 6.1896 7.035 6.1896 4.218 0 7.035-2.4775 7.035-6.1896v-11.0204zm10.069 0h-3.588v16.9697h3.588zm2.247 2.9581h5.196v14.0116h3.546v-14.0116h5.195v-2.9581h-13.937zm15.18-2.9581 6.19 10.9707v5.999h3.563v-5.999l6.189-10.9707h-4.019l-3.869 7.3083h-.166l-3.869-7.3083z"/></g></svg>