<svg fill="none" height="32" viewBox="0 0 157 32" width="157" xmlns="http://www.w3.org/2000/svg" xmlns:xlink="http://www.w3.org/1999/xlink"><clipPath id="a"><path d="m0 0h35.8575v32h-35.8575z"/></clipPath><g fill="#000" fill-opacity=".95"><g clip-path="url(#a)"><path d="m6.70505 31.3539h-6.70255801v-21.1759c-.02093169-2.01322.56838501-3.98554 1.69033801-5.65723 1.12361-1.67473 2.72645-2.97143 4.5989-3.72051 1.85868-.7905283 3.91227-1.003384 5.89357-.610874 1.98.391929 3.7959 1.371514 5.2109 2.810964l6.786 6.75429-4.7488 4.73176-6.7901-6.75135c-.4801-.49395-1.0985-.83093-1.7738-.96657-.6759-.13527-1.37686-.06292-2.01082.20754-.63974.25348-1.1875.69506-1.57097 1.26643-.38274.57026-.5829 1.24349-.57385 1.93025z"/><path d="m25.6029 31.9999c-1.3298-.0041-2.6457-.2715-3.8716-.7867-1.2247-.5143-2.3352-1.2665-3.2672-2.213l-6.7849-6.7578 4.7465-4.7294 6.7872 6.7555c.4803.4933 1.0987.8296 1.7738.9648.6757.136 1.3768.064 2.0108-.2064.6396-.2541 1.1871-.696 1.5704-1.2676.3826-.5707.5826-1.2443.5732-1.9314v-21.170673h6.7161v21.170673c.0209 2.0136-.5684 3.9862-1.6903 5.6584-1.124 1.6751-2.7269 2.9723-4.5995 3.7222-1.2569.521-2.604.7898-3.9645.7914z"/></g><path clip-rule="evenodd" d="m137.044 0v30.67l.021.0127h5.106v-13.1817c-.009-.6291.127-1.2519.395-1.8213.264-.5544.63-1.0541 1.08-1.4729.47-.4352 1.022-.7733 1.624-.9946.659-.2402 1.356-.3592 2.057-.351.806-.0518 1.611.1125 2.331.4757.647.3567 1.147.9284 1.414 1.6153.33.881.486 1.8174.457 2.7574v12.9731h5.106v-13.3471c-.002-1.9892-.286-3.6469-.853-4.973-.498-1.2427-1.389-2.2901-2.537-2.98382-1.123-.66307-2.516-.99458-4.179-.99458-1.177.00284-2.34.25696-3.411.7453-1.072.47222-2.046 1.14-2.872 1.9689-.242.2377-.464.494-.664.766v-11.8644zm-79.1512 1.6712v28.9988l5.361-.0026v-11.2332c0-.3866-.0051-.7911-.0204-1.221s-.0434-.9055-.0842-1.4321c-.0409-.524-.0894-1.1794-.1455-1.9663-.0562-.7869-.1328-1.7264-.2298-2.8185l-.1794-2.01571 15.7161 20.68681h4.9501v-28.99875h-5.3611v8.70225c0 1.1888.0136 2.3148.0409 3.3781.0272 1.065.0621 2.0825.1046 3.0525.0426.97.0979 1.8959.166 2.7778.0715.8801.148 1.728.2297 2.5437.0236.2353.0484.4689.0745.7006l-15.7567-21.1524zm35.6458 27.9202c1.4431.9874 3.156 1.5087 4.9065 1.4933 1.0132.0044 2.0189-.166 2.9739-.5037.902-.3168 1.756-.756 2.538-1.305.67-.4668 1.267-1.0307 1.769-1.6728v3.0618h5.198v-21.84328h-5.157v3.05068c-.429-.6361-.948-1.2086-1.54-1.6999-.714-.59307-1.532-1.05008-2.412-1.34823-.978-.32642-2.0041-.48723-3.0354-.47571-1.8245-.0252-3.617.47859-5.1594 1.44999-1.5468.99195-2.7965 2.38125-3.6174 4.02165-.9119 1.8142-1.3683 3.8219-1.33 5.8506-.0383 2.0287.4181 4.0364 1.33 5.8506.8126 1.6339 2.0295 3.0345 3.5358 4.07zm9.4834-3.8969c-.946.5907-2.046.8939-3.1626.8724-1.11.0236-2.2023-.2799-3.14-.8724-.9149-.5948-1.6423-1.4352-2.0984-2.4242-.5191-1.1228-.7758-2.3483-.7506-3.5842-.0238-1.2162.233-2.4215.7506-3.5231.4609-.9805 1.1877-1.8132 2.0984-2.4039.9384-.5905 2.0304-.893 3.14-.8699 1.1166-.021 2.2156.2811 3.1626.8699.923.5892 1.664 1.4212 2.142 2.4039.529 1.0984.791 2.3052.766 3.5231.027 1.2377-.236 2.4646-.766 3.5842-.473.9913-1.215 1.831-2.142 2.4242zm21.171 5.3901c-1.788.029-3.564-.3024-5.22-.9743-1.473-.5999-2.769-1.5627-3.766-2.7981l3.319-2.8592c.757.8863 1.711 1.5833 2.788 2.035 1.03.4153 2.131.6261 3.242.6207.431.0075.861-.0482 1.276-.1653.356-.0997.688-.2683.978-.4961.266-.2069.486-.4668.646-.7631.154-.3015.232-.6359.227-.9743.012-.303-.05-.6043-.181-.8784-.13-.274-.324-.5128-.567-.6961-.411-.2572-.85-.4655-1.309-.6207-.752-.267-1.52-.4887-2.298-.6639-1.294-.3117-2.55-.7629-3.745-1.3457-.879-.422-1.669-1.0064-2.328-1.7221-.468-.5181-.829-1.1232-1.062-1.7806-.24-.693-.359-1.4217-.353-2.1546-.012-.9176.21-1.8233.644-2.6327.44-.7984 1.043-1.4966 1.769-2.0503.783-.59949 1.671-1.04964 2.619-1.32786 1.012-.30497 2.063-.45843 3.12-.45534 1.088-.00327 2.172.1361 3.224.4146 1.017.26736 1.995.66409 2.91 1.18034.862.48496 1.639 1.10806 2.298 1.84426l-2.824 3.1059c-.529-.4977-1.107-.9417-1.725-1.3253-.599-.3733-1.234-.686-1.895-.9336-.57-.221-1.175-.3399-1.787-.351-.475-.0055-.95.0431-1.414.145-.372.0778-.725.2255-1.041.435-.271.1859-.492.4347-.644.725-.159.3152-.238.6646-.23 1.0175.026.3262.118.6438.271.9335.153.2903.375.5391.646.7249.437.2592.896.4813 1.371.664.771.2959 1.564.5315 2.371.7046 1.173.2918 2.315.6938 3.411 1.2006.812.3662 1.546.8843 2.162 1.5263.515.4772.901 1.0755 1.124 1.7399.229.7099.342 1.452.334 2.1978.016 1.2478-.371 2.4676-1.103 3.4799-.768 1.0501-1.801 1.8794-2.994 2.4039-1.341.5961-2.796.893-4.264.8699z" fill-rule="evenodd"/></g></svg>