<svg fill="none" height="32" viewBox="0 0 32 32" width="32" xmlns="http://www.w3.org/2000/svg"><g fill="#fff"><path d="m17.9922 18.3225h-3.9872l-.3304-.3304v-3.9871l.3304-.3304h3.9872l.3304.3304v3.9871z"/><g><path d="m9.6958 24.3311h-.33875l-1.69095-1.691v-.336l2.585-2.5877 1.7909.0027.2388.2361v1.7909z"/><path d="m7.6661 9.69576v-.33875l1.69095-1.69095h.33875l2.585 2.58504v1.7881l-.2388.2416h-1.7909z"/><path d="m10.0457 17.4369h-9.840234l-.205466-.2055v-2.4656l.205466-.2055h9.840234l.2054.2055v2.4656z"/><path d="m31.7945 17.4369h-9.8401l-.2055-.2055v-2.4656l.2055-.2055h9.8401l.2055.2055v2.4656z"/><path d="m14.5631 10.0456v-7.38013l.2055-.20546h2.4657l.2053.20546v7.38013l-.2053.2055h-2.4657z"/><path d="m14.5631 29.3316v-7.3801l.2055-.2055h2.4657l.2053.2055v7.3801l-.2053.2055h-2.4657z"/></g></g></svg>