<svg fill="none" height="28" viewBox="0 0 95 28" width="95" xmlns="http://www.w3.org/2000/svg"><g fill="#000"><path d="m39.2099 7.40173h-5.2597v13.35027h2.1915v-4.8447h3.0682c2.7832 0 4.6131-1.677 4.6131-4.2528 0-2.57577-1.8299-4.25277-4.6131-4.25277zm-.1863 6.59837h-2.8819v-4.69119h2.8928c1.567 0 2.5532.89879 2.5532 2.34559s-1.0081 2.3456-2.5751 2.3456zm13.2368-1.5783c-.6246-.8988-1.6546-1.5455-3.1887-1.5455-2.6517 0-4.6131 1.9839-4.6131 4.9981 0 3.0143 1.9614 4.9982 4.6131 4.9982 1.5232 0 2.5532-.7235 3.1887-1.6003l.2301 1.4906h1.808v-9.777h-1.7861l-.252 1.4249zm-2.838 6.708c-1.7204 0-2.838-1.3372-2.838-3.2663s1.1286-3.2444 2.838-3.2444 2.838 1.3482 2.838 3.2773-1.1286 3.2224-2.838 3.2224zm20.5346-6.708c-.6246-.8988-1.6546-1.5455-3.1887-1.5455-2.6517 0-4.6131 1.9839-4.6131 4.9981 0 3.0143 1.9614 4.9982 4.6131 4.9982 1.5232 0 2.5532-.7235 3.1887-1.6003l.2301 1.4906h1.808v-9.777h-1.7861l-.252 1.4249zm-2.838 6.708c-1.7204 0-2.838-1.3372-2.838-3.2663s1.1286-3.2444 2.838-3.2444 2.838 1.3482 2.838 3.2773-1.1286 3.2224-2.838 3.2224zm-5.8624-8.1439h.4603v1.9291h-.9095c-1.8299 0-2.4217 1.4249-2.4217 2.9375v4.8995h-2.06v-9.7661h1.8299l.2301 1.4688c.4931-.8221 1.2821-1.4688 2.8819-1.4688zm21.488-2.60866c0 .72342-.5479 1.23857-1.2601 1.23857-.7123 0-1.2602-.51515-1.2602-1.23857 0-.72341.5479-1.23857 1.2602-1.23857.7122 0 1.2601.51516 1.2601 1.23857zm10.8371 6.93816v5.4366h-2.082v-5.2612c0-1.8524-.7779-2.8388-2.323-2.8388-1.6436 0-2.6079 1.2056-2.6079 3.1786v4.9214h-2.06v-9.7661h1.797l.2301 1.2824c.6137-.7672 1.5451-1.392 3.123-1.392 2.1586 0 3.9228 1.1838 3.9228 4.4391zm-16.7323-4.3295h5.6651v9.7661h-2.082v-7.9466h-3.5831v7.9466h-2.082v-7.9466h-1.6984v-1.8085h1.6984v-.9755c0-1.72088.8438-2.60871 2.7285-2.60871h1.7313v1.80853h-1.4464c-.6684 0-.9314.28499-.9314.95358v.8221z"/><path d="m12.7018 9.68268.7708-7.67903c-.4048-.04048-.8113-.0606-1.218-.06029-.3918 0-.7791.01869-1.162.05607l.3701 3.77501c.2657-.09586.5382-.18086.8154-.24958l-.0048 4.13551c.1446-.0006.288.00784.4285.02231z"/><path d="m8.72956 7.36895c.19486-.16759.39676-.32634.60568-.47625l1.27526 3.08898c.1318-.05386.2668-.10088.405-.14107l-2.22567-7.39087c-.76164.22891-1.4987.53282-2.20035.90728z"/><path d="m14.9196 5.27348c.3122.01723.6232.05144.9317.10248l-1.9195 4.6202c.1326.05544.2616.11754.3869.18504l3.6498-6.79945c-.6999-.37746-1.4355-.68441-2.1961-.91632z"/><path d="m7.26628 8.98517c-.13299.19371-.25975.39104-.38029.59199l-3.94086-3.23727c.50594-.61432 1.07117-1.17728 1.68748-1.68073l4.88163 5.97414c-.11126.0904-.21787.1864-.31942.2876z"/><path d="m15.333 10.9414 4.1072-4.09933c-.2752-.19365-.5616-.37099-.8576-.5311l1.3313-1.62226c.6135.50606 1.1755 1.07145 1.6779 1.68797l-5.9725 4.88302c-.0904-.1109-.1858-.217-.2863-.3183z"/><path d="m16.413 12.7518 7.3881-2.2263c-.2287-.76116-.5325-1.49764-.907-2.19862l-1.2891.68845c.2014.29009.3852.59206.5502.90427l-5.8874 2.4289c.0552.1318.1037.2664.1452.4033z"/><path d="m19.4215 21.1741c.2799-.1966.5481-.4091.8034-.6366l1.3452 1.1122c-.5044.614-1.0678 1.1769-1.6821 1.6808l-4.8816-5.9736c.1103-.0911.2163-.1869.317-.2882z"/><path d="m23.1629 14.0123v-.0121c-.0002-.3538-.0218-.7073-.0645-1.0585l1.1523-.1134c.0374.3864.0573.7783.0573 1.175 0 .4063-.0201.8072-.0603 1.2026l-7.6756-.7734c.0139-.1405.0217-.2834.0217-.4274z"/><path d="m7.25724 19.0038 1.93276-1.9291c-.10125-.1012-.19767-.2073-.28928-.3183l-5.97186 4.8831c.50444.6164 1.06823 1.1818 1.68326 1.6879l3.07964-3.7503c-.15227-.1868-.29711-.3779-.43452-.5733z"/><path d="m5.68547 13.993v.0072c0 .2165.00844.4311.02652.6433l-5.450551.5341c-.040379-.387-.060267-.7801-.060267-1.1774 0-.4071.020089-.809.060267-1.2056l7.675611.768c-.01386.1416-.0217.2851-.0217.4304z"/><path d="m6.28814 17.1953c-.08035-.2074-.15388-.4184-.22057-.633l2.17865-.8994c-.05484-.132-.10306-.2677-.14524-.4057l-7.388141 2.2257c.229329.7628.534391 1.5007.910631 2.2028z"/><path d="m15.8302 22.6281c.3152-.0506.6272-.1188.9348-.2043l1.1782 2.2082c-.7005.3757-1.4365.6808-2.1974.9109l-2.2262-7.3903c.1374-.0416.2724-.0904.4038-.1447z"/><path d="m22.5831 17.135c-.1271.3317-.2747.6553-.4417.9688l-5.8773-2.4427c-.0537.1317-.1141.2607-.1808.3864l6.7982 3.6514c.3757-.7003.6811-1.4362.9118-2.1968z"/><path d="m13.1158 22.642.3285 3.3548c-.3914.0402-.7879.0603-1.1897.0603s-.7984-.0201-1.1897-.0603l.7678-7.6784c.1404.0133.2803.0205.4219.0205h.0096l-.0048 4.1301c.2823.0722.5682.13.8564.173z"/><path d="m9.31897 21.0963c.21495.1535.43593.2976.66294.4323l-1.2192 4.0137c-.76176-.2301-1.49866-.5356-2.19975-.9121l3.64734-6.7971c.126.0645.2556.126.3887.1809z"/><path d="m6.07118 11.4243c-.06428.2106-.12114.424-.17055.6402l-5.179956-1.574c.231083-.76224.537966-1.49938.916056-2.20038l6.79752 3.64958c-.06819.1264-.12995.2562-.18502.3889z"/></g></svg>