<svg fill="none" viewBox="0 0 117 36" xmlns="http://www.w3.org/2000/svg"><g fill="#0f6fde"><path d="m86.4907 13.4892h-1.6652c-.1808-.0047-.3417.1138-.3906.2876-.0823.2464-.144.4107-.1645.5133-.6579 2.0122-1.6653 5.0509-2.981 9.0957-.0206.0616-.1028.2875-.2673.657-.0467.1008-.165.1463-.2673.1027-.0437-.0232-.0795-.059-.1028-.1027-.1439-.3285-.2261-.5338-.2672-.657-1.3569-4.168-2.3643-7.2957-3.0222-9.3831-.0293-.0655-.05-.1345-.0616-.2053-.0537-.1705-.2117-.2868-.3907-.2875h-1.6447c-.227 0-.4111.1839-.4111.4107-.0033.0421.0038.0844.0205.1231.0136.0572.0343.1124.0617.1643 1.0279 2.9155 2.5699 7.2752 4.6257 13.0789.0015.0158.0089.0304.0206.0411.0308.0792.0308.1671 0 .2463 0 .0206 0 .0206-.0206.0411-.0205.0821-.0617.1848-.0822.2669-.2917.806-1.0539 1.3462-1.912 1.3551h-1.7269c-.2271 0-.4112.1839-.4112.4107v1.3756c0 .2268.1841.4107.4112.4107h1.7269c1.6757-.0023 3.1919-.993 3.8651-2.5255.019-.065.0467-.1271.0822-.1848.0206-.0616 1.2335-3.4904 5.2836-14.8035.0295-.0762.0263-.161-.0087-.2348-.0349-.0737-.0987-.1299-.1763-.1554-.0617-.0205-.0822-.0412-.1234-.0412zm-21.9156 11.6829c.391.1292.8011.1916 1.2129.1848 1.2232-.0169 2.3933-.502 3.2689-1.3551.6403-.6417.9895-1.5172.9663-2.4228v-1.0677c.0014-.057-.0236-.1115-.0678-.1476-.0443-.0361-.1027-.0499-.1584-.0372-.2056.0206-.3084.0206-.3084.0206l-1.2952.1642-2.5698.3901c-1.3775.2259-2.2204.7803-2.4876 1.6426-.0658.2059-.1004.4204-.1028.6365.0245.9285.6483 1.7342 1.5419 1.9916zm7.7506.9034v.8213c0 .2268-.184.4106-.4111.4106h-1.3364c-.227 0-.4111-.1838-.4111-.4106l-.0206-1.3551c-.0035-.0215-.0105-.0423-.0205-.0616-.0187-.0199-.0447-.0311-.072-.0311s-.0533.0112-.072.0311c-.0805.07-.156.1454-.2261.2258-1.0691 1.0677-2.5287 1.6015-4.4201 1.6015-1.3569 0-2.4671-.3695-3.3306-1.0882-.8634-.7186-1.2746-1.7247-1.2746-2.9976-.0154-.6093.1113-1.2138.37-1.7658.2197-.4648.5605-.862.9869-1.1498.3661-.2609.7676-.4683 1.1924-.6159.3809-.1364.773-.2394 1.1718-.308 1.9942-.2875 3.0633-.4312 3.2689-.4723.1644-.0205.8223-.1026 1.9531-.2669.0742-.0161.1502-.023.2261-.0205.1028-.0156.1803-.1016.185-.2053v-.5749c0-.8624-.2261-1.5399-.6784-2.0122-.4523-.4722-1.2952-.7186-2.5082-.7186-.5566-.0101-1.1114.0661-1.6447.2259-.406.1236-.7692.3583-1.0485.6775-.1875.2371-.3398.4998-.4523.7802-.0205.0616-.0411.1232-.0616.2054.0027.0225-.0049.0451-.0206.0616-.0397.1942-.2127.3325-.4112.3285h-1.5419c-.2232-.0194-.3936-.2075-.3906-.4312v-.0821c.0205-.1643.0411-.2875.0617-.3901.1027-.3971.2619-.7774.4728-1.1293.2464-.3932.5595-.7406.9252-1.0266.4895-.334 1.0315-.5839 1.6035-.7392.7861-.1989 1.5946-.2955 2.4054-.2874 3.7212 0 5.5303 1.4783 5.5303 4.476zm30.4883-12.2781v13.0583c0 .2268.184.4107.412.4107h1.665c.227 0 .411-.1839.411-.4107v-13.0583c0-.2268-.184-.4107-.411-.4107h-1.665c-.228 0-.412.1839-.412.4107zm0-4.1475v1.6631c0 .2268.184.4106.412.4106h1.665c.227 0 .411-.1838.411-.4106v-1.6631c0-.22679-.184-.41064-.411-.41064h-1.665c-.228 0-.412.18385-.412.41064zm10.259 5.9132h3.516c.227 0 .411-.1838.411-.4106v-1.3757c0-.2268-.184-.4106-.411-.4106h-3.516c-.055.0037-.11-.0168-.149-.0561-.04-.0393-.06-.0937-.056-.1492v-3.511c0-.22679-.184-.41064-.412-.41064h-1.665c-.227 0-.411.18385-.411.41064v3.5315c.004.0555-.017.1099-.056.1492-.04.0393-.094.0598-.15.0561h-1.521c-.227 0-.411.1839-.411.4107v1.3756c0 .2268.184.4106.411.4106h1.521c.056-.0036.11.0168.15.0562.039.0393.06.0937.056.1492v7.412c.077 2.2604 1.929 4.0556 4.194 4.0654h1.871c.227 0 .411-.1839.411-.4107v-1.3756c0-.2268-.184-.4107-.411-.4107h-1.871c-.458.0006-.898-.1809-1.222-.5045s-.505-.7626-.505-1.2202v-7.5763c.017-.1132.112-.1988.226-.2053zm-54.2338-.7186c.0029-3.0491-2.4368-5.54042-5.4892-5.60524h-7.9151c-.2271 0-.4112.18385-.4112.41064v17.2058c0 .2268.1841.4107.4112.4107h1.6652c.2271 0 .4112-.1839.4112-.4107v-6.1801c-.0037-.0555.0168-.1099.0562-.1492.0394-.0394.0938-.0598.1494-.0561h5.6331c3.0533-.0812 5.4869-2.5754 5.4892-5.6258zm-2.1792 0c-.0023 1.8814-1.5289 3.406-3.4128 3.4083h-5.5098c-.0555.0037-.11-.0168-.1494-.0561-.0393-.0393-.0598-.0937-.0561-.1492v-6.406c-.0037-.0555.0168-.1099.0561-.1492.0394-.0393.0939-.0598.1494-.0561h5.5098c1.8839.0022 3.4105 1.5269 3.4128 3.4083zm35.2788 5.5642h6.2499c.2271 0 .4112-.1839.4112-.4107v-1.3756c0-.2268-.1841-.4107-.4112-.4107h-6.2499c-.0556.0037-.11-.0167-.1494-.0561-.0394-.0393-.0598-.0937-.0562-.1492v-6.3649c-.0036-.0555.0168-.1099.0562-.1492s.0938-.0598.1494-.0561h7.6684c.2271 0 .4108-.1839.4108-.4107v-1.3756c0-.22679-.1837-.41064-.4108-.41064h-9.9504c-.2271 0-.4112.18385-.4112.41064v17.2058c0 .2268.1841.4107.4112.4107h1.6653c.227 0 .4111-.1839.4111-.4107v-6.2417c0-.1134.0921-.2053.2056-.2053z"/><path clip-rule="evenodd" d="m18.0235 36c-9.95412 0-18.0235-8.0589-18.0235-18 0-9.94113 8.06938-18 18.0235-18 9.954 0 18.0234 8.05887 18.0234 18 0 9.9411-8.0694 18-18.0234 18zm-.2458-11.5977v-3.5796c-.0037-.0553.0167-.1094.056-.1486.0392-.0392.0934-.0596.1488-.0559h4.1986c2.9601-.1194 5.2966-2.5535 5.2911-5.5121s-2.3511-5.38407-5.3115-5.49246h-10.2816c-.2262 0-.4096.18315-.4096.40906v14.4409c0 1.7397 1.4121 3.15 3.1541 3.15 1.7419 0 3.1541-1.4103 3.1541-3.15.0273-.0409.0273-.0613 0-.0613zm.2048-8.4887h3.9734c.4524 0 .8192-.3663.8192-.8181 0-.4519-.3668-.8182-.8192-.8182h-5.3866c-.2262 0-.4096.1831-.4096.4091v9.7568c0 .8472-.6878 1.5341-1.5361 1.5341-.8484 0-1.5361-.6869-1.5361-1.5341v-13.0091c-.0037-.0553.0167-.1095.056-.1487.0392-.0391.0934-.0595.1488-.0559h8.6636c1.3902-.0255 2.6886.6916 3.4059 1.8812.7173 1.1897.7446 2.6712.0717 3.8864-.673 1.2152-1.944 1.9796-3.3343 2.0052h-4.1167c-.0554.0036-.1096-.0167-.1488-.0559-.0393-.0392-.0597-.0934-.056-.1487v-2.6591c-.0005-.1167.0884-.2144.2048-.225z" fill-rule="evenodd"/></g></svg>