<svg enable-background="new 0 0 173 19" viewBox="0 0 173 19" xmlns="http://www.w3.org/2000/svg"><path d="m4.9 13.1h2.9c1.4 0 2.6-.3 3.7-.8s1.9-1.3 2.5-2.3.9-2.1.9-3.4-.3-2.4-.9-3.4-1.4-1.7-2.5-2.3c-1.1-.5-2.3-.8-3.7-.8h-7.8v18.7h4.9zm0-8.9h2.5c.8 0 1.4.2 1.9.7.5.4.7 1 .7 1.8s-.3 1.3-.7 1.7-1.1.7-1.9.7h-2.5z"/><path d="m31.4 9.7c.5-.9.8-1.9.8-3 0-1.3-.3-2.4-.9-3.4s-1.5-1.7-2.5-2.3c-1.1-.5-2.3-.8-3.8-.8h-8v18.7h5v-5.8h2.6l2.8 5.8h5.4l-3.4-7c.8-.6 1.5-1.3 2-2.2zm-5-1.3c-.5.4-1.1.7-1.9.7h-2.5v-4.9h2.6c.8 0 1.4.2 1.9.7.5.4.7 1 .7 1.8s-.3 1.3-.8 1.7z"/><path d="m40 11.4h6.4v-3.9h-6.4v-3.2h8v-4.1h-12.9v18.6h13.2v-4.1h-8.3z"/><path d="m64.6 16c.7-.9 1-2 1-3.1 0-1.2-.3-2.1-.8-2.9-.5-.7-1.2-1.3-2-1.6-.8-.4-1.8-.7-3.1-.9-1.3-.3-2.2-.5-2.7-.6-.6-.2-1-.3-1.2-.5-.3-.2-.4-.5-.4-.9 0-.6.2-1 .7-1.3.4-.3 1-.4 1.7-.4.8 0 1.4.2 1.9.6s.7.9.8 1.6h4.8c0-1.1-.3-2.1-1-3.1-.6-.9-1.5-1.6-2.7-2.1s-2.5-.8-3.9-.8-2.6.3-3.7.8-2 1.2-2.6 2.1-.9 1.9-.9 3c0 1.2.3 2.2.8 3 .5.7 1.2 1.3 2 1.7s1.9.7 3.1.9c1.3.3 2.2.5 2.8.6.6.2 1 .3 1.2.5.3.2.4.5.4.9 0 .6-.2 1-.7 1.3s-1.1.5-1.9.5c-1 0-1.8-.2-2.3-.7-.6-.5-.9-1-.9-1.8l-5-.1c0 1.2.3 2.3 1 3.2.7 1 1.6 1.7 2.9 2.3 1.2.6 2.6.8 4.1.8 1.4 0 2.7-.3 3.9-.8s2.1-1.3 2.7-2.2z"/><path d="m81.7.2h-15.1v4.1h5.1v14.5h4.9v-14.5h5.1z"/><path d="m86.7.2-6.7 18.7h5.1l1.1-3.5h6.5l1.2 3.5h5.3l-6.5-18.7zm.9 11.2 2-6.1 2 6.1z"/><path d="m114.4 16c.7-.9 1-2 1-3.1 0-1.2-.3-2.1-.8-2.9-.5-.7-1.2-1.3-2-1.6s-1.9-.7-3.2-.9c-1.2-.2-2.1-.4-2.7-.6s-1-.3-1.2-.5c-.3-.2-.4-.5-.4-.9 0-.6.2-1 .7-1.3.4-.3 1-.4 1.7-.4.8 0 1.4.2 1.9.6s.7.9.8 1.6h4.8c0-1.1-.3-2.1-1-3.1-.6-.9-1.5-1.6-2.7-2.1-1.1-.5-2.4-.8-3.8-.8s-2.6.3-3.7.8-2 1.2-2.6 2.1-.9 1.9-.9 3c0 1.2.3 2.2.8 3 .5.7 1.2 1.3 2 1.7s1.9.7 3.1.9c1.3.3 2.2.5 2.8.6.6.2 1 .3 1.2.5.3.2.4.5.4.9 0 .6-.2 1-.7 1.3s-1.1.5-1.9.5c-1 0-1.8-.2-2.3-.7-.6-.5-.9-1-.9-1.8l-4.8-.1c0 1.2.3 2.3 1 3.2.7 1 1.6 1.7 2.9 2.3s2.6.8 4.1.8 2.7-.3 3.9-.8c.9-.5 1.8-1.3 2.5-2.2z"/><path d="m129.1 7.3h-6.2v-7.1h-4.9v18.6h4.9v-7.3h6.2v7.3h4.9v-18.6h-4.9z"/><path d="m154.3 14.4c.8-1.4 1.2-3.1 1.2-4.9s-.4-3.4-1.2-4.9c-.8-1.4-1.9-2.6-3.3-3.4-1.5-.8-3.1-1.2-5-1.2s-3.5.4-4.9 1.2-2.5 2-3.3 3.4-1.2 3.1-1.2 4.9.4 3.4 1.2 4.9c.8 1.4 1.9 2.6 3.3 3.4s3.1 1.2 4.9 1.2c1.9 0 3.5-.4 4.9-1.2 1.5-.9 2.6-2 3.4-3.4zm-5-1c-.8 1-1.9 1.5-3.2 1.5s-2.4-.5-3.2-1.5-1.2-2.3-1.2-3.9.4-2.9 1.2-3.9 1.9-1.5 3.2-1.5 2.4.5 3.2 1.5 1.2 2.3 1.2 3.9-.4 2.9-1.2 3.9z"/><path d="m169.6 1c-1.1-.5-2.3-.8-3.7-.8h-7.9v18.7h4.9v-5.8h2.9c1.4 0 2.6-.3 3.7-.8s1.9-1.3 2.5-2.3.9-2.1.9-3.4-.3-2.4-.9-3.4-1.3-1.7-2.4-2.2zm-2.3 7.4c-.5.4-1.1.7-1.9.7h-2.4v-4.9h2.5c.8 0 1.4.2 1.9.7.5.4.7 1 .7 1.8s-.3 1.3-.8 1.7z"/></svg>