<svg fill="none" viewBox="0 0 65 16" width="60" xmlns="http://www.w3.org/2000/svg"><g fill="#000"><path d="m.820068 15v-13.99999h6.200002c.86667 0 1.65333.2 2.36.6.70663.38667 1.26003.91333 1.66003 1.58.4133.66667.62 1.42667.62 2.28 0 .84-.2067 1.60667-.62 2.3-.4.68-.9534 1.22-1.66003 1.62-.70667.4-1.49333.6-2.36.6h-3.3v5.01999zm7.940002 0-3.56-6.31999 3.08-.5 3.96003 6.83999zm-5.04-7.45999h3.16c.36 0 .67333-.08.94-.24.28-.17333.49333-.40667.64-.7.14666-.30666.22-.64666.22-1.02 0-.4-.08667-.74666-.26-1.04-.17333-.29333-.42667-.52-.76-.68-.33333-.17333-.72-.26-1.16-.26h-2.78z"/><path d="m18.0534 15.2c-1.1467 0-2.1534-.2333-3.0201-.7-.8533-.4667-1.5199-1.1067-2-1.92-.4666-.8133-.7-1.7467-.7-2.79999 0-.82666.1334-1.58.4-2.26.2667-.68.64-1.26666 1.12-1.76.48-.50666 1.0467-.89333 1.7001-1.16.6666-.28 1.3866-.42 2.16-.42.72 0 1.3866.13334 2 .4.6133.26667 1.14.64 1.58 1.12.4533.46667.8 1.02667 1.04 1.68.24.64.3466 1.33334.32 2.08l-.02.87999h-8.5l-.4601-1.73999h6.6201l-.32.36v-.44c-.0267-.36-.1467-.68-.3601-.96-.1999-.29333-.4599-.52-.7799-.68-.32-.17333-.6801-.26-1.0801-.26-.5866 0-1.0866.11334-1.5.34-.4.22667-.7066.56-.92 1-.2133.44-.32.97334-.32 1.6 0 .63999.1334 1.19329.4001 1.65999.28.4667.6666.8333 1.16 1.1.5066.2533 1.0999.38 1.7799.38.4667 0 .8934-.0733 1.2801-.22.3866-.1467.7999-.4 1.24-.76l1.36 1.9c-.3867.3467-.8134.64-1.28.88-.4667.2267-.9467.4-1.4401.52-.4933.12-.9799.18-1.4599.18z"/><path d="m27.3121 15.2c-.9867 0-1.8667-.16-2.64-.48-.76-.3333-1.3733-.7867-1.84-1.36l1.78-1.52c.4.44.8533.76 1.36.96.5067.1867 1.0133.28 1.52.28.2 0 .38-.02.54-.06.1733-.0533.32-.12.44-.2.12-.0933.2067-.2.26-.32.0667-.1333.1-.2733.1-.42 0-.2933-.12-.52-.36-.68-.1333-.08-.34-.1667-.62-.26-.28-.1067-.64-.22-1.08-.34-.68-.1733-1.26-.3733-1.74-.6-.4667-.23999-.84-.50665-1.12-.79999-.24-.28-.4267-.58-.56-.9-.12-.33333-.18-.7-.18-1.1 0-.48.1067-.91333.32-1.3.2133-.4.5067-.74.88-1.02.3867-.28.8267-.49333 1.32-.64.4933-.16 1.0133-.24 1.56-.24s1.08.06667 1.6.2c.52.13334 1 .32667 1.44.58.4533.24.8467.52667 1.18.86l-1.52 1.68c-.24-.22667-.5133-.43333-.82-.62-.2933-.18666-.6-.33333-.92-.44-.32-.10666-.6067-.16-.86-.16-.2267 0-.4333.02-.62.06-.1733.04-.32.10667-.44.2-.12.08-.2133.18-.28.3-.0533.12-.08.25333-.08.4s.0333.28667.1.42c.08.13334.1867.24667.32.34.1467.08.36.17334.64.28.2933.10667.6867.22667 1.18.36.64.17334 1.18.36667 1.62.58.4533.21334.8133.46 1.08.74.2267.23999.3933.51329.5.81999s.16.6467.16 1.02c0 .6533-.1867 1.2333-.56 1.74-.36.5067-.86.9067-1.5 1.2s-1.36.44-2.16.44z"/><path d="m37.5768 15.2c-1.1467 0-2.1533-.2333-3.02-.7-.8533-.4667-1.52-1.1067-2-1.92-.4667-.8133-.7-1.7467-.7-2.79999 0-.82666.1333-1.58.4-2.26s.64-1.26666 1.12-1.76c.48-.50666 1.0467-.89333 1.7-1.16.6667-.28 1.3867-.42 2.16-.42.72 0 1.3867.13334 2 .4.6133.26667 1.14.64 1.58 1.12.4533.46667.8 1.02667 1.04 1.68.24.64.3467 1.33334.32 2.08l-.02.87999h-8.5l-.46-1.73999h6.62l-.32.36v-.44c-.0267-.36-.1467-.68-.36-.96-.2-.29333-.46-.52-.78-.68-.32-.17333-.68-.26-1.08-.26-.5867 0-1.0867.11334-1.5.34-.4.22667-.7067.56-.92 1s-.32.97334-.32 1.6c0 .63999.1333 1.19329.4 1.65999.28.4667.6667.8333 1.16 1.1.5067.2533 1.1.38 1.78.38.4667 0 .8933-.0733 1.28-.22s.8-.4 1.24-.76l1.36 1.9c-.3867.3467-.8133.64-1.28.88-.4667.2267-.9467.4-1.44.52s-.98.18-1.46.18z"/><path d="m43.2755 15v-10.57999h2.72l.08 2.16-.56.24c.1467-.48.4067-.91333.78-1.3.3867-.4.8467-.72 1.38-.96.5334-.24 1.0934-.36 1.68-.36.8 0 1.4667.16 2 .48.5467.32.9534.80667 1.22 1.46.28.64.42 1.43334.42 2.38v6.47999h-2.84v-6.25999c0-.48-.0666-.88-.2-1.2-.1333-.32-.34-.55333-.62-.7-.2666-.14667-.6-.21333-1-.2-.32 0-.62.05334-.9.16-.2666.09333-.5.23334-.7.42-.1866.18667-.34.4-.46.64-.1066.24-.16.5-.16.78v6.35999h-1.4c-.3066 0-.58 0-.82 0s-.4466 0-.62 0z"/><path d="m58.8569 15.2c-.9333 0-1.7666-.2333-2.5-.7-.72-.48-1.2933-1.1267-1.72-1.94-.4133-.8267-.62-1.78-.62-2.85999 0-1.05333.2067-1.99333.62-2.82.4267-.84 1-1.49333 1.72-1.96.7334-.48 1.5667-.72 2.5-.72.4934 0 .9667.08 1.42.24.4667.14667.88.35334 1.24.62.3734.26667.6734.56667.9.9.2267.32.3534.65334.38 1l-.72.14v-6.899998h2.86v14.799988h-2.7l-.12-2.44.56.06c-.0266.3333-.1466.6533-.36.96-.2133.3067-.5.5867-.86.84-.3466.24-.7466.4333-1.2.58-.44.1333-.9066.2-1.4.2zm.64-2.36c.5334 0 1-.1333 1.4-.4s.7134-.6333.94-1.1c.2267-.4667.34-1.0133.34-1.63999 0-.61333-.1133-1.15333-.34-1.62-.2266-.46666-.54-.83333-.94-1.1-.4-.26666-.8666-.4-1.4-.4-.5333 0-1 .13334-1.4.4-.3866.26667-.6933.63334-.92 1.1-.2133.46667-.32 1.00667-.32 1.62 0 .62669.1067 1.17329.32 1.63999.2267.4667.5334.8333.92 1.1.4.2667.8667.4 1.4.4z"/></g></svg>