<svg fill="none" height="172" viewBox="0 0 1000 172" width="1000" xmlns="http://www.w3.org/2000/svg"><path d="m0 101.489v2.142c0 36.868 32.1337 68.017 70.1371 68.017 38.0039 0 70.1799-31.17 70.1799-68.038v-2.142l-70.1478-41.7742z" fill="#357677"/><path d="m70.1371 59.6938-70.1371 41.7952 70.0728 41.849 70.2122-41.849z" fill="#4aafa8"/><path d="m0 42.1768v29.6808l70.0728 41.8484 70.2122-41.8484v-29.6808z" fill="#40dbcc"/><path d="m70.1371.382935-70.1371 41.795165 70.0728 41.8381 70.2122-41.8381z" fill="#97f7e9"/><g fill="#000"><path d="m238.302 79.0491-16.913-2.9991c-5.178-.8141-8.927-2.178-11.247-4.0917-1.153-.9605-2.067-2.1752-2.671-3.5486-.604-1.3735-.882-2.8683-.81-4.367.003-1.9096.477-3.7888 1.382-5.4706.904-1.6818 2.21-3.1141 3.802-4.1695 3.456-2.535 8.048-3.8061 13.774-3.8132 5.354.0142 10.664.9602 15.692 2.7956 5.351 1.9613 10.363 4.7439 14.857 8.2477l8.322-12.2751c-5.451-3.9984-11.503-7.1042-17.93-9.2009-6.569-2.1503-13.44-3.2352-20.351-3.2134-10.633 0-19.156 2.635-25.568 7.9049-3.108 2.4699-5.597 5.63-7.27 9.2295-1.673 3.5996-2.485 7.5396-2.37 11.5074 0 6.541 2.046 11.8573 6.137 15.949 4.092 4.0917 10.23 6.8659 18.413 8.3227l17.598 2.9991c6.27 1.1925 10.722 2.7849 13.357 4.7772 2.646 2.003 3.963 4.9489 3.963 8.8579 0 4.37-2.003 7.987-6.009 10.851-4.005 2.863-9.14 4.291-15.402 4.284-5.352.023-10.649-1.071-15.553-3.213-5.961-2.807-11.514-6.411-16.506-10.711l-8.858 11.996c5.632 4.873 12.04 8.769 18.959 11.525 6.737 2.612 13.907 3.931 21.133 3.889 5.269.053 10.515-.705 15.553-2.25 4.373-1.32 8.48-3.397 12.136-6.137 3.288-2.504 5.969-5.719 7.84-9.405 1.878-3.744 2.836-7.882 2.796-12.071 0-7.1839-2.317-12.9358-6.952-17.256-4.634-4.3202-11.736-7.3015-21.304-8.9439z"/><path d="m409.882 133.74h16.366v-40.6387h42.438v-13.6461h-42.438v-27.2708h52.239v-13.9139h-68.605z"/><path d="m526.01 92.4158h42.706v-13.6354h-42.706v-26.596h51.96v-13.9139h-68.326v95.4695h68.873v-13.914h-52.507z"/><path d="m870.669 79.0462-16.913-2.9991c-5.185-.8141-8.937-2.178-11.258-4.0917-1.153-.9605-2.067-2.1752-2.671-3.5487-.604-1.3734-.881-2.8682-.81-4.3669.005-1.9092.481-3.7878 1.385-5.4693s2.209-3.1141 3.799-4.1708c3.456-2.5636 8.041-3.8489 13.753-3.8561 5.354.0129 10.664.9589 15.692 2.7957 5.351 1.9613 10.363 4.7438 14.857 8.2476l8.322-12.2751c-5.451-3.9984-11.503-7.1041-17.93-9.2009-6.569-2.1503-13.44-3.2351-20.352-3.2134-10.632 0-19.155 2.635-25.567 7.9049-3.108 2.4699-5.597 5.63-7.27 9.2296-1.674 3.5995-2.485 7.5395-2.37 11.5074 0 6.5409 2.046 11.8573 6.137 15.949 4.092 4.0917 10.229 6.8694 18.413 8.3333l17.566 2.9992c6.27 1.1925 10.722 2.7849 13.357 4.7772 2.646 2.003 3.963 4.9489 3.963 8.8579 0 4.37-2.003 7.987-6.009 10.851-4.006 2.863-9.14 4.291-15.402 4.284-5.352.023-10.649-1.071-15.553-3.213-5.961-2.808-11.514-6.411-16.506-10.711l-8.837 12.018c5.632 4.873 12.04 8.768 18.959 11.525 6.738 2.612 13.907 3.931 21.133 3.888 5.269.054 10.515-.705 15.553-2.249 4.373-1.32 8.481-3.398 12.136-6.138 3.289-2.504 5.969-5.719 7.84-9.404 1.878-3.745 2.836-7.883 2.796-12.072 0-7.1835-2.317-12.9354-6.952-17.2556-4.634-4.3202-11.721-7.2979-21.261-8.9332z"/><path d="m947.489 119.826v-27.4102h42.705v-13.6354h-42.705v-26.596h51.96v-13.9139h-68.327v95.4695h68.873v-13.914z"/><path d="m669.039 84.5002c4.415-1.7371 8.263-4.6621 11.118-8.4512 2.743-3.655 4.204-8.1126 4.156-12.6821.103-3.461-.594-6.899-2.038-10.0462-1.444-3.1473-3.594-5.9187-6.284-8.0986-5.549-4.6344-12.822-6.9516-21.819-6.9516h-42.417v95.4695h44.323c9.362 0 16.956-2.457 22.783-7.37 2.834-2.33 5.094-5.281 6.605-8.624 1.512-3.343 2.235-6.989 2.114-10.656.082-5.138-1.712-10.1306-5.045-14.0423-3.565-4.1089-8.258-7.081-13.496-8.5475zm-40.917-32.8621h24.411c4.634 0 8.362 1.2033 11.183 3.6097 1.406 1.1959 2.522 2.6956 3.265 4.3859.742 1.6904 1.09 3.5273 1.019 5.372.071 1.8432-.277 3.6785-1.02 5.3671-.742 1.6887-1.858 3.1865-3.264 4.3802-2.821 2.4135-6.549 3.6168-11.183 3.6096h-24.411zm38.325 64.7169c-3.099 2.664-7.191 3.996-12.275 3.996h-26.05v-29.2956h26.05c5.091 0 9.183 1.3175 12.275 3.9525 1.527 1.3064 2.738 2.9424 3.542 4.7848.803 1.8423 1.178 3.8433 1.096 5.8513.077 2.019-.3 4.029-1.102 5.883-.803 1.853-2.011 3.503-3.536 4.828z"/><path d="m324.904 38.2705-37.489 95.4695h17.052l8.644-23.565h41.613l8.569 23.565h17.588l-37.04-95.4695zm-7.048 59.126 1.178-3.2134 14.996-40.6384 15.96 43.8518z"/><path d="m745.863 38.2705-37.489 95.4695h17.052l8.644-23.565h41.613l8.569 23.565h17.599l-37.029-95.4695zm-7.048 59.126 1.189-3.2134 14.996-40.6384 15.96 43.8518z"/></g></svg>