<svg fill="none" height="41" viewBox="0 0 162 41" width="162" xmlns="http://www.w3.org/2000/svg" xmlns:xlink="http://www.w3.org/1999/xlink"><clipPath id="a"><path d="m.004883.625977h161.99v40h-161.99z"/></clipPath><g clip-path="url(#a)" fill="#0e0c63"><path d="m65.8013 29.7888c-2.0133 0-3.6826-.4494-5.008-1.3483s-2.1417-2.2564-2.4398-4.0771l3.0819-.7383c.1697.8759.4586 1.573.8667 2.0867.4082.5136.9173.8759 1.5272 1.0915.61.2155 1.2658.321 1.972.321 1.0503 0 1.8574-.2018 2.4215-.61.5687-.4081.8484-.9309.8484-1.573s-.266-1.1144-.8025-1.4125c-.5366-.2981-1.3254-.5458-2.3756-.7384l-1.0915-.1926c-1.0686-.1926-2.0454-.4724-2.9214-.8347-.8759-.3623-1.573-.8667-2.0867-1.5088-.5136-.6421-.7704-1.4676-.7704-2.4719 0-1.4997.5549-2.66 1.6693-3.4809 1.1145-.8255 2.5866-1.2336 4.4302-1.2336s3.2378.399 4.3797 1.2061c1.1466.8026 1.8895 1.8895 2.2289 3.2562l-3.0819.8667c-.1926-.9631-.6008-1.6418-1.2199-2.0362s-1.3896-.5962-2.3114-.5962-1.6051.1651-2.1188.4953c-.5136.3302-.7704.798-.7704 1.3942 0 .642.2522 1.1144.7521 1.4125.5045.2981 1.1832.5228 2.0362.6742l1.1236.1926c1.1328.1926 2.1738.4586 3.114.8025.9401.344 1.6831.8347 2.2288 1.4768.5458.642.8164 1.4996.8164 2.5682 0 1.5822-.5871 2.8159-1.7657 3.6918s-2.7608 1.3162-4.7512 1.3162z"/><path d="m79.6649 29.7886c-1.1328 0-2.1463-.1926-3.0314-.5778-.8897-.3853-1.596-.9539-2.1188-1.7015-.5228-.7475-.7842-1.6601-.7842-2.7287s.2614-1.995.7842-2.7104 1.2428-1.2566 2.1509-1.6189c.908-.3623 1.9399-.5457 3.0956-.5457h4.8154v-1.0273c0-.9218-.2797-1.6602-.8347-2.2151-.5549-.5549-1.4125-.8347-2.5682-.8347s-1.9995.266-2.6003.8026-.9952 1.2291-1.1878 2.0867l-3.0819-.9952c.2569-.8576.6696-1.6327 1.2337-2.3252.5687-.6971 1.3208-1.2566 2.2609-1.6831.9402-.4265 2.0776-.642 3.4029-.642 2.0546 0 3.6689.5228 4.8475 1.573 1.1787 1.0502 1.7657 2.5361 1.7657 4.4623v6.5168c0 .6421.2981.9631.8989.9631h1.3483v2.7609h-2.4719c-.7476 0-1.3575-.1927-1.8299-.5779-.4723-.3852-.7062-.908-.7062-1.573v-.0963h-.4816c-.1697.321-.4265.697-.7704 1.1236-.344.4265-.8439.7979-1.5089 1.1052-.665.3119-1.5409.4632-2.6324.4632zm.4815-2.7287c1.3254 0 2.3986-.3807 3.2103-1.142.8117-.7612 1.2199-1.8023 1.2199-3.1277v-.321h-4.6228c-.8759 0-1.5822.188-2.1188.5595-.5365.3761-.8025.9264-.8025 1.651s.2797 1.307.8346 1.7335c.555.4266 1.3162.6421 2.2793.6421z"/><path d="m91.9929 29.3394v-15.8221h3.2423v1.862h.5137c.2568-.665.6696-1.1511 1.2336-1.4584.5687-.3118 1.2658-.4678 2.1005-.4678h1.894v2.9856h-2.0224c-1.0686 0-1.9491.2935-2.6325.8805-.6833.587-1.0272 1.4905-1.0272 2.7104v9.3098h-3.3066z"/><path d="m109.099 29.7888c-1.307 0-2.513-.321-3.628-.963-1.114-.6421-2.004-1.5685-2.678-2.7746-.674-1.2108-1.009-2.6692-1.009-4.3798v-.4815c0-1.6923.33-3.1461.995-4.366s1.55-2.1509 2.665-2.7929c1.114-.6421 2.334-.9631 3.66-.9631 1.027 0 1.889.1284 2.582.3852.697.2569 1.265.5825 1.715.9769.449.3944.793.8071 1.027 1.2336h.514v-8.79153h3.306v22.46733h-3.242v-2.2472h-.514c-.408.6833-1.022 1.307-1.843 1.862-.826.5549-2.004.8346-3.545.8346zm.931-2.8892c1.435 0 2.614-.4586 3.545-1.3804s1.394-2.238 1.394-3.9487v-.2889c0-1.6877-.458-2.9947-1.38-3.9165s-2.11-1.3804-3.564-1.3804c-1.453 0-2.582.4586-3.513 1.3804s-1.394 2.2242-1.394 3.9165v.2889c0 1.7107.463 3.0269 1.394 3.9487s2.101 1.3804 3.513 1.3804z"/><path d="m123.513 11.3666c-.642 0-1.183-.211-1.619-.6238-.44-.4173-.656-.95845-.656-1.61885s.22-1.20156.656-1.61889c.44-.41734.977-.62371 1.619-.62371s1.211.20637 1.637.62371c.427.41733.642.95849.642 1.61889s-.215 1.20615-.642 1.61885c-.426.4174-.972.6238-1.637.6238zm-1.669 17.9729v-15.8221h3.306v15.8221z"/><path d="m128.773 29.3396v-15.822h3.243v2.3756h.513c.299-.6421.835-1.2429 1.606-1.7978.77-.5549 1.917-.8347 3.435-.8347 1.197 0 2.261.266 3.192.8026.93.5366 1.664 1.2887 2.196 2.261.537.9722.803 2.1463.803 3.5129v9.5024h-3.307v-9.2456c0-1.3712-.344-2.3802-1.027-3.0314s-1.628-.9768-2.825-.9768c-1.371 0-2.467.4494-3.288 1.3483-.826.8989-1.234 2.2059-1.234 3.9165v7.9936h-3.307z"/><path d="m154.483 29.7886c-1.605 0-3.008-.3348-4.205-1.0089-1.197-.6742-2.133-1.6281-2.807-2.8572-.674-1.229-1.009-2.6599-1.009-4.2834v-.3852c0-1.6464.33-3.0865.995-4.3155.665-1.2291 1.587-2.183 2.775-2.8572 1.187-.6741 2.563-1.0089 4.123-1.0089 1.559 0 2.852.3348 3.994 1.0089 1.147.6742 2.036 1.6097 2.678 2.8067s.963 2.6003.963 4.2055v1.252h-12.166c.041 1.3896.509 2.4994 1.394 3.3203.889.8255 1.995 1.2337 3.32 1.2337 1.243 0 2.178-.2798 2.807-.8347.633-.5549 1.119-1.197 1.458-1.9262l2.729 1.4126c-.298.6007-.734 1.229-1.298 1.894-.569.665-1.312 1.2199-2.229 1.6694-.922.4494-2.096.6741-3.531.6741zm-4.623-9.9839h8.764c-.087-1.197-.513-2.1326-1.284-2.8067-.77-.6742-1.775-1.009-3.018-1.009-1.242 0-2.251.3348-3.031 1.009-.78.6741-1.257 1.6097-1.426 2.8067z"/><path d="m50.5575 21.3553-18.9727 18.9727c-.3944.3944-1.0869.3944-1.4813 0l-12.6806-12.6851c-.5916-.5871-.9126-1.3713-.9126-2.2014 0-.83.3256-1.6143.9126-2.2013l.5458-.5457c.0412-.0459.1008-.0688.1559-.0688.0596 0 .1146.0229.1559.0642l11.9835 11.988c.3119.3073.8484.3073 1.1603 0l13.4785-13.4831c.3165-.3164.3165-.8393 0-1.1557l-13.4785-13.48314c-.3119-.30727-.8484-.31186-1.1557 0l-28.96126 28.95204c-.22472.2248-.536578.2844-.830088.1651-.293511-.1238-.47236919-.3944-.47236919-.7108v-28.69985c0-.31644.17885819-.58702.47236919-.70626.288924-.12383.609948-.05962.834668.1651l7.86059 7.86061c.58702.587.91259 1.3712.91259 2.2013s-.32557 1.6189-.91259 2.2059l-.54117.5412c-.07796.0779-.2293.0779-.31185 0l-3.45334-3.4534c-.15134-.1513-.34854-.1513-.47695-.0963-.133.0551-.27517.1926-.27517.4082v10.4426c0 .2155.14217.3531.27517.4081.12841.0505.32561.055.47695-.0963l25.23735-25.232737c.376-.37606 1.1052-.37606 1.4813 0l18.9727 18.972737c.4082.4036.4082 1.0685 0 1.4767z"/></g></svg>