<svg viewBox="0 0 250 50" xmlns="http://www.w3.org/2000/svg"><path d="m19.36 40.32a2.06 2.06 0 0 1 -1.36-.55 4 4 0 0 1 -.39-.43l-15.56-17.73c-.13-.15-.26-.29-.38-.45a2 2 0 0 1 0-2.42 5.36 5.36 0 0 1 .4-.43l6.93-7.13c.14-.14.27-.28.42-.41a2 2 0 0 1 2.61 0c.19.17.36.36.54.54l4.86 5 .53.54a1.93 1.93 0 0 0 .88.47 1.91 1.91 0 0 0 1.73-.4c.19-.16.36-.35.54-.53l4.74-4.89c.18-.18.35-.37.54-.54a2 2 0 0 1 2.67 0c.15.13.28.27.42.41l6.85 7.07.29.3a2 2 0 0 1 .1 2.62l-.33.38q-7.6 8.71-15.22 17.42c-.16.19-.32.39-.5.57a2.07 2.07 0 0 1 -1.31.59z"/><path d="m166.72 30.51v-16.75c0-.28 0-.56 0-.84a.31.31 0 0 1 .23-.21h.42 4.88c.26 0 .37.11.38.35s0 .5 0 .76 0 .33 0 .5.15.12.2.08l.63-.43a10.07 10.07 0 0 1 5.12-1.72 10.69 10.69 0 0 1 9.59 4.56 12.05 12.05 0 0 1 2.19 5 13.52 13.52 0 0 1 .3 3.17 13.27 13.27 0 0 1 -1.7 6.36 11.5 11.5 0 0 1 -11.35 5.66 8.94 8.94 0 0 1 -3.75-1.39l-.71-.46a.16.16 0 0 0 -.23.14v.84 11.07.67c0 .47-.06.53-.53.53h-5.22c-.32 0-.41-.09-.42-.39s0-.33 0-.5v-17zm6.19-5.86v3.19a1.06 1.06 0 0 0 .25.7 6.75 6.75 0 0 0 2.16 1.82 6.43 6.43 0 0 0 4.89.54 5.78 5.78 0 0 0 3.79-3.51 7.4 7.4 0 0 0 -.67-6.75 5.55 5.55 0 0 0 -3.51-2.42 6.16 6.16 0 0 0 -2.42 0 7 7 0 0 0 -4.25 2.5 1.12 1.12 0 0 0 -.28.76c.04 1.04.04 2.1.04 3.17z"/><path d="m159.6 24.66v10.94c0 1 .1 1-.94 1h-4.37c-.58 0-.62 0-.64-.62 0-.33 0-.67 0-1 0 0-.08-.08-.13-.08a.32.32 0 0 0 -.15.06l-.34.25a9.4 9.4 0 0 1 -5.9 1.87 11.38 11.38 0 0 1 -9.54-5.39 13.32 13.32 0 0 1 -1.87-5.53 13.5 13.5 0 0 1 .88-6.6 11.77 11.77 0 0 1 3.76-5.08 10.35 10.35 0 0 1 5-2.16 10.48 10.48 0 0 1 7.6 1.77l.49.31a.18.18 0 0 0 .14-.06.25.25 0 0 0 0-.15c0-.22 0-.45 0-.67 0-.8 0-.82.78-.82h4.37a2.94 2.94 0 0 1 .59.05.31.31 0 0 1 .17.15.52.52 0 0 1 0 .25v.93zm-6.19 0c0-1.07 0-2.13 0-3.2a1.06 1.06 0 0 0 -.27-.76 7.13 7.13 0 0 0 -3.44-2.31 6.47 6.47 0 0 0 -3.15-.17 5.49 5.49 0 0 0 -3.55 2.42 6.69 6.69 0 0 0 -1.09 2.79 7 7 0 0 0 .59 4.34 5.84 5.84 0 0 0 3.42 3.06 6 6 0 0 0 2.23.3 6.58 6.58 0 0 0 5.06-2.59 1 1 0 0 0 .24-.7c-.05-1.06-.04-2.13-.04-3.19z"/><path d="m218.54 24.61v10.85.76s-.11.33-.37.35h-5.17c-.21 0-.32-.11-.32-.31 0-.36 0-.73 0-1.09a.49.49 0 0 0 -.05-.24s-.11-.07-.14-.05a3.74 3.74 0 0 0 -.42.27 9.76 9.76 0 0 1 -1.95 1.14 9.25 9.25 0 0 1 -3.43.76 11.24 11.24 0 0 1 -8.69-3.52 11.81 11.81 0 0 1 -2.78-4.84 13.51 13.51 0 0 1 -.54-5.4 13.16 13.16 0 0 1 1.91-5.77 11.32 11.32 0 0 1 3.85-3.81 10.3 10.3 0 0 1 5.1-1.5 10.48 10.48 0 0 1 5.05 1 9 9 0 0 1 1.37.81l.49.32c.06 0 .2 0 .2-.09a1.84 1.84 0 0 0 0-.33c0-.31 0-.62 0-.93a.3.3 0 0 1 .3-.33h5a2.73 2.73 0 0 1 .49.06s.1.06.12.11a.64.64 0 0 1 0 .24v.76zm-6.19 0v-3.19a1.06 1.06 0 0 0 -.29-.76 6.92 6.92 0 0 0 -4.18-2.46 6 6 0 0 0 -3.07.19 5.63 5.63 0 0 0 -3.27 2.86 7.11 7.11 0 0 0 -.34 6 5.84 5.84 0 0 0 5.8 3.88 6.56 6.56 0 0 0 5.08-2.56 1.11 1.11 0 0 0 .26-.77z"/><path d="m117 36.45a.68.68 0 0 1 -.16.09 2 2 0 0 1 -.34 0h-4.88a1.26 1.26 0 0 1 -.33 0 .29.29 0 0 1 -.11-.11.7.7 0 0 1 0-.25c0-.36 0-.72 0-1.09 0-.08 0-.19-.12-.19a.35.35 0 0 0 -.22.06 2.69 2.69 0 0 0 -.27.2 9.52 9.52 0 0 1 -6 1.91 11.36 11.36 0 0 1 -9.57-5.44 13 13 0 0 1 -1.89-5.86 13.65 13.65 0 0 1 .89-6.11 12 12 0 0 1 3.45-4.91 10.28 10.28 0 0 1 5.36-2.45 10.45 10.45 0 0 1 7.57 1.7 5.43 5.43 0 0 0 .57.35s.13 0 .13-.07c0-.28 0-.56 0-.84 0-.8 0-.79.78-.79h4.8c.23 0 .33.12.33.38s0 .39 0 .59v22a2.79 2.79 0 0 1 .01.83zm-6.14-11.85c0-1 0-2 0-3a1.43 1.43 0 0 0 -.42-1.05 6.9 6.9 0 0 0 -5.58-2.41 5.33 5.33 0 0 0 -3.38 1.32 5.85 5.85 0 0 0 -1.63 2.21 7.2 7.2 0 0 0 -.26 5.33 5.84 5.84 0 0 0 3.71 3.85 5.65 5.65 0 0 0 2.23.32 6.6 6.6 0 0 0 5-2.43 1.44 1.44 0 0 0 .36-1c-.05-1.07-.03-2.11-.03-3.14z"/><path d="m229.39 12.72c.16.33.3.61.43.89l5.88 12.48a1.92 1.92 0 0 0 .41.72c.18-.08.22-.25.28-.4l1.17-2.7q2.22-5.09 4.42-10.18c.11-.26.24-.51.37-.78a4.13 4.13 0 0 1 .49-.07h5.22a5.67 5.67 0 0 1 .58.05.09.09 0 0 1 .08.12 2.67 2.67 0 0 1 -.15.48q-1 2.19-1.94 4.38l-13.26 29.82a3.34 3.34 0 0 1 -.43.84h-.4-5.47a1.27 1.27 0 0 1 -.34 0 .16.16 0 0 1 -.07-.13 3 3 0 0 1 .12-.4l1.14-2.53 4.56-10.21c.11-.23.21-.46.31-.69a.56.56 0 0 0 0-.49l-.36-.76-9.43-19.57c-.11-.23-.2-.46-.3-.69 0-.06.07-.19.13-.2h.33 5.64c.2-.02.36-0 .59.02z"/><path d="m85.5 28.08.4.28c1.38 1.1 2.82 2.12 4.15 3.28v.07a.38.38 0 0 1 0 .16 12.31 12.31 0 0 1 -4.92 4.13 11.84 11.84 0 0 1 -4 1 19.12 19.12 0 0 1 -2.27 0 12 12 0 0 1 -10.94-8.78 12.42 12.42 0 0 1 -.47-4.41 12.14 12.14 0 0 1 6.16-10 11.89 11.89 0 0 1 5.77-1.6 12.24 12.24 0 0 1 6.46 1.55 11.61 11.61 0 0 1 3.4 2.84 1.67 1.67 0 0 1 .18.28.18.18 0 0 1 0 .16 2.76 2.76 0 0 1 -.29.3l-3.48 3.18-.32.27a.21.21 0 0 1 -.3 0l-.39-.44a7 7 0 0 0 -1.64-1.35 6.16 6.16 0 0 0 -9.21 3.67 7.2 7.2 0 0 0 .14 4.33 6 6 0 0 0 5.42 4.12 6.5 6.5 0 0 0 5.56-2.41c.17-.19.32-.39.49-.58.02-.02.05-.02.1-.05z"/><path d="m62.83 14.64c-1 1.51-1.84 3-2.85 4.44 0 0 0 0-.11.05l-.61-.38a7.51 7.51 0 0 0 -2.65-1.05 5.5 5.5 0 0 0 -2.58.1 2.67 2.67 0 0 0 -.9.43 2.14 2.14 0 0 0 -.47.48 1.3 1.3 0 0 0 .17 1.75 2.81 2.81 0 0 0 .76.53c.41.18.82.37 1.24.53.76.28 1.53.54 2.29.81a18.84 18.84 0 0 1 2.4 1 9.43 9.43 0 0 1 1.69 1.1 6.22 6.22 0 0 1 2.32 4.59 6.86 6.86 0 0 1 -.28 2.66 6.75 6.75 0 0 1 -2.16 3.14 9.3 9.3 0 0 1 -3.5 1.78 11.7 11.7 0 0 1 -3.59.4 15.12 15.12 0 0 1 -7.41-2.19c-.41-.25-.81-.52-1.2-.79-.22-.15-.24-.25-.08-.49q1.27-2 2.57-3.94a.74.74 0 0 1 .17-.18.18.18 0 0 1 .16 0c.14.08.27.18.41.28a9.46 9.46 0 0 0 5.89 1.92 3.5 3.5 0 0 0 1.24-.19 4.22 4.22 0 0 0 .68-.32 2.34 2.34 0 0 0 .57-.4 1.58 1.58 0 0 0 0-2.15 2.64 2.64 0 0 0 -.78-.63 11.78 11.78 0 0 0 -1.13-.55c-.73-.29-1.47-.55-2.2-.83s-1.41-.54-2.11-.84a9.61 9.61 0 0 1 -1.49-.78 7.8 7.8 0 0 1 -1.32-1 5.47 5.47 0 0 1 -1.64-3.24 6.65 6.65 0 0 1 2.05-6 8.8 8.8 0 0 1 3.7-2.09 9.71 9.71 0 0 1 2.4-.39 14.41 14.41 0 0 1 7.15 1.58c.32.17.62.37.93.57a3.22 3.22 0 0 1 .27.29z"/><path d="m124.18 19.06c0-5.41 0-10.82 0-16.23 0-1.4-.15-1.22 1.19-1.23s2.64 0 4 0h.75a.26.26 0 0 1 .25.28v.67q0 16.53 0 33.06v.68a.3.3 0 0 1 -.2.23h-.34-5-.33a.28.28 0 0 1 -.21-.23 2.11 2.11 0 0 1 0-.25v-17z"/></svg>