<svg fill="none" height="28" width="115" xmlns="http://www.w3.org/2000/svg" xmlns:xlink="http://www.w3.org/1999/xlink"><clipPath id="a"><path d="m0 0h114.456v28h-114.456z" transform="translate(.271)"/></clipPath><g clip-path="url(#a)"><path d="m2.982 8.944a4.02 4.02 0 0 1 4.335 1.136 4.05 4.05 0 0 1 -.98 6.176 4.022 4.022 0 0 1 -4.473-.27 4.044 4.044 0 0 1 -1.374-1.901 4.04 4.04 0 0 1 1.132-4.347c.396-.352.859-.622 1.36-.793z" fill="#353d48"/><path d="m9.888 14.29a4.964 4.964 0 0 1 5.353 1.404 5.002 5.002 0 0 1 .755 5.499 4.989 4.989 0 0 1 -1.964 2.128 4.966 4.966 0 0 1 -5.524-.332 4.994 4.994 0 0 1 -1.697-2.348 4.991 4.991 0 0 1 1.397-5.371 4.956 4.956 0 0 1 1.68-.98z" fill="#007ce4"/><path d="m14.16 9.168a1.89 1.89 0 0 1 2.038.535 1.906 1.906 0 0 1 -.461 2.905 1.892 1.892 0 0 1 -2.75-1.02 1.903 1.903 0 0 1 .532-2.047c.187-.165.405-.292.64-.373zm-5.135-5.269a3.31 3.31 0 0 1 3.57.937 3.335 3.335 0 0 1 -.809 5.085 3.311 3.311 0 0 1 -3.682-.222 3.33 3.33 0 0 1 -1.131-1.565 3.326 3.326 0 0 1 .931-3.582c.327-.29.708-.512 1.121-.653zm12.362 16.958 1.795-2.452c1.207 1.148 2.753 1.862 4.702 1.862 1.764 0 3.125-.62 3.125-1.738 0-1.242-1.547-1.645-3.403-2.08-2.538-.59-5.724-1.397-5.724-4.871 0-3.26 2.878-4.872 6.28-4.872 2.6 0 4.61.963 6.002 2.114l-1.825 2.452a6.231 6.231 0 0 0 -4.115-1.553c-1.547 0-2.815.528-2.815 1.614 0 1.241 1.516 1.614 3.435 2.048 2.536.56 5.693 1.366 5.693 4.811 0 3.29-2.909 5.09-6.59 5.09-2.879-.005-5.044-1.091-6.56-2.425zm31.339-5.867c0 4.718-3.341 8.287-7.766 8.287-2.32 0-4.27-.992-5.569-2.665v7.392h-3.463v-20.927h3.463v2.298c1.3-1.676 3.249-2.666 5.569-2.666 4.425-.006 7.766 3.562 7.766 8.282zm-3.589 0c0-2.793-2.072-4.934-4.856-4.934s-4.89 2.145-4.89 4.935 2.108 4.935 4.889 4.935c2.78 0 4.857-2.142 4.857-4.935zm5.199 0c0-4.717 3.62-8.287 8.446-8.287 4.795 0 8.447 3.57 8.447 8.288s-3.652 8.286-8.447 8.286c-4.827 0-8.446-3.57-8.446-8.286zm13.304 0c0-2.793-2.073-4.934-4.857-4.934-2.783 0-4.888 2.141-4.888 4.935 0 2.793 2.107 4.935 4.888 4.935s4.857-2.142 4.857-4.935zm10.332-4.748v7.48c0 1.49.836 2.206 2.291 2.206.866 0 1.547-.25 2.166-.56v3.26c-.867.434-1.733.651-2.878.651-3.403 0-5.04-1.924-5.04-4.997v-8.04h-2.663v-3.165h2.657v-4.527h3.465v4.529h4.455v3.165zm29.298-3.165v15.828h-3.464v-2.266c-1.3 1.645-3.218 2.638-5.538 2.638-4.456 0-7.766-3.57-7.766-8.286 0-4.717 3.31-8.288 7.766-8.288 2.32 0 4.238.994 5.538 2.638v-2.264zm-3.464 7.914c0-2.794-2.073-4.935-4.857-4.935-2.816 0-4.888 2.141-4.888 4.935 0 2.793 2.068 4.931 4.887 4.931 2.785 0 4.858-2.138 4.858-4.931zm6.497-12.787c0-1.273.958-2.206 2.199-2.206 1.268 0 2.228.931 2.228 2.206 0 1.241-.96 2.206-2.228 2.206a2.162 2.162 0 0 1 -2.041-1.356 2.186 2.186 0 0 1 -.158-.85zm.464 4.872h3.465v15.828h-3.465zm-24.26 12.387a1.89 1.89 0 0 1 2.039.535 1.905 1.905 0 0 1 -1.532 3.162 1.894 1.894 0 0 1 -1.68-1.277 1.902 1.902 0 0 1 1.173-2.42z" fill="#353d48"/></g></svg>