<svg fill="none" height="40" viewBox="0 0 63 28" width="90" xmlns="http://www.w3.org/2000/svg" xmlns:xlink="http://www.w3.org/1999/xlink"><clipPath id="a"><path d="m0 0h62.659v28h-62.659z"/></clipPath><g clip-path="url(#a)"><g fill="#283d64"><path d="m3.00454 20.1354c1.89992 1.9883 3.97659 2.9603 6.14162 2.9603 1.59064 0 2.78364-.6186 2.78364-1.8115 0-.9279-.6186-1.2814-2.25342-1.9883l-2.34178-.9721c-4.02077-1.6367-5.96488-3.4482-5.96488-6.6737 0-4.10912 3.26964-6.53926 8.04155-6.53926 3.26963 0 5.87653 1.10461 7.86483 3.26964l-3.0046 3.66732c-1.458-1.3697-3.0929-2.07668-4.90441-2.07668-1.45809 0-2.34178.53018-2.34178 1.54648 0 .8395.5744 1.2371 2.29759 1.9441l2.1209.8837c4.2416 1.7232 6.1416 3.4464 6.1416 6.6718 0 2.165-.7953 3.8882-2.4302 5.1254-1.5906 1.2372-3.6231 1.8557-6.09741 1.8557-3.84403 0-7.06949-1.5906-9.05779-4.2417z"/><path d="m30.9881 27.4699c-.4179.2596-.9426.5302-2.2682.5302-5.523 0-8.7485-2.7394-8.7485-8.2183v-9.148-5.03702-5.5230495h5.9649v5.5230495h5.0886v5.03702h-5.0886v8.6159c0 2.4744 1.2372 3.4022 4.065 3.4022.3535 0 .753-.0791.9868-.1767z"/><path d="m33.8433 8.3584h5.9649v19.4779h-5.9649z"/><path d="m42.7832.0366211h5.9649v27.7993789h-5.9649z"/></g><path d="m33.8674 0h5.9649v5.52305h-5.9649z" fill="#577fff"/><path d="m62.6203 27.4054c-.4179.2596-.9426.5302-2.2681.5302-5.523 0-8.7485-2.7394-8.7485-8.2183v-9.148-5.03698-5.52304266h5.9649v5.52304266h5.0886v5.03698h-5.0886v8.616c0 2.4743 1.2372 3.4022 4.0649 3.4022.3535 0 .753-.0792.9868-.1768z" fill="#283d64"/></g></svg>