<svg fill="none" height="20" width="101" xmlns="http://www.w3.org/2000/svg" xmlns:xlink="http://www.w3.org/1999/xlink"><clipPath id="a"><path d="m0 0h93.662v20h-93.662z"/></clipPath><g fill="#000"><g clip-path="url(#a)"><path d="m9.045 8.99h-2.815v10.682h-3.552v-10.682h-2.678v-3.252h2.678v-3.334l3.552-.764v4.099h2.815zm14.821 1.83v8.852h-3.552v-7.705c0-1.885-1.202-3.115-3.032-3.115-1.968 0-3.28 1.253-3.28 3.17v7.65h-3.551v-19.672h3.552v7.568c1.066-1.42 2.596-2.163 4.426-2.163 3.279.005 5.437 2.131 5.437 5.415zm9.982-5.301v3.661c-2.618 0-4.07 1.503-4.07 3.853v6.639h-3.553v-13.934h3.552v2.049c1.011-1.421 2.432-2.268 4.071-2.268zm15.302 8.415h-11.068c.465 1.777 1.886 2.924 3.744 2.924 1.53 0 2.814-.71 3.36-1.667h3.8c-1.013 2.846-3.772 4.81-7.215 4.81-4.262 0-7.486-3.143-7.486-7.296s3.224-7.295 7.486-7.295 7.486 3.142 7.486 7.322c.006.404-.03.807-.109 1.203zm-11.013-2.594h7.295c-.464-1.694-1.912-2.814-3.661-2.814-1.776 0-3.17 1.12-3.634 2.814zm27.215-5.602v13.934h-3.557v-1.83a5.717 5.717 0 0 1 -4.536 2.163c-3.88 0-6.803-3.143-6.803-7.296s2.924-7.295 6.803-7.295a5.716 5.716 0 0 1 4.536 2.163v-1.84h3.556zm-3.557 6.967c0-2.186-1.64-3.853-3.852-3.853-2.186 0-3.826 1.667-3.826 3.853s1.64 3.852 3.826 3.852c2.217 0 3.852-1.666 3.852-3.852zm19.891-12.705v19.672h-3.552v-1.83a5.715 5.715 0 0 1 -4.536 2.163c-3.88 0-6.803-3.142-6.803-7.295 0-4.154 2.924-7.296 6.803-7.296a5.716 5.716 0 0 1 4.536 2.163v-7.577zm-3.552 12.705c0-2.186-1.64-3.853-3.853-3.853-2.186 0-3.825 1.667-3.825 3.853s1.64 3.852 3.825 3.852c2.213 0 3.853-1.666 3.853-3.852zm5.118 2.787h3.58c0 .874.737 1.584 1.666 1.584.875 0 1.558-.546 1.558-1.252 0-.956-1.066-1.42-2.323-1.748-2.076-.492-4.29-1.558-4.29-4.372 0-2.76 2.323-4.29 5-4.29 2.87 0 5.028 1.913 5.028 4.29h-3.58c0-.738-.628-1.366-1.48-1.366-.764 0-1.393.519-1.393 1.147 0 .875.984 1.394 2.432 1.749 2.163.546 4.212 1.612 4.212 4.29 0 2.846-2.35 4.48-5.191 4.48-3.005-.004-5.219-2.026-5.219-4.512z" fill="#000"/></g><path d="m97.01 6.101c.581 0 1.096-.124 1.546-.373a2.83 2.83 0 0 0 1.069-1.033c.259-.435.388-.928.388-1.48v-.417a2.59 2.59 0 0 0 -.395-1.406 2.86 2.86 0 0 0 -1.078-1.012 3.082 3.082 0 0 0 -1.529-.38c-.572 0-1.085.125-1.539.374a2.86 2.86 0 0 0 -1.076 1.01c-.264.42-.396.891-.396 1.414v.417c0 .552.13 1.045.388 1.48.259.434.615.779 1.07 1.033.454.249.971.373 1.552.373zm0-.66c-.449 0-.85-.097-1.2-.292a2.168 2.168 0 0 1 -.829-.798c-.2-.337-.3-.718-.3-1.143v-.403c0-.395.1-.757.3-1.084s.477-.586.828-.776a2.431 2.431 0 0 1 1.201-.293c.445 0 .843.098 1.194.293.352.19.628.449.828.776a2 2 0 0 1 .307 1.084v.403c0 .425-.1.806-.3 1.143a2.16 2.16 0 0 1 -.828.798 2.431 2.431 0 0 1 -1.2.293zm-.46-3.411h.527c.156 0 .28.034.374.102.093.069.139.176.139.323 0 .18-.064.3-.19.358a.97.97 0 0 1 -.396.081h-.454zm-.008 2.417v-1.07h.47l.585 1.07h.777a22.534 22.534 0 0 0 -.345-.579l-.337-.586a.781.781 0 0 0 .41-.307.928.928 0 0 0 .169-.557.85.85 0 0 0 -.271-.645c-.176-.17-.408-.256-.696-.256h-1.42v2.93h.659z"/></g></svg>