<svg viewBox="33.61 27.29 540.49 137.42" xmlns="http://www.w3.org/2000/svg"><path d="m73.28 27.29-39.67 22.9v45.81l39.67-22.9 39.68-22.91z" fill="#84adff"/><path d="m73.28 118.9v-45.8l-39.67 22.9v45.81l39.67 22.9 39.68-22.9v-45.81z" fill="#5786ff"/><path d="m112.96 50.19-39.68 22.91 39.68 22.9v45.81l39.66-22.91v-45.8z" fill="#ec2924"/><g><path d="m324.08 73.06h14.37v52.43h-14.37z"/><path d="m323.56 48.93h15.41v14.37h-15.41z"/><path d="m359.64 55.96v17.1h-9.65v12.26h9.65v40.17h14.37v-40.17h11.53v-12.26h-11.53v-11.86h11.53v-12.27h-13.74z"/><path d="m407.25 72.53-12.17 7.03v39.43l12.17 7.03h22.34l12.17-7.03v-39.43l-12.17-7.03zm20.13 41.21h-17.94v-28.95h17.94z"/><path d="m471.84 77.37-7.47-4.31h-6.89v52.43h14.37v-40.17h18.04v-12.26h-10.57z"/><path d="m284.1 72.53-8.38 4.84-8.39-4.84h-5.64v52.96h14.37v-40.69h17.93v40.69h14.37v-45.93l-12.17-7.03z"/><path d="m231.59 113.74h-17.93v-40.68h-14.37v45.93l12.17 7.03h12.67l7.44-4.31.01.01.01-.01v.01l7.44 4.3h6.93v-52.96h-14.37z"/><path d="m561.93 72.53h-10.07l-9.85 5.66-9.76-5.66h-10.06l-7.45 4.3-7.44-4.3h-6.93v52.96h14.37v-40.69h15.32v40.69h14.36v-40.69h15.31v40.69h14.37v-45.93z"/></g></svg>