<svg height="47.992386" viewBox="0 0 108.99525 47.992386" width="108.99525" xmlns="http://www.w3.org/2000/svg"><g fill="none" fill-rule="evenodd" transform="translate(0)"><path d="m84.999062 0h-61.003034c-13.252635 0-23.996028 10.743393-23.996028 23.996193v.000166c0 13.252634 10.743393 23.996027 23.996028 23.996027h61.003034c13.252635 0 23.996198-10.743393 23.996198-23.996027v-.000166c0-13.2528-10.743563-23.996193-23.996198-23.996193" fill="#00a9e0"/><g fill="#fefefe"><path d="m21.395338 15.282058h-6.652138l7.317517 12.578317v5.001435h6.085573v-4.976773l7.687117-12.602979h-6.627642l-3.991448 6.589572z"/><path d="m43.757942 27.917462c-2.503448 0-3.996745-1.223669-3.996745-3.740193v-.02301c0-2.632055 1.515145-3.878897 4.018593-3.878897 2.4816 0 4.018759 1.17749 4.018759 3.901904 0 2.655062-1.537159 3.740193-4.040607 3.740193m5.231007-11.997848c-1.48171-.711062-3.217986-1.078842-5.162648-1.078842-3.98218 0-7.061462 1.495614-8.774731 4.290704-.83338 1.372965-1.273325 3.040221-1.273325 5.001765v.04916c0 4.217048 1.666925 6.864993 4.67669 8.188966 1.528055.662068 3.287669.980855 5.324855.980855 4.028525 0 7.084635-1.299642 8.751393-4.021076.833545-1.373131 1.250318-3.064883 1.250318-5.124414v-.09799c0-3.947421-1.782787-6.71818-4.792552-8.189131"/><path d="m82.688127 27.917462c-2.503614 0-3.996745-1.223669-3.996745-3.740193v-.02301c0-2.632055 1.515145-3.878897 4.018593-3.878897 2.481435 0 4.018759 1.17749 4.018759 3.901904 0 2.655062-1.537324 3.740193-4.040607 3.740193m5.231007-11.997848c-1.481711-.711062-3.218152-1.078842-5.162814-1.078842-3.982014 0-7.061297 1.495614-8.774566 4.290704-.833544 1.372965-1.273324 3.040221-1.273324 5.001765v.04916c0 4.217048 1.666759 6.864993 4.67669 8.188966 1.52789.662068 3.287503.980855 5.324855.980855 4.028359 0 7.084635-1.299642 8.751393-4.021076.83338-1.373131 1.250318-3.064883 1.250318-5.124414v-.09799c0-3.947421-1.782787-6.71818-4.792552-8.189131"/><path d="m65.019807 14.840706c-3.982179 0-7.061297 1.495614-8.774566 4.290704-.833379 1.373131-1.273324 3.040386-1.273324 5.001765v.04916c0 4.217048 1.666924 6.865158 4.67669 8.189131 1.52789.662069 3.287503.980689 5.324855.980689 2.642979 0 4.863559-.563255 6.551669-1.716579v-5.727724s-2.997683 2.009545-5.745931 2.009545c-2.503448 0-4.493462-1.223504-4.493462-3.740028v-.02317c0-2.632055 2.011862-3.878897 4.515476-3.878897 2.685351 0 5.723917 2.009876 5.723917 2.009876v-5.563699c-.414952-.299918-.863007-.567559-1.342676-.801931-1.481545-.711062-3.217986-1.078842-5.162648-1.078842"/></g></g></svg>