<svg xmlns="http://www.w3.org/2000/svg" xmlns:xlink="http://www.w3.org/1999/xlink" width="800" zoomAndPan="magnify" viewBox="0 0 600 225" height="300" preserveAspectRatio="xMidYMid meet" version="1.0"><defs><clipPath id="b8bb7b15bb"><path d="M 35.25 0 L 564.75 0 C 584.21875 0 600 15.78125 600 35.25 L 600 189.75 C 600 209.21875 584.21875 225 564.75 225 L 35.25 225 C 15.78125 225 0 209.21875 0 189.75 L 0 35.25 C 0 15.78125 15.78125 0 35.25 0 Z M 35.25 0 " clip-rule="nonzero"/></clipPath><clipPath id="9927d881f0"><path d="M 40.789062 51.078125 L 551.777344 51.078125 L 551.777344 169.976562 L 40.789062 169.976562 Z M 40.789062 51.078125 " clip-rule="nonzero"/></clipPath><clipPath id="0857f681b3"><path d="M 195 74 L 551.777344 74 L 551.777344 116 L 195 116 Z M 195 74 " clip-rule="nonzero"/></clipPath><clipPath id="0277d402ca"><path d="M 40.789062 51.078125 L 179 51.078125 L 179 169.976562 L 40.789062 169.976562 Z M 40.789062 51.078125 " clip-rule="nonzero"/></clipPath></defs><g clip-path="url(#b8bb7b15bb)"><rect x="-60" width="720" fill="#000000" y="-22.5" height="270" fill-opacity="1"/></g><g clip-path="url(#9927d881f0)"><path fill="#000000" d="M 40.789062 51.078125 L 551.777344 51.078125 L 551.777344 169.976562 L 40.789062 169.976562 Z M 40.789062 51.078125 " fill-opacity="1" fill-rule="nonzero"/></g><g clip-path="url(#0857f681b3)"><path fill="#ffffff" d="M 211.183594 115.757812 C 208.066406 115.757812 205.042969 115.3125 202.140625 114.425781 C 199.226562 113.539062 196.929688 112.355469 195.234375 110.890625 L 197.84375 105.058594 C 199.507812 106.375 201.539062 107.4375 203.941406 108.269531 C 206.347656 109.105469 208.765625 109.519531 211.199219 109.519531 C 214.207031 109.519531 216.453125 109.039062 217.929688 108.070312 C 219.421875 107.101562 220.160156 105.839844 220.160156 104.253906 C 220.160156 103.097656 219.742188 102.140625 218.910156 101.390625 C 218.078125 100.636719 217.03125 100.046875 215.765625 99.628906 C 214.492188 99.210938 212.769531 98.726562 210.566406 98.175781 C 207.488281 97.453125 204.992188 96.710938 203.082031 95.984375 C 201.175781 95.246094 199.535156 94.105469 198.164062 92.546875 C 196.792969 90.984375 196.109375 88.875 196.109375 86.214844 C 196.109375 83.984375 196.714844 81.941406 197.9375 80.113281 C 199.144531 78.285156 200.972656 76.832031 203.433594 75.746094 C 205.878906 74.667969 208.875 74.132812 212.421875 74.132812 C 214.894531 74.132812 217.3125 74.441406 219.703125 75.058594 C 222.09375 75.675781 224.152344 76.5625 225.882812 77.71875 L 223.519531 83.554688 C 221.746094 82.519531 219.90625 81.726562 217.96875 81.1875 C 216.050781 80.648438 214.179688 80.382812 212.367188 80.382812 C 209.398438 80.382812 207.195312 80.878906 205.757812 81.886719 C 204.304688 82.882812 203.59375 84.210938 203.59375 85.878906 C 203.59375 87.035156 204.011719 87.976562 204.84375 88.714844 C 205.664062 89.453125 206.722656 90.019531 208 90.449219 C 209.277344 90.878906 210.996094 91.363281 213.199219 91.898438 C 216.210938 92.597656 218.667969 93.3125 220.605469 94.0625 C 222.539062 94.816406 224.175781 95.960938 225.546875 97.503906 C 226.917969 99.050781 227.605469 101.132812 227.605469 103.753906 C 227.605469 105.988281 227 108.015625 225.777344 109.832031 C 224.566406 111.644531 222.726562 113.082031 220.253906 114.171875 C 217.796875 115.261719 214.785156 115.785156 211.238281 115.785156 Z M 245.769531 81.066406 L 232.359375 81.066406 L 232.359375 74.710938 L 266.691406 74.710938 L 266.691406 81.066406 L 253.28125 81.066406 L 253.28125 115.179688 L 245.769531 115.179688 Z M 299.714844 105.8125 L 279.480469 105.8125 L 275.492188 115.179688 L 267.75 115.179688 L 285.957031 74.710938 L 293.359375 74.710938 L 311.621094 115.179688 L 303.761719 115.179688 Z M 297.230469 99.910156 L 289.597656 82.222656 L 282.019531 99.910156 Z M 355.867188 74.695312 L 355.867188 115.167969 L 349.6875 115.167969 L 327.367188 87.761719 L 327.367188 115.167969 L 319.910156 115.167969 L 319.910156 74.695312 L 326.089844 74.695312 L 348.394531 102.101562 L 348.394531 74.695312 Z M 369.867188 74.695312 L 387.550781 74.695312 C 391.875 74.695312 395.707031 75.542969 399.050781 77.210938 C 402.40625 78.890625 405.003906 81.253906 406.855469 84.320312 C 408.710938 87.382812 409.625 90.917969 409.625 94.9375 C 409.625 98.957031 408.699219 102.476562 406.855469 105.542969 C 405.003906 108.605469 402.40625 110.972656 399.050781 112.652344 C 395.707031 114.332031 391.875 115.167969 387.550781 115.167969 L 369.867188 115.167969 Z M 387.214844 108.808594 C 390.183594 108.808594 392.789062 108.246094 395.046875 107.101562 C 397.289062 105.960938 399.039062 104.347656 400.246094 102.25 C 401.46875 100.152344 402.074219 97.707031 402.074219 94.9375 C 402.074219 92.167969 401.46875 89.722656 400.246094 87.625 C 399.039062 85.527344 397.300781 83.902344 395.046875 82.773438 C 392.789062 81.644531 390.183594 81.066406 387.214844 81.066406 L 377.390625 81.066406 L 377.390625 108.824219 L 387.214844 108.824219 Z M 446.425781 105.796875 L 426.191406 105.796875 L 422.199219 115.167969 L 414.460938 115.167969 L 432.667969 74.695312 L 440.070312 74.695312 L 458.328125 115.167969 L 450.46875 115.167969 Z M 443.9375 99.898438 L 436.308594 82.210938 L 428.730469 99.898438 Z M 493.089844 115.152344 L 484.824219 103.296875 C 484.476562 103.339844 483.964844 103.351562 483.269531 103.351562 L 474.128906 103.351562 L 474.128906 115.140625 L 466.621094 115.140625 L 466.621094 74.667969 L 483.269531 74.667969 C 486.777344 74.667969 489.824219 75.246094 492.433594 76.402344 C 495.039062 77.558594 497.027344 79.210938 498.410156 81.375 C 499.796875 83.539062 500.492188 86.09375 500.492188 89.0625 C 500.492188 92.035156 499.753906 94.734375 498.261719 96.925781 C 496.785156 99.132812 494.648438 100.757812 491.878906 101.847656 L 501.191406 115.140625 L 493.105469 115.140625 Z M 492.914062 89.078125 C 492.914062 86.496094 492.070312 84.507812 490.375 83.125 C 488.679688 81.738281 486.195312 81.039062 482.917969 81.039062 L 474.128906 81.039062 L 474.128906 97.167969 L 482.917969 97.167969 C 486.183594 97.167969 488.667969 96.46875 490.375 95.058594 C 492.070312 93.648438 492.914062 91.660156 492.914062 89.078125 Z M 512.007812 74.683594 L 529.6875 74.683594 C 534.003906 74.683594 537.832031 75.527344 541.1875 77.195312 C 544.535156 78.875 547.144531 81.242188 549 84.304688 C 550.851562 87.371094 551.765625 90.90625 551.765625 94.925781 C 551.765625 98.941406 550.839844 102.464844 549 105.527344 C 547.15625 108.59375 544.550781 110.960938 541.1875 112.640625 C 537.832031 114.320312 534.003906 115.152344 529.6875 115.152344 L 512.007812 115.152344 Z M 529.351562 108.796875 C 532.324219 108.796875 534.929688 108.230469 537.183594 107.089844 C 539.445312 105.945312 541.175781 104.332031 542.386719 102.238281 C 543.597656 100.140625 544.199219 97.691406 544.199219 94.925781 C 544.199219 92.15625 543.597656 89.710938 542.386719 87.613281 C 541.175781 85.515625 539.445312 83.890625 537.183594 82.761719 C 534.929688 81.632812 532.324219 81.054688 529.351562 81.054688 L 519.53125 81.054688 L 519.53125 108.808594 L 529.351562 108.808594 Z M 529.351562 108.796875 " fill-opacity="1" fill-rule="evenodd"/></g><path fill="#ffffff" d="M 276 127.277344 L 269.578125 146.660156 L 265.761719 146.660156 L 260.96875 132.316406 L 256.101562 146.660156 L 252.261719 146.660156 L 245.835938 127.277344 L 249.574219 127.277344 L 254.382812 142.007812 L 259.394531 127.277344 L 262.714844 127.277344 L 267.617188 142.089844 L 272.5625 127.277344 Z M 304.902344 143.648438 L 304.902344 146.671875 L 290.378906 146.671875 L 290.378906 127.289062 L 304.527344 127.289062 L 304.527344 130.300781 L 293.980469 130.300781 L 293.980469 135.339844 L 303.332031 135.339844 L 303.332031 138.3125 L 293.980469 138.3125 L 293.980469 143.660156 L 304.917969 143.660156 Z M 334.074219 136.578125 C 335.148438 136.925781 335.996094 137.519531 336.625 138.339844 C 337.257812 139.160156 337.566406 140.179688 337.566406 141.402344 C 337.566406 143.082031 336.921875 144.375 335.632812 145.289062 C 334.34375 146.203125 332.460938 146.660156 329.988281 146.660156 L 320.355469 146.660156 L 320.355469 127.277344 L 329.4375 127.277344 C 331.722656 127.277344 333.480469 127.71875 334.730469 128.621094 C 335.96875 129.519531 336.585938 130.746094 336.585938 132.316406 C 336.585938 133.269531 336.355469 134.117188 335.914062 134.855469 C 335.46875 135.597656 334.867188 136.175781 334.085938 136.578125 Z M 323.941406 130.097656 L 323.941406 135.433594 L 329.035156 135.433594 C 330.296875 135.433594 331.25 135.207031 331.921875 134.761719 C 332.59375 134.320312 332.929688 133.648438 332.929688 132.789062 C 332.929688 131.925781 332.59375 131.242188 331.921875 130.785156 C 331.25 130.339844 330.285156 130.113281 329.035156 130.113281 L 323.941406 130.113281 Z M 329.746094 143.835938 C 332.527344 143.835938 333.925781 142.910156 333.925781 141.039062 C 333.925781 139.171875 332.527344 138.246094 329.746094 138.246094 L 323.941406 138.246094 L 323.941406 143.835938 Z M 370.042969 127.277344 L 370.042969 146.660156 L 366.441406 146.660156 L 366.441406 138.351562 L 356.417969 138.351562 L 356.417969 146.660156 L 352.816406 146.660156 L 352.816406 127.277344 L 356.417969 127.277344 L 356.417969 135.273438 L 366.441406 135.273438 L 366.441406 127.277344 Z M 395.730469 146.941406 C 393.753906 146.941406 391.984375 146.511719 390.394531 145.648438 C 388.8125 144.789062 387.5625 143.605469 386.664062 142.074219 C 385.746094 140.554688 385.304688 138.847656 385.304688 136.96875 C 385.304688 135.085938 385.746094 133.378906 386.664062 131.859375 C 387.5625 130.339844 388.8125 129.144531 390.394531 128.285156 C 391.984375 127.425781 393.769531 126.996094 395.730469 126.996094 C 397.695312 126.996094 399.480469 127.425781 401.078125 128.285156 C 402.664062 129.144531 403.914062 130.328125 404.816406 131.847656 C 405.714844 133.367188 406.171875 135.074219 406.171875 136.96875 C 406.171875 138.863281 405.714844 140.582031 404.816406 142.089844 C 403.914062 143.605469 402.664062 144.789062 401.078125 145.648438 C 399.496094 146.511719 397.707031 146.941406 395.730469 146.941406 Z M 395.730469 143.78125 C 397.023438 143.78125 398.191406 143.488281 399.210938 142.910156 C 400.246094 142.332031 401.054688 141.523438 401.644531 140.476562 C 402.234375 139.441406 402.53125 138.269531 402.53125 136.96875 C 402.53125 135.664062 402.234375 134.507812 401.644531 133.472656 C 401.054688 132.4375 400.246094 131.617188 399.210938 131.039062 C 398.191406 130.460938 397.023438 130.167969 395.730469 130.167969 C 394.441406 130.167969 393.273438 130.460938 392.25 131.039062 C 391.21875 131.617188 390.410156 132.4375 389.820312 133.472656 C 389.226562 134.519531 388.933594 135.691406 388.933594 136.96875 C 388.933594 138.246094 389.226562 139.425781 389.820312 140.476562 C 390.410156 141.523438 391.21875 142.332031 392.25 142.910156 C 393.285156 143.488281 394.441406 143.78125 395.730469 143.78125 Z M 430.464844 146.941406 C 428.488281 146.941406 426.703125 146.511719 425.117188 145.648438 C 423.53125 144.789062 422.28125 143.605469 421.382812 142.074219 C 420.480469 140.554688 420.023438 138.847656 420.023438 136.96875 C 420.023438 135.085938 420.46875 133.378906 421.382812 131.859375 C 422.28125 130.339844 423.53125 129.144531 425.117188 128.285156 C 426.703125 127.425781 428.488281 126.996094 430.464844 126.996094 C 432.4375 126.996094 434.226562 127.425781 435.796875 128.285156 C 437.386719 129.144531 438.632812 130.328125 439.535156 131.847656 C 440.433594 133.367188 440.890625 135.074219 440.890625 136.96875 C 440.890625 138.863281 440.433594 140.582031 439.535156 142.089844 C 438.632812 143.605469 437.386719 144.789062 435.796875 145.648438 C 434.214844 146.511719 432.4375 146.941406 430.464844 146.941406 Z M 430.464844 143.78125 C 431.753906 143.78125 432.921875 143.488281 433.941406 142.910156 C 434.976562 142.332031 435.796875 141.523438 436.390625 140.476562 C 436.980469 139.441406 437.273438 138.269531 437.273438 136.96875 C 437.273438 135.664062 436.980469 134.507812 436.390625 133.472656 C 435.796875 132.4375 434.992188 131.617188 433.941406 131.039062 C 432.910156 130.460938 431.753906 130.167969 430.464844 130.167969 C 429.175781 130.167969 428.003906 130.460938 426.984375 131.039062 C 425.949219 131.617188 425.128906 132.4375 424.539062 133.472656 C 423.960938 134.519531 423.652344 135.691406 423.652344 136.96875 C 423.652344 138.246094 423.945312 139.425781 424.539062 140.476562 C 425.128906 141.523438 425.949219 142.332031 426.984375 142.910156 C 428.003906 143.488281 429.175781 143.78125 430.464844 143.78125 Z M 462.816406 138.554688 L 459.742188 141.710938 L 459.742188 146.671875 L 456.140625 146.671875 L 456.140625 127.289062 L 459.742188 127.289062 L 459.742188 137.238281 L 469.320312 127.289062 L 473.367188 127.289062 L 465.222656 135.960938 L 473.863281 146.671875 L 469.65625 146.671875 L 462.816406 138.566406 Z M 493.34375 146.941406 C 491.855469 146.941406 490.417969 146.726562 489.003906 146.308594 C 487.621094 145.878906 486.519531 145.328125 485.699219 144.617188 L 486.9375 141.820312 C 487.730469 142.453125 488.695312 142.960938 489.851562 143.351562 C 491.007812 143.742188 492.160156 143.945312 493.332031 143.945312 C 494.769531 143.945312 495.84375 143.714844 496.558594 143.246094 C 497.269531 142.789062 497.617188 142.167969 497.617188 141.417969 C 497.617188 140.867188 497.417969 140.410156 497.027344 140.046875 C 496.636719 139.683594 496.125 139.402344 495.523438 139.199219 C 494.917969 138.996094 494.085938 138.769531 493.035156 138.5 C 491.558594 138.152344 490.363281 137.800781 489.449219 137.453125 C 488.535156 137.101562 487.757812 136.550781 487.097656 135.796875 C 486.441406 135.046875 486.117188 134.039062 486.117188 132.761719 C 486.117188 131.699219 486.414062 130.71875 486.988281 129.84375 C 487.570312 128.96875 488.453125 128.269531 489.625 127.746094 C 490.792969 127.234375 492.230469 126.980469 493.925781 126.980469 C 495.105469 126.980469 496.277344 127.128906 497.417969 127.425781 C 498.558594 127.71875 499.539062 128.148438 500.386719 128.703125 L 499.257812 131.496094 C 498.410156 131 497.523438 130.625 496.597656 130.355469 C 495.683594 130.097656 494.785156 129.964844 493.925781 129.964844 C 492.496094 129.964844 491.4375 130.207031 490.753906 130.675781 C 490.054688 131.148438 489.71875 131.792969 489.71875 132.585938 C 489.71875 133.136719 489.921875 133.59375 490.308594 133.941406 C 490.699219 134.292969 491.210938 134.574219 491.8125 134.777344 C 492.417969 134.976562 493.253906 135.207031 494.300781 135.460938 C 495.738281 135.796875 496.921875 136.148438 497.847656 136.496094 C 498.773438 136.859375 499.554688 137.410156 500.210938 138.152344 C 500.871094 138.890625 501.191406 139.882812 501.191406 141.148438 C 501.191406 142.222656 500.910156 143.191406 500.332031 144.050781 C 499.753906 144.925781 498.867188 145.609375 497.683594 146.132812 C 496.503906 146.644531 495.066406 146.914062 493.371094 146.914062 Z M 493.34375 146.941406 " fill-opacity="1" fill-rule="evenodd"/><g clip-path="url(#0277d402ca)"><path fill="#ffffff" d="M 58.847656 140.261719 L 66.976562 154.347656 L 83.234375 154.347656 L 91.359375 140.261719 L 85.488281 130.085938 C 90.003906 122.261719 94.519531 114.441406 99.03125 106.632812 L 96.777344 102.71875 L 94.519531 98.808594 L 84.132812 80.8125 L 96.777344 58.902344 L 122.0625 58.902344 L 134.707031 80.8125 L 128.835938 90.984375 L 133.347656 98.808594 L 143.734375 80.8125 L 126.5625 51.078125 L 92.246094 51.078125 L 75.089844 80.796875 L 83.664062 95.664062 L 89.976562 106.617188 C 86.214844 113.136719 82.453125 119.65625 78.691406 126.160156 L 66.949219 126.160156 L 58.820312 140.246094 Z M 113.035156 94.898438 L 101.289062 94.898438 L 93.160156 80.8125 L 101.289062 66.726562 L 117.546875 66.726562 L 125.675781 80.8125 L 119.804688 90.984375 L 131.09375 110.527344 L 160.894531 110.527344 L 178.050781 140.261719 L 160.894531 169.992188 L 126.578125 169.992188 L 118.003906 155.125 L 116.191406 151.996094 L 125.21875 151.996094 L 131.09375 162.167969 L 156.378906 162.167969 L 169.023438 140.261719 L 156.378906 118.351562 L 126.578125 118.351562 L 113.035156 94.882812 Z M 87.746094 162.167969 C 92.71875 153.566406 97.675781 144.953125 102.648438 136.347656 L 129.722656 136.347656 L 135.59375 126.175781 L 151.851562 126.175781 L 159.980469 140.261719 L 151.851562 154.347656 L 135.59375 154.347656 L 129.722656 144.171875 L 107.164062 144.171875 L 92.261719 169.992188 L 57.945312 169.992188 L 40.789062 140.261719 L 57.945312 110.542969 L 78.71875 110.542969 L 74.203125 118.363281 L 62.460938 118.363281 L 49.816406 140.273438 L 62.460938 162.183594 L 87.746094 162.183594 Z M 87.746094 162.167969 " fill-opacity="1" fill-rule="evenodd"/></g></svg>