<svg width="47" height="40" viewBox="0 0 47 40" fill="none" xmlns="http://www.w3.org/2000/svg">
<path fill-rule="evenodd" clip-rule="evenodd" d="M6.07517 30.0023L8.8099 34.7411H14.2794L17.0141 30.0023L15.0388 26.5792C16.5576 23.9475 18.0764 21.3158 19.5951 18.6887L18.8357 17.3728L18.0764 16.057L14.5822 10.0023L18.8357 2.6317H27.3428L31.5963 10.0023L29.621 13.4253L31.1398 16.057L34.6339 10.0023L28.8571 0H17.3124L11.5401 9.99774L14.424 14.9989L16.5485 18.6842C15.2829 20.8772 14.0172 23.0703 12.7515 25.2589H8.80086L6.06613 29.9977L6.07517 30.0023ZM24.3052 14.7411H20.3545L17.6198 10.0023L20.3545 5.2634H25.824L28.5587 10.0023L26.5834 13.4253L30.3804 20H40.4062L46.1785 30.0023L40.4062 40.0045H28.8616L25.9777 35.0034L25.3675 33.9498H28.405L30.3804 37.3728H38.8874L43.141 30.0023L38.8874 22.6317H28.8616L24.3052 14.7366V14.7411ZM15.7982 37.3728C17.4706 34.4789 19.1386 31.5804 20.8111 28.6864H29.9193L31.8947 25.2634H37.3641L40.0989 30.0023L37.3641 34.7411H31.8947L29.9193 31.3181H22.3299L17.317 40.0045H5.77232L0 30.0023L5.77232 20.0045H12.7606L11.2418 22.6362H7.29111L3.03759 30.0068L7.29111 37.3773H15.7982V37.3728Z" fill="#262626"/>
</svg>
