<?xml version="1.0" encoding="UTF-8"?>
<!DOCTYPE svg PUBLIC "-//W3C//DTD SVG 1.1//EN" "http://www.w3.org/Graphics/SVG/1.1/DTD/svg11.dtd">
<!-- Creator: CorelDRAW X7 -->
<svg xmlns="http://www.w3.org/2000/svg" xml:space="preserve" width="81.28mm" height="81.28mm" version="1.1" style="shape-rendering:geometricPrecision; text-rendering:geometricPrecision; image-rendering:optimizeQuality; fill-rule:evenodd; clip-rule:evenodd"
viewBox="0 0 8128 8128"
 xmlns:xlink="http://www.w3.org/1999/xlink">
 <defs>
  <style type="text/css">
   <![CDATA[
    .fil0 {fill:none}
    .fil2 {fill:#001626;fill-rule:nonzero}
    .fil1 {fill:url(#id0)}
   ]]>
  </style>
  <linearGradient id="id0" gradientUnits="userSpaceOnUse" x1="4064.02" y1="4441.95" x2="4064.02" y2="2395.56">
   <stop offset="0" style="stop-opacity:1; stop-color:#1A4898"/>
   <stop offset="1" style="stop-opacity:1; stop-color:#0DA832"/>
  </linearGradient>
 </defs>
 <g id="Layer_x0020_1">
  <metadata id="CorelCorpID_0Corel-Layer"/>
  <rect class="fil0" width="8128" height="8128"/>
  <g id="_1949073225968">
   <path class="fil1" d="M4361 2395l-594 0 -148 257 -148 257 148 257 109 189 -39 68 -78 135 -78 135 -203 0 -140 244 140 243 281 0 141 -243 -102 -176 78 -135 78 -135 39 -68 39 -68 -39 -67 -39 -68 -179 -311 218 -378 438 0 218 378 -101 176 78 135 31 -54 148 -257 -148 -257 -148 -257zm-156 893l-78 -135 -126 0 -78 0 -39 -68 -78 -135 -23 -41 140 -243 282 0 140 243 -101 176 78 135 78 135 39 68 218 0 297 0 148 257 149 257 -149 257 -148 257 -297 0 -296 0 -149 -257 -31 -54 156 0 102 175 437 0 219 -378 -219 -379 -359 0 -78 0 -78 0 -39 -67 -39 -68 -78 -135zm312 405l78 0 203 0 140 244 -140 243 -281 0 -102 -176 -156 0 -156 0 -78 0 -109 190 -149 257 -296 0 -297 0 -148 -257 -149 -257 149 -257 148 -257 297 0 62 0 -78 135 -203 0 -219 379 219 378 437 0 180 -311 39 -67 39 -68 78 0 78 0 156 0 156 0 63 -108 39 -68z"/>
   <path class="fil2" d="M1995 5335c-39,0 -78,-5 -115,-16 -37,-12 -66,-27 -88,-45l33 -75c21,17 47,31 78,41 31,11 62,16 92,16 39,0 67,-6 86,-18 19,-13 29,-29 29,-49 0,-15 -6,-27 -16,-37 -11,-9 -24,-17 -40,-22 -17,-5 -39,-12 -67,-18 -39,-10 -71,-19 -95,-28 -24,-10 -45,-24 -63,-44 -17,-20 -26,-47 -26,-81 0,-28 8,-54 23,-78 16,-23 39,-41 70,-55 32,-14 70,-21 115,-21 31,0 62,4 93,12 30,8 56,19 79,34l-31 74c-22,-13 -46,-23 -70,-30 -25,-7 -49,-10 -72,-10 -38,0 -66,6 -84,19 -19,13 -28,30 -28,51 0,14 6,26 16,36 11,9 24,16 40,22 16,5 38,11 66,18 39,9 70,18 95,28 24,10 45,24 63,44 17,19 26,46 26,79 0,29 -8,55 -23,78 -16,23 -39,41 -71,55 -31,14 -69,20 -115,20zm441 -441l-171 0 0 -81 438 0 0 81 -171 0 0 434 -96 0 0 -434zm688 315l-258 0 -51 119 -99 0 232 -515 95 0 232 515 -100 0 -51 -119zm-32 -75l-97 -226 -97 226 194 0zm747 -321l0 515 -79 0 -284 -349 0 349 -95 0 0 -515 79 0 284 349 0 -349 95 0zm179 0l225 0c55,0 104,10 147,32 42,21 76,51 99,90 24,39 36,84 36,135 0,51 -12,97 -36,136 -23,39 -57,69 -99,90 -43,21 -92,32 -147,32l-225 0 0 -515zm221 434c38,0 71,-7 100,-22 28,-14 50,-35 66,-61 15,-27 23,-58 23,-94 0,-35 -8,-66 -23,-93 -16,-27 -38,-47 -66,-62 -29,-14 -62,-21 -100,-21l-125 0 0 353 125 0zm754 -38l-258 0 -50 119 -99 0 232 -515 94 0 233 515 -100 0 -52 -119zm-31 -75l-98 -226 -96 226 194 0zm626 194l-105 -151c-5,1 -11,1 -20,1l-117 0 0 150 -95 0 0 -515 212 0c44,0 83,7 116,22 34,14 59,35 77,63 17,28 26,60 26,98 0,39 -9,72 -28,100 -19,28 -46,49 -82,63l119 169 -103 0zm-2 -332c0,-33 -11,-58 -33,-76 -21,-18 -53,-26 -95,-26l-112 0 0 205 112 0c42,0 74,-9 95,-27 22,-18 33,-43 33,-76zm243 -183l226 0c55,0 103,10 146,32 43,21 76,51 100,90 23,39 35,84 35,135 0,51 -12,97 -35,136 -24,39 -57,69 -100,90 -43,21 -91,32 -146,32l-226 0 0 -515zm221 434c38,0 71,-7 100,-22 29,-14 51,-35 66,-61 16,-27 23,-58 23,-94 0,-35 -7,-66 -23,-93 -15,-27 -37,-47 -66,-62 -29,-14 -62,-21 -100,-21l-125 0 0 353 125 0z"/>
   <path class="fil2" d="M2821 5482l-81 247 -49 0 -61 -183 -62 183 -49 0 -82 -247 48 0 61 188 64 -188 42 0 63 189 63 -189 43 0zm369 209l0 38 -185 0 0 -247 180 0 0 39 -135 0 0 64 120 0 0 38 -120 0 0 68 140 0zm371 -90c14,4 25,12 33,22 8,11 12,24 12,39 0,22 -8,38 -25,50 -16,11 -40,17 -72,17l-123 0 0 -247 116 0c29,0 52,6 68,17 15,12 23,27 23,47 0,13 -3,23 -8,33 -6,9 -14,17 -24,22zm-129 -83l0 68 65 0c16,0 29,-3 37,-8 9,-6 13,-14 13,-26 0,-11 -4,-19 -13,-25 -8,-6 -21,-9 -37,-9l-65 0zm74 175c36,0 54,-12 54,-35 0,-24 -18,-36 -54,-36l-74 0 0 71 74 0zm514 -211l0 247 -46 0 0 -106 -128 0 0 106 -45 0 0 -247 45 0 0 102 128 0 0 -102 46 0zm327 251c-25,0 -48,-6 -68,-17 -20,-11 -36,-26 -47,-45 -12,-20 -18,-41 -18,-65 0,-24 6,-46 18,-65 11,-20 27,-35 47,-46 20,-11 43,-16 68,-16 25,0 48,5 68,16 21,11 37,26 48,45 11,20 17,41 17,66 0,24 -6,46 -17,65 -11,19 -27,34 -48,45 -20,11 -43,17 -68,17zm0 -41c17,0 32,-3 45,-11 13,-7 23,-17 31,-31 7,-13 11,-28 11,-44 0,-17 -4,-32 -11,-45 -8,-13 -18,-24 -31,-31 -13,-7 -28,-11 -45,-11 -16,0 -31,4 -44,11 -13,7 -24,18 -31,31 -8,13 -11,28 -11,45 0,16 3,31 11,44 7,14 18,24 31,31 13,8 28,11 44,11zm443 41c-25,0 -48,-6 -68,-17 -20,-11 -36,-26 -48,-45 -11,-20 -17,-41 -17,-65 0,-24 6,-46 17,-65 12,-20 28,-35 48,-46 20,-11 43,-16 68,-16 25,0 48,5 68,16 20,11 36,26 48,45 11,20 17,41 17,66 0,24 -6,46 -17,65 -12,19 -28,34 -48,45 -20,11 -43,17 -68,17zm0 -41c16,0 31,-3 44,-11 14,-7 24,-17 31,-31 8,-13 12,-28 12,-44 0,-17 -4,-32 -12,-45 -7,-13 -17,-24 -31,-31 -13,-7 -28,-11 -44,-11 -16,0 -31,4 -44,11 -14,7 -24,18 -32,31 -7,13 -11,28 -11,45 0,16 4,31 11,44 8,14 18,24 32,31 13,8 28,11 44,11zm412 -66l-39 40 0 63 -46 0 0 -247 46 0 0 127 122 -127 52 0 -104 111 110 136 -54 0 -87 -103zm389 107c-19,0 -37,-3 -55,-8 -18,-6 -32,-13 -42,-22l16 -36c10,8 22,15 37,20 15,5 30,8 44,8 19,0 32,-3 42,-9 9,-6 13,-14 13,-24 0,-7 -2,-12 -8,-17 -5,-5 -11,-8 -19,-11 -7,-2 -18,-5 -31,-9 -19,-4 -35,-9 -46,-13 -12,-4 -22,-11 -30,-21 -8,-9 -13,-22 -13,-39 0,-13 4,-26 11,-37 8,-11 19,-20 34,-26 15,-7 33,-10 55,-10 15,0 30,2 44,5 15,4 27,10 38,17l-14 35c-11,-6 -23,-11 -34,-14 -12,-4 -24,-5 -35,-5 -18,0 -31,3 -40,9 -9,6 -13,14 -13,24 0,7 2,13 7,18 5,4 12,8 20,10 7,3 18,6 31,9 19,4 34,9 46,13 11,5 21,12 30,21 8,10 12,22 12,38 0,14 -3,26 -11,37 -7,11 -19,20 -34,27 -15,6 -33,10 -55,10z"/>
  </g>
 </g>
</svg>
