<?xml version="1.0" encoding="UTF-8" standalone="no"?>
<svg
   width="172"
   height="40"
   viewBox="0 0 172 40"
   fill="none"
   version="1.1"
   id="svg3"
   sodipodi:docname="logo-icon-text-bw.svg"
   inkscape:version="1.3.1 (91b66b0783, 2023-11-16, custom)"
   xmlns:inkscape="http://www.inkscape.org/namespaces/inkscape"
   xmlns:sodipodi="http://sodipodi.sourceforge.net/DTD/sodipodi-0.dtd"
   xmlns="http://www.w3.org/2000/svg"
   xmlns:svg="http://www.w3.org/2000/svg">
  <sodipodi:namedview
     id="namedview3"
     pagecolor="#ffffff"
     bordercolor="#666666"
     borderopacity="1.0"
     inkscape:showpageshadow="2"
     inkscape:pageopacity="0.0"
     inkscape:pagecheckerboard="0"
     inkscape:deskcolor="#d1d1d1"
     inkscape:zoom="3.8895349"
     inkscape:cx="86"
     inkscape:cy="20.053812"
     inkscape:window-width="1356"
     inkscape:window-height="1034"
     inkscape:window-x="0"
     inkscape:window-y="0"
     inkscape:window-maximized="1"
     inkscape:current-layer="g3" />
  <g
     clip-path="url(#clip0_116_1558)"
     id="g3">
    <path
       fill-rule="evenodd"
       clip-rule="evenodd"
       d="M57.3254 21.759C56.2767 21.759 55.2597 21.6098 54.2833 21.3114C53.3024 21.0129 52.5294 20.615 51.9599 20.1221L52.8368 18.1596C53.3973 18.6028 54.0799 18.96 54.889 19.2404C55.6981 19.5207 56.5118 19.6609 57.3299 19.6609C58.3424 19.6609 59.0973 19.4981 59.5945 19.1725C60.0963 18.847 60.3449 18.4219 60.3449 17.8883C60.3449 17.4995 60.2048 17.1784 59.9245 16.9252C59.6443 16.672 59.2917 16.473 58.8668 16.3328C58.4374 16.1927 57.8588 16.0299 57.1175 15.8445C56.0823 15.6003 55.2416 15.3516 54.5997 15.1074C53.9578 14.8587 53.4064 14.4744 52.9453 13.9498C52.4842 13.4253 52.2537 12.7154 52.2537 11.8201C52.2537 11.0694 52.4571 10.3821 52.8685 9.76715C53.2753 9.15219 53.89 8.66383 54.7172 8.29756C55.5399 7.93582 56.5479 7.75494 57.7413 7.75494C58.573 7.75494 59.3866 7.85895 60.1912 8.06695C60.9958 8.27495 61.6874 8.57339 62.2705 8.96227L61.475 10.9247C60.8783 10.5766 60.259 10.3098 59.6081 10.1289C58.9617 9.94803 58.3334 9.85759 57.7232 9.85759C56.7242 9.85759 55.9829 10.0249 55.4992 10.364C55.011 10.6986 54.7715 11.1463 54.7715 11.707C54.7715 12.0959 54.9116 12.4124 55.1919 12.6611C55.4676 12.9098 55.8247 13.0997 56.2541 13.2444C56.6835 13.3891 57.2621 13.5519 58.0034 13.7328C59.016 13.9679 59.8432 14.2076 60.4941 14.4608C61.145 14.714 61.6964 15.0984 62.1575 15.6184C62.6186 16.1384 62.8491 16.8393 62.8491 17.721C62.8491 18.4717 62.6457 19.1544 62.2344 19.7649C61.8275 20.3753 61.2083 20.8592 60.3765 21.2254C59.5494 21.5917 58.5368 21.7681 57.3435 21.7681L57.3254 21.759ZM68.9604 10.0882H64.4493V7.94938H75.9984V10.0882H71.4872V21.5646H68.9604V10.0882ZM87.1091 18.4129H80.3017L78.9592 21.5646H76.3555L82.4804 7.94938H84.9711L91.114 21.5646H88.4697L87.1091 18.4129ZM86.2729 16.4278L83.7054 10.4771L81.156 16.4278H86.2729ZM105.999 7.94486V21.5601H103.92L96.4117 12.3401V21.5601H93.903V7.94486H95.9823L103.486 17.1648V7.94486H105.995H105.999ZM110.709 7.94486H116.658C118.113 7.94486 119.402 8.22974 120.527 8.79044C121.657 9.35567 122.53 10.1515 123.153 11.1825C123.777 12.2135 124.085 13.4027 124.085 14.7547C124.085 16.1067 123.773 17.2915 123.153 18.3224C122.53 19.3534 121.657 20.1492 120.527 20.7145C119.402 21.2797 118.113 21.5601 116.658 21.5601H110.709V7.94486ZM116.545 19.4212C117.544 19.4212 118.421 19.2313 119.18 18.847C119.935 18.4626 120.523 17.92 120.929 17.2146C121.341 16.5092 121.544 15.6862 121.544 14.7547C121.544 13.8232 121.341 13.0003 120.929 12.2948C120.523 11.5894 119.939 11.0423 119.18 10.6625C118.421 10.2826 117.544 10.0882 116.545 10.0882H113.24V19.4258H116.545V19.4212ZM136.465 18.4083H129.658L128.315 21.5601H125.712L131.837 7.94486H134.327L140.47 21.5601H137.826L136.465 18.4083ZM135.629 16.4233L133.062 10.4726L130.512 16.4233H135.625H135.629ZM152.164 21.5555L149.384 17.5673C149.267 17.5809 149.095 17.5854 148.86 17.5854H145.786V21.551H143.259V7.93582H148.86C150.04 7.93582 151.066 8.13025 151.943 8.51913C152.82 8.90801 153.489 9.46419 153.954 10.1922C154.42 10.9202 154.655 11.7794 154.655 12.7787C154.655 13.778 154.406 14.6869 153.904 15.4239C153.407 16.1655 152.688 16.7127 151.757 17.0789L154.89 21.551H152.169L152.164 21.5555ZM152.105 12.7832C152.105 11.915 151.821 11.2458 151.251 10.78C150.681 10.3143 149.845 10.0792 148.742 10.0792H145.786V15.5053H148.742C149.841 15.5053 150.677 15.2702 151.251 14.7954C151.821 14.3206 152.105 13.6514 152.105 12.7832ZM158.529 7.94034H164.477C165.928 7.94034 167.216 8.22521 168.346 8.78592C169.472 9.35115 170.349 10.147 170.973 11.178C171.596 12.2089 171.904 13.3982 171.904 14.7502C171.904 16.1022 171.592 17.2869 170.973 18.3179C170.353 19.3489 169.477 20.1447 168.346 20.71C167.216 21.2752 165.928 21.5555 164.477 21.5555H158.529V7.94034ZM164.364 19.4167C165.363 19.4167 166.24 19.2268 166.999 18.8424C167.759 18.4581 168.342 17.9155 168.749 17.2101C169.156 16.5047 169.359 15.6817 169.359 14.7502C169.359 13.8187 169.156 12.9957 168.749 12.2903C168.342 11.5849 167.759 11.0378 166.999 10.658C166.24 10.2781 165.363 10.0837 164.364 10.0837H161.06V19.4212H164.364V19.4167Z"
       fill="#262626"
       id="path1" />
    <path
       fill-rule="evenodd"
       clip-rule="evenodd"
       d="M79.1312 25.6342L76.9706 32.1547H75.6868L74.0731 27.3299L72.4368 32.1547H71.144L68.9833 25.6342H70.24L71.8582 30.5901L73.5442 25.6342H74.6607L76.3106 30.6173L77.9741 25.6342H79.1312ZM88.8542 31.1418V32.1592H83.9679V25.6387H88.7276V26.6516H85.1793V28.3473H88.3253V29.3466H85.1793V31.1463H88.8587L88.8542 31.1418ZM98.6676 28.7633C99.0292 28.8809 99.314 29.0798 99.5264 29.3557C99.7389 29.6315 99.8429 29.9752 99.8429 30.3866C99.8429 30.9519 99.6259 31.386 99.192 31.6934C98.758 32.0009 98.1252 32.1547 97.2935 32.1547H94.0525V25.6342H97.1081C97.8766 25.6342 98.4687 25.7834 98.8891 26.0864C99.305 26.3894 99.5129 26.8008 99.5129 27.3299C99.5129 27.6509 99.436 27.9358 99.2869 28.1845C99.1377 28.4332 98.9343 28.6277 98.6721 28.7633H98.6676ZM95.2594 26.5838V28.379H96.9725C97.3974 28.379 97.7184 28.3021 97.9444 28.1529C98.1704 28.0036 98.2834 27.7776 98.2834 27.4882C98.2834 27.1988 98.1704 26.9681 97.9444 26.8144C97.7184 26.6652 97.3929 26.5883 96.9725 26.5883H95.2594V26.5838ZM97.2121 31.2051C98.1478 31.2051 98.6179 30.8931 98.6179 30.2645C98.6179 29.636 98.1478 29.324 97.2121 29.324H95.2594V31.2051H97.2121ZM110.768 25.6342V32.1547H109.557V29.3602H106.185V32.1547H104.973V25.6342H106.185V28.3247H109.557V25.6342H110.768ZM119.411 32.2496C118.746 32.2496 118.15 32.1049 117.616 31.8155C117.083 31.5261 116.663 31.1282 116.36 30.6127C116.052 30.1018 115.903 29.5275 115.903 28.8944C115.903 28.2614 116.052 27.6871 116.36 27.1761C116.663 26.6652 117.083 26.2627 117.616 25.9733C118.15 25.6839 118.751 25.5393 119.411 25.5393C120.071 25.5393 120.672 25.6839 121.21 25.9733C121.743 26.2627 122.164 26.6607 122.467 27.1716C122.769 27.6826 122.923 28.2569 122.923 28.8944C122.923 29.532 122.769 30.1108 122.467 30.6173C122.164 31.1282 121.743 31.5261 121.21 31.8155C120.677 32.1049 120.075 32.2496 119.411 32.2496ZM119.411 31.187C119.845 31.187 120.238 31.0875 120.582 30.8931C120.93 30.6986 121.201 30.4273 121.4 30.0746C121.599 29.7265 121.698 29.3331 121.698 28.8944C121.698 28.4558 121.599 28.0669 121.4 27.7188C121.201 27.3706 120.93 27.0948 120.582 26.9003C120.238 26.7059 119.845 26.6064 119.411 26.6064C118.977 26.6064 118.584 26.7059 118.24 26.9003C117.892 27.0948 117.621 27.3706 117.422 27.7188C117.223 28.0715 117.124 28.4649 117.124 28.8944C117.124 29.324 117.223 29.7219 117.422 30.0746C117.621 30.4273 117.892 30.6986 118.24 30.8931C118.588 31.0875 118.977 31.187 119.411 31.187ZM131.096 32.2496C130.431 32.2496 129.83 32.1049 129.297 31.8155C128.763 31.5261 128.343 31.1282 128.04 30.6127C127.737 30.1018 127.583 29.5275 127.583 28.8944C127.583 28.2614 127.733 27.6871 128.04 27.1761C128.343 26.6652 128.763 26.2627 129.297 25.9733C129.83 25.6839 130.431 25.5393 131.096 25.5393C131.76 25.5393 132.361 25.6839 132.89 25.9733C133.424 26.2627 133.844 26.6607 134.147 27.1716C134.45 27.6826 134.603 28.2569 134.603 28.8944C134.603 29.532 134.45 30.1108 134.147 30.6173C133.844 31.1282 133.424 31.5261 132.89 31.8155C132.357 32.1049 131.76 32.2496 131.096 32.2496ZM131.096 31.187C131.53 31.187 131.923 31.0875 132.266 30.8931C132.614 30.6986 132.89 30.4273 133.089 30.0746C133.288 29.7265 133.387 29.3331 133.387 28.8944C133.387 28.4558 133.288 28.0669 133.089 27.7188C132.89 27.3706 132.619 27.0948 132.266 26.9003C131.918 26.7059 131.53 26.6064 131.096 26.6064C130.662 26.6064 130.268 26.7059 129.925 26.9003C129.577 27.0948 129.301 27.3706 129.102 27.7188C128.908 28.0715 128.804 28.4649 128.804 28.8944C128.804 29.324 128.903 29.7219 129.102 30.0746C129.301 30.4273 129.577 30.6986 129.925 30.8931C130.268 31.0875 130.662 31.187 131.096 31.187ZM141.98 29.428L140.945 30.4906V32.1592H139.734V25.6387H140.945V28.9849L144.168 25.6387H145.529L142.789 28.5553L145.696 32.1592H144.281L141.98 29.4325V29.428ZM152.25 32.2496C151.749 32.2496 151.265 32.1773 150.79 32.0371C150.325 31.8924 149.954 31.707 149.678 31.4674L150.094 30.5268C150.361 30.7393 150.686 30.9112 151.075 31.0423C151.464 31.1734 151.852 31.2413 152.246 31.2413C152.729 31.2413 153.091 31.1644 153.331 31.0061C153.57 30.8524 153.688 30.6444 153.688 30.3912C153.688 30.2058 153.62 30.052 153.489 29.9299C153.358 29.8078 153.186 29.7129 152.983 29.6451C152.779 29.5772 152.499 29.5004 152.146 29.4099C151.649 29.2924 151.247 29.1748 150.939 29.0572C150.632 28.9397 150.37 28.7543 150.148 28.501C149.927 28.2478 149.818 27.9087 149.818 27.4791C149.818 27.1219 149.918 26.7918 150.112 26.4979C150.307 26.204 150.605 25.9688 150.998 25.7925C151.391 25.6206 151.875 25.5347 152.445 25.5347C152.842 25.5347 153.236 25.5845 153.62 25.6839C154.004 25.7834 154.334 25.9281 154.619 26.1135L154.239 27.0541C153.954 26.8868 153.656 26.7601 153.344 26.6697C153.037 26.5838 152.734 26.5386 152.445 26.5386C151.965 26.5386 151.608 26.62 151.378 26.7782C151.143 26.9365 151.03 27.1535 151.03 27.4203C151.03 27.6057 151.098 27.7595 151.229 27.877C151.36 27.9946 151.532 28.0896 151.735 28.1574C151.938 28.2252 152.219 28.3021 152.571 28.388C153.055 28.501 153.453 28.6186 153.765 28.7362C154.076 28.8583 154.339 29.0437 154.56 29.2924C154.782 29.5411 154.89 29.8757 154.89 30.3007C154.89 30.6625 154.795 30.988 154.601 31.2774C154.406 31.5714 154.108 31.802 153.71 31.9783C153.313 32.1501 152.829 32.2406 152.259 32.2406L152.25 32.2496Z"
       fill="#262626"
       id="path2" />
    <path
       fill-rule="evenodd"
       clip-rule="evenodd"
       d="M6.07517 30.0023L8.8099 34.7411H14.2794L17.0141 30.0023L15.0388 26.5792C16.5576 23.9475 18.0764 21.3158 19.5951 18.6887L18.8357 17.3728L18.0764 16.057L14.5822 10.0023L18.8357 2.6317H27.3428L31.5963 10.0023L29.621 13.4253L31.1398 16.057L34.6339 10.0023L28.8571 0H17.3124L11.5401 9.99774L14.424 14.9989L16.5485 18.6842C15.2829 20.8772 14.0172 23.0703 12.7515 25.2589H8.80086L6.06613 29.9977L6.07517 30.0023ZM24.3052 14.7411H20.3545L17.6198 10.0023L20.3545 5.2634H25.824L28.5587 10.0023L26.5834 13.4253L30.3804 20H40.4062L46.1785 30.0023L40.4062 40.0045H28.8616L25.9777 35.0034L25.3675 33.9498H28.405L30.3804 37.3728H38.8874L43.141 30.0023L38.8874 22.6317H28.8616L24.3052 14.7366V14.7411ZM15.7982 37.3728C17.4706 34.4789 19.1386 31.5804 20.8111 28.6864H29.9193L31.8947 25.2634H37.3641L40.0989 30.0023L37.3641 34.7411H31.8947L29.9193 31.3181H22.3299L17.317 40.0045H5.77232L0 30.0023L5.77232 20.0045H12.7606L11.2418 22.6362H7.29111L3.03759 30.0068L7.29111 37.3773H15.7982V37.3728Z"
       fill="#262626"
       id="path3" />
  </g>
  <defs
     id="defs3">
    <clipPath
       id="clip0_116_1558">
      <rect
         width="171.908"
         height="40"
         fill="white"
         id="rect3" />
    </clipPath>
  </defs>
</svg>
