<svg width="172" height="40" viewBox="0 0 172 40" fill="none" xmlns="http://www.w3.org/2000/svg">
<g clip-path="url(#clip0_165_442)">
<path fill-rule="evenodd" clip-rule="evenodd" d="M57.3254 21.759C56.2767 21.759 55.2597 21.6097 54.2833 21.3113C53.3024 21.0129 52.5294 20.6149 51.9599 20.1221L52.8368 18.1596C53.3973 18.6027 54.0799 18.9599 54.889 19.2403C55.6981 19.5207 56.5118 19.6608 57.3299 19.6608C58.3424 19.6608 59.0973 19.498 59.5945 19.1725C60.0963 18.8469 60.3449 18.4219 60.3449 17.8883C60.3449 17.4994 60.2048 17.1784 59.9245 16.9251C59.6443 16.6719 59.2917 16.4729 58.8668 16.3328C58.4374 16.1926 57.8588 16.0298 57.1175 15.8444C56.0823 15.6002 55.2416 15.3515 54.5997 15.1074C53.9578 14.8587 53.4064 14.4743 52.9453 13.9498C52.4842 13.4252 52.2537 12.7153 52.2537 11.82C52.2537 11.0694 52.4571 10.3821 52.8685 9.76709C53.2753 9.15212 53.89 8.66377 54.7172 8.2975C55.5399 7.93576 56.5479 7.75488 57.7413 7.75488C58.573 7.75488 59.3866 7.85888 60.1912 8.06689C60.9958 8.27489 61.6874 8.57333 62.2705 8.96221L61.475 10.9247C60.8783 10.5765 60.259 10.3097 59.6081 10.1288C58.9617 9.94796 58.3334 9.85753 57.7232 9.85753C56.7242 9.85753 55.9829 10.0248 55.4992 10.364C55.011 10.6986 54.7715 11.1462 54.7715 11.707C54.7715 12.0958 54.9116 12.4124 55.1919 12.6611C55.4676 12.9098 55.8247 13.0997 56.2541 13.2444C56.6835 13.3891 57.2621 13.5519 58.0034 13.7327C59.016 13.9679 59.8432 14.2075 60.4941 14.4607C61.145 14.714 61.6964 15.0983 62.1575 15.6183C62.6186 16.1383 62.8491 16.8392 62.8491 17.721C62.8491 18.4716 62.6457 19.1544 62.2344 19.7648C61.8275 20.3753 61.2083 20.8591 60.3765 21.2254C59.5494 21.5916 58.5368 21.768 57.3435 21.768L57.3254 21.759ZM68.9604 10.0881H64.4493V7.94932H75.9984V10.0881H71.4872V21.5645H68.9604V10.0881ZM87.1091 18.4128H80.3017L78.9592 21.5645H76.3555L82.4804 7.94932H84.9711L91.114 21.5645H88.4697L87.1091 18.4128ZM86.2729 16.4277L83.7054 10.477L81.156 16.4277H86.2729ZM105.999 7.9448V21.56H103.92L96.4117 12.34V21.56H93.903V7.9448H95.9823L103.486 17.1648V7.9448H105.995H105.999ZM110.709 7.9448H116.658C118.113 7.9448 119.402 8.22967 120.527 8.79038C121.657 9.35561 122.53 10.1514 123.153 11.1824C123.777 12.2134 124.085 13.4026 124.085 14.7547C124.085 16.1067 123.773 17.2914 123.153 18.3224C122.53 19.3533 121.657 20.1492 120.527 20.7144C119.402 21.2796 118.113 21.56 116.658 21.56H110.709V7.9448ZM116.545 19.4212C117.544 19.4212 118.421 19.2313 119.18 18.8469C119.935 18.4625 120.523 17.9199 120.929 17.2145C121.341 16.5091 121.544 15.6862 121.544 14.7547C121.544 13.8232 121.341 13.0002 120.929 12.2948C120.523 11.5894 119.939 11.0422 119.18 10.6624C118.421 10.2826 117.544 10.0881 116.545 10.0881H113.24V19.4257H116.545V19.4212ZM136.465 18.4083H129.658L128.315 21.56H125.712L131.837 7.9448H134.327L140.47 21.56H137.826L136.465 18.4083ZM135.629 16.4232L133.062 10.4725L130.512 16.4232H135.625H135.629ZM152.164 21.5555L149.384 17.5672C149.267 17.5808 149.095 17.5853 148.86 17.5853H145.786V21.5509H143.259V7.93576H148.86C150.04 7.93576 151.066 8.13019 151.943 8.51907C152.82 8.90795 153.489 9.46413 153.954 10.1921C154.42 10.9202 154.655 11.7793 154.655 12.7786C154.655 13.7779 154.406 14.6868 153.904 15.4239C153.407 16.1655 152.688 16.7126 151.757 17.0789L154.89 21.5509H152.169L152.164 21.5555ZM152.105 12.7831C152.105 11.915 151.821 11.2457 151.251 10.78C150.681 10.3142 149.845 10.0791 148.742 10.0791H145.786V15.5053H148.742C149.841 15.5053 150.677 15.2701 151.251 14.7954C151.821 14.3206 152.105 13.6513 152.105 12.7831ZM158.529 7.94028H164.477C165.928 7.94028 167.216 8.22515 168.346 8.78586C169.472 9.35108 170.349 10.1469 170.973 11.1779C171.596 12.2089 171.904 13.3981 171.904 14.7501C171.904 16.1022 171.592 17.2869 170.973 18.3178C170.353 19.3488 169.477 20.1447 168.346 20.7099C167.216 21.2751 165.928 21.5555 164.477 21.5555H158.529V7.94028ZM164.364 19.4167C165.363 19.4167 166.24 19.2267 166.999 18.8424C167.759 18.458 168.342 17.9154 168.749 17.21C169.156 16.5046 169.359 15.6816 169.359 14.7501C169.359 13.8186 169.156 12.9957 168.749 12.2903C168.342 11.5849 167.759 11.0377 166.999 10.6579C166.24 10.2781 165.363 10.0836 164.364 10.0836H161.06V19.4212H164.364V19.4167Z" fill="white"/>
<path fill-rule="evenodd" clip-rule="evenodd" d="M79.1312 25.6341L76.9706 32.1546H75.6868L74.0731 27.3298L72.4368 32.1546H71.144L68.9833 25.6341H70.24L71.8582 30.5901L73.5442 25.6341H74.6607L76.3106 30.6172L77.9741 25.6341H79.1312ZM88.8542 31.1417V32.1591H83.9679V25.6387H88.7276V26.6516H85.1793V28.3472H88.3253V29.3466H85.1793V31.1462H88.8587L88.8542 31.1417ZM98.6676 28.7632C99.0292 28.8808 99.314 29.0798 99.5264 29.3556C99.7389 29.6314 99.8429 29.9751 99.8429 30.3866C99.8429 30.9518 99.6259 31.3859 99.192 31.6934C98.758 32.0009 98.1252 32.1546 97.2935 32.1546H94.0525V25.6341H97.1081C97.8766 25.6341 98.4687 25.7834 98.8891 26.0863C99.305 26.3893 99.5129 26.8008 99.5129 27.3298C99.5129 27.6509 99.436 27.9358 99.2869 28.1845C99.1377 28.4332 98.9343 28.6276 98.6721 28.7632H98.6676ZM95.2594 26.5837V28.3789H96.9725C97.3974 28.3789 97.7184 28.302 97.9444 28.1528C98.1704 28.0036 98.2834 27.7775 98.2834 27.4881C98.2834 27.1987 98.1704 26.9681 97.9444 26.8143C97.7184 26.6651 97.3929 26.5883 96.9725 26.5883H95.2594V26.5837ZM97.2121 31.205C98.1478 31.205 98.6179 30.893 98.6179 30.2645C98.6179 29.636 98.1478 29.3239 97.2121 29.3239H95.2594V31.205H97.2121ZM110.768 25.6341V32.1546H109.557V29.3601H106.185V32.1546H104.973V25.6341H106.185V28.3246H109.557V25.6341H110.768ZM119.411 32.2496C118.746 32.2496 118.15 32.1049 117.616 31.8155C117.083 31.5261 116.663 31.1282 116.36 30.6127C116.052 30.1017 115.903 29.5274 115.903 28.8944C115.903 28.2613 116.052 27.6871 116.36 27.1761C116.663 26.6651 117.083 26.2627 117.616 25.9733C118.15 25.6839 118.751 25.5392 119.411 25.5392C120.071 25.5392 120.672 25.6839 121.21 25.9733C121.743 26.2627 122.164 26.6606 122.467 27.1716C122.769 27.6825 122.923 28.2568 122.923 28.8944C122.923 29.532 122.769 30.1107 122.467 30.6172C122.164 31.1282 121.743 31.5261 121.21 31.8155C120.677 32.1049 120.075 32.2496 119.411 32.2496ZM119.411 31.1869C119.845 31.1869 120.238 31.0875 120.582 30.893C120.93 30.6986 121.201 30.4273 121.4 30.0746C121.599 29.7264 121.698 29.333 121.698 28.8944C121.698 28.4558 121.599 28.0669 121.4 27.7187C121.201 27.3705 120.93 27.0947 120.582 26.9003C120.238 26.7058 119.845 26.6063 119.411 26.6063C118.977 26.6063 118.584 26.7058 118.24 26.9003C117.892 27.0947 117.621 27.3705 117.422 27.7187C117.223 28.0714 117.124 28.4648 117.124 28.8944C117.124 29.324 117.223 29.7219 117.422 30.0746C117.621 30.4273 117.892 30.6986 118.24 30.893C118.588 31.0875 118.977 31.1869 119.411 31.1869ZM131.096 32.2496C130.431 32.2496 129.83 32.1049 129.297 31.8155C128.763 31.5261 128.343 31.1282 128.04 30.6127C127.737 30.1017 127.583 29.5274 127.583 28.8944C127.583 28.2613 127.733 27.6871 128.04 27.1761C128.343 26.6651 128.763 26.2627 129.297 25.9733C129.83 25.6839 130.431 25.5392 131.096 25.5392C131.76 25.5392 132.361 25.6839 132.89 25.9733C133.424 26.2627 133.844 26.6606 134.147 27.1716C134.45 27.6825 134.603 28.2568 134.603 28.8944C134.603 29.532 134.45 30.1107 134.147 30.6172C133.844 31.1282 133.424 31.5261 132.89 31.8155C132.357 32.1049 131.76 32.2496 131.096 32.2496ZM131.096 31.1869C131.53 31.1869 131.923 31.0875 132.266 30.893C132.614 30.6986 132.89 30.4273 133.089 30.0746C133.288 29.7264 133.387 29.333 133.387 28.8944C133.387 28.4558 133.288 28.0669 133.089 27.7187C132.89 27.3705 132.619 27.0947 132.266 26.9003C131.918 26.7058 131.53 26.6063 131.096 26.6063C130.662 26.6063 130.268 26.7058 129.925 26.9003C129.577 27.0947 129.301 27.3705 129.102 27.7187C128.908 28.0714 128.804 28.4648 128.804 28.8944C128.804 29.324 128.903 29.7219 129.102 30.0746C129.301 30.4273 129.577 30.6986 129.925 30.893C130.268 31.0875 130.662 31.1869 131.096 31.1869ZM141.98 29.428L140.945 30.4906V32.1591H139.734V25.6387H140.945V28.9848L144.168 25.6387H145.529L142.789 28.5552L145.696 32.1591H144.281L141.98 29.4325V29.428ZM152.25 32.2496C151.749 32.2496 151.265 32.1772 150.79 32.037C150.325 31.8923 149.954 31.7069 149.678 31.4673L150.094 30.5268C150.361 30.7393 150.686 30.9111 151.075 31.0422C151.464 31.1734 151.852 31.2412 152.246 31.2412C152.729 31.2412 153.091 31.1643 153.331 31.0061C153.57 30.8523 153.688 30.6443 153.688 30.3911C153.688 30.2057 153.62 30.052 153.489 29.9299C153.358 29.8078 153.186 29.7128 152.983 29.645C152.779 29.5772 152.499 29.5003 152.146 29.4099C151.649 29.2923 151.247 29.1747 150.939 29.0572C150.632 28.9396 150.37 28.7542 150.148 28.501C149.927 28.2478 149.818 27.9086 149.818 27.479C149.818 27.1218 149.918 26.7917 150.112 26.4978C150.307 26.2039 150.605 25.9688 150.998 25.7924C151.391 25.6206 151.875 25.5347 152.445 25.5347C152.842 25.5347 153.236 25.5844 153.62 25.6839C154.004 25.7834 154.334 25.9281 154.619 26.1135L154.239 27.054C153.954 26.8867 153.656 26.7601 153.344 26.6696C153.037 26.5837 152.734 26.5385 152.445 26.5385C151.965 26.5385 151.608 26.6199 151.378 26.7782C151.143 26.9364 151.03 27.1535 151.03 27.4203C151.03 27.6057 151.098 27.7594 151.229 27.877C151.36 27.9945 151.532 28.0895 151.735 28.1573C151.938 28.2251 152.219 28.302 152.571 28.3879C153.055 28.501 153.453 28.6185 153.765 28.7361C154.076 28.8582 154.339 29.0436 154.56 29.2923C154.782 29.541 154.89 29.8756 154.89 30.3007C154.89 30.6624 154.795 30.988 154.601 31.2774C154.406 31.5713 154.108 31.8019 153.71 31.9783C153.313 32.1501 152.829 32.2405 152.259 32.2405L152.25 32.2496Z" fill="white"/>
<path fill-rule="evenodd" clip-rule="evenodd" d="M6.07517 30.0023L8.8099 34.7411H14.2794L17.0141 30.0023L15.0388 26.5792C16.5576 23.9475 18.0764 21.3158 19.5951 18.6887L18.8357 17.3728L18.0764 16.057L14.5822 10.0023L18.8357 2.6317H27.3428L31.5963 10.0023L29.621 13.4253L31.1398 16.057L34.6339 10.0023L28.8571 0H17.3124L11.5401 9.99774L14.424 14.9989L16.5485 18.6842C15.2829 20.8772 14.0172 23.0703 12.7515 25.2589H8.80086L6.06613 29.9977L6.07517 30.0023ZM24.3052 14.7411H20.3545L17.6198 10.0023L20.3545 5.2634H25.824L28.5587 10.0023L26.5834 13.4253L30.3804 20H40.4062L46.1785 30.0023L40.4062 40.0045H28.8616L25.9777 35.0034L25.3675 33.9498H28.405L30.3804 37.3728H38.8874L43.141 30.0023L38.8874 22.6317H28.8616L24.3052 14.7366V14.7411ZM15.7982 37.3728C17.4706 34.4789 19.1386 31.5804 20.8111 28.6864H29.9193L31.8947 25.2634H37.3641L40.0989 30.0023L37.3641 34.7411H31.8947L29.9193 31.3181H22.3299L17.317 40.0045H5.77232L0 30.0023L5.77232 20.0045H12.7606L11.2418 22.6362H7.29111L3.03759 30.0068L7.29111 37.3773H15.7982V37.3728Z" fill="white"/>
</g>
<defs>
<clipPath id="clip0_165_442">
<rect width="171.908" height="40" fill="white"/>
</clipPath>
</defs>
</svg>
