<svg fill="none" height="57" viewBox="0 0 131 57" width="131" xmlns="http://www.w3.org/2000/svg"><g fill="#000310"><path clip-rule="evenodd" d="m130.437 33.9592c0 14.0048-10.503 22.8799-21.589 22.8799-6.001 0-11.253-2.6056-14.2538-7.0024l-1.9775 6.1067h-9.3587l-.0019-55.9432805 11.8418-.0001195v17.4344c3.0361-3.906 7.8581-6.355 13.6671-6.355 11.336 0 21.672 8.8751 21.672 22.8798zm-36.4262-.0813c0 6.8394 5.4182 12.3762 12.5032 12.3762 6.919 0 12.42-5.4553 12.42-12.3762 0-6.921-5.501-12.3763-12.42-12.3763-7.085 0-12.5032 5.5367-12.5032 12.3763z" fill-rule="evenodd"/><path d="m.568332 55.9437 25.748268-.0003 3.5839-11.1549-17.4956.0003-.002-44.7886805h-11.836494z"/><path clip-rule="evenodd" d="m54.7386 56.8391c13.5868 0 23.8396-10.2593 23.8396-22.8799 0-12.7019-10.4193-22.8798-23.8396-22.8798-13.5036 0-23.7561 10.1779-23.7561 22.8798 0 12.6206 10.2525 22.8799 23.7561 22.8799zm.0835-10.6664c-6.9187 0-12.3367-5.4554-12.3367-12.2948 0-6.8396 5.418-12.2949 12.3367-12.2949 6.8349 0 12.3363 5.4553 12.3363 12.2949 0 6.8394-5.5014 12.2948-12.3363 12.2948z" fill-rule="evenodd"/></g></svg>