<svg fill="none" height="400" viewBox="0 0 401 400" width="401" xmlns="http://www.w3.org/2000/svg"><path d="m.526367 0h400v400h-400z" fill="#ff4f00"/><rect fill="#ff4f00" height="400" rx="200" width="400" x=".526367"/><g fill="#fffdf9"><path d="m56.8003 220.362-.0571-.181 36.063-33.015v-15.908h-57.8571v15.908h34.5581l.0571.152-35.7107 33.044v15.907h59.5337v-15.907z"/><path d="m128.897 169.748c-6.674 0-12.113 1.006-16.317 3.019-3.916 1.755-7.215 4.645-9.468 8.297-2.156 3.676-3.5097 7.766-3.9723 12.002l17.5553 2.467c.635-3.74 1.905-6.391 3.81-7.954 2.166-1.633 4.834-2.459 7.544-2.333 3.563 0 6.147.952 7.754 2.857 1.591 1.905 2.4 4.544 2.4 8.021v1.733h-16.879c-8.592 0-14.764 1.905-18.517 5.716-3.7531 3.81-5.6264 8.839-5.6201 15.088 0 6.401 1.8734 11.164 5.6201 14.288 3.747 3.124 8.458 4.677 14.136 4.658 7.042 0 12.459-2.423 16.25-7.268 2.239-2.978 3.838-6.386 4.696-10.011h.638l2.42 15.907h15.907v-40.283c0-8.325-2.194-14.774-6.582-19.346s-11.513-6.858-21.375-6.858zm5.563 49.656c-2.525 2.105-5.83 3.153-9.945 3.153-3.391 0-5.747-.594-7.068-1.782-.643-.561-1.155-1.258-1.499-2.04s-.512-1.63-.491-2.484c-.038-.806.089-1.61.372-2.365s.717-1.444 1.276-2.026c.603-.566 1.315-1.004 2.093-1.288.778-.283 1.605-.406 2.431-.36h16.603v1.095c.033 1.549-.289 3.084-.943 4.488s-1.622 2.638-2.829 3.609z"/><path d="m253.012 171.258h-18.794v65.021h18.794z"/><path d="m364.046 171.258c-5.308 0-9.493 1.874-12.554 5.62-2.197 2.693-3.867 6.671-5.01 11.936h-.553l-2.457-17.556h-16.051v65.011h18.794v-33.339c0-4.204.984-7.426 2.953-9.668 1.968-2.242 5.601-3.362 10.897-3.362h7.134v-18.642z"/><path d="m308.708 173.379c-4.388-2.61-9.922-3.911-16.602-3.905-10.516 0-18.746 2.994-24.69 8.982-5.944 5.989-8.916 14.244-8.916 24.766-.151 6.362 1.238 12.666 4.048 18.375 2.573 5.087 6.58 9.309 11.526 12.145 4.979 2.876 10.9 4.318 17.765 4.324 5.938 0 10.897-.914 14.879-2.743 3.743-1.643 7.003-4.217 9.468-7.478 2.347-3.2 4.091-6.803 5.144-10.63l-16.194-4.534c-.681 2.489-1.993 4.759-3.81 6.592-1.829 1.828-4.893 2.743-9.192 2.743-5.112 0-8.922-1.464-11.43-4.391-1.82-2.115-2.963-5.134-3.467-9.049h44.34c.181-1.829.276-3.363.276-4.601v-4.048c.108-5.439-1.016-10.831-3.286-15.775-2.125-4.503-5.561-8.258-9.859-10.773zm-17.145 11.593c7.62 0 11.941 3.749 12.964 11.249h-26.957c.428-2.502 1.465-4.861 3.019-6.868 2.471-2.927 6.128-4.388 10.974-4.381z"/><path d="m243.839 145.056c-1.414-.049-2.823.188-4.144.695-1.321.508-2.526 1.275-3.544 2.258-1.004.991-1.791 2.181-2.31 3.493-.52 1.312-.762 2.718-.71 4.128-.05 1.419.192 2.834.712 4.155.521 1.322 1.308 2.522 2.312 3.526 1.005 1.004 2.206 1.79 3.528 2.309s2.737.76 4.156.708c1.41.053 2.816-.188 4.128-.708 1.313-.52 2.502-1.307 3.493-2.312.983-1.015 1.751-2.219 2.257-3.538.505-1.32.739-2.728.687-4.14.065-1.404-.164-2.806-.671-4.117-.507-1.31-1.282-2.501-2.276-3.495-.993-.994-2.183-1.77-3.493-2.278-1.31-.509-2.721-.748-4.125-.684z"/><path d="m205.013 169.474c-6.401 0-11.544 2.01-15.431 6.029-2.876 2.979-4.988 7.424-6.334 13.336h-.6l-2.458-17.555h-16.05v83.671h18.794v-34.463h.685c.574 2.298 1.378 4.532 2.401 6.668 1.59 3.479 4.197 6.395 7.477 8.363 3.402 1.856 7.233 2.779 11.107 2.676 7.868 0 13.859-3.064 17.974-9.191 4.115-6.128 6.173-14.679 6.173-25.652 0-10.599-1.991-18.896-5.973-24.89-3.981-5.995-9.903-8.992-17.765-8.992zm1.906 47.112c-2.191 3.175-5.62 4.763-10.288 4.763-1.924.089-3.842-.282-5.595-1.082-1.752-.8-3.289-2.006-4.483-3.519-2.432-3.054-3.645-7.236-3.638-12.545v-1.238c0-5.391 1.212-9.519 3.638-12.383s5.785-4.28 10.078-4.248c4.75 0 8.201 1.508 10.354 4.524 2.153 3.017 3.229 7.224 3.229 12.621.013 5.582-1.079 9.951-3.276 13.107z"/></g></svg>