<svg viewBox="0 0 128 128" xmlns="http://www.w3.org/2000/svg"><path clip-rule="evenodd" d="m39.546136 105.29328c23.9631 3.27175 47.500439 6.48504 71.505424 9.76113-8.17848-13.61567-16.1467-26.883237-24.178606-40.258984zm78.268764-75.366069c-2.11224 3.172279-4.22884 6.341942-6.33846 9.515966-7.24495 10.899695-14.489009 21.79939-21.726971 32.70432-.403079.607235-.925685 1.088835-.357711 2.024989 6.993673 11.548808 13.932382 23.131642 20.888532 34.704014 1.09757 1.82781 2.20734 3.64865 3.62685 5.40229 1.40641-28.087238 2.81194-56.175349 4.21749-84.262587zm-95.472885 36.009213c.327174.309725 1.143801.490325 1.524195.302745 6.708377-3.297042 13.459504-6.520797 20.021308-10.089176 2.140155-1.162994 3.785621-3.248183 5.629138-4.939019 6.104632-5.598602 12.199667-11.208547 18.292084-16.819363.372542-.344624.814009-.677906 1.036487-1.112393 2.188141-4.276819 4.338764-8.575449 6.565293-12.99797-2.654908-.9981-5.171967-1.974387-7.720435-2.862555-.345496-.1204-.889913.118655-1.2642.327174-5.898731 3.295296-11.908264 6.415228-17.619414 10.008908-2.857321 1.798149-5.185055 4.447823-7.715201 6.75549-4.077897 3.721933-8.15056 7.452589-12.16913 11.239084-1.066151 1.005078-2.038076 2.153241-2.868662 3.362476-2.748263 4.001994-5.414512 8.06157-8.202908 12.23631 1.558221 1.611441 2.975102 3.152213 4.491445 4.588289zm24.517988-5.471223c-3.337175 14.098149-6.654284 28.116903-10.082196 42.596319 16.073408-10.357023 31.776018-20.47499 47.374804-30.524904-12.41342-4.017698-24.786707-8.023181-37.292608-12.071415zm66.857787-30.401885c-13.58076 2.269279-26.836983 4.483593-40.264207 6.726698 4.573457 11.12479 9.055305 22.02623 13.664533 33.237395 8.917457-13.400178 17.658674-26.531635 26.599674-39.964093zm-66.297665 27.518392c12.22933 3.969711 24.215243 7.860902 36.549268 11.865512-4.580436-11.158817-9.00383-21.927642-13.518832-32.92418-7.690771 7.031188-15.266378 13.958554-23.030436 21.058668zm-24.572953 16.575946c-4.337019 10.367491-8.526593 20.382507-12.792069 30.578136 8.197673-.24255 16.144076-.47725 24.363561-.71979-3.858909-9.956566-7.641913-19.717695-11.571492-29.858346zm11.859406 22.767824.301872-.0663c2.925372-12.163026 5.892623-24.242293 8.879068-36.880808-6.662136 3.462809-13.017165 6.765087-19.545814 10.158972 3.33194 8.660079 6.884614 17.795652 10.364874 26.788139zm74.095772-68.834804c-3.89032-1.03038-7.78064-2.06425-11.672707-3.08765-5.59424-1.470976-11.192842-2.923628-16.783593-4.407689-.698844-.185836-1.204-.307108-1.614931.53482-1.976132 4.048233-4.013335 8.065931-6.020875 12.099333-.06194.124762-.04885.286168-.09685.599383 12.115037-1.835664 24.148935-3.659987 36.181096-5.483438zm-22.569785-9.207987 31.707965 8.771755c-1.81822-5.181564-3.5047-9.986225-5.23915-14.927862l-26.422574 5.858597zm-48.837926 88.746183c-3.926961-.4528-7.958618-.0366-11.941416.0323-3.271741.055-6.543482.17973-9.815222.28181-.336771.0105-.67267.0785-1.008569.44147 27.049007 2.50047 54.09714 5.00096 81.145274 7.50319l.05496-.3612c-8.670549-1.18393-17.34197-2.36787-26.012518-3.55093-10.804597-1.47534-21.590871-3.09812-32.422513-4.34662zm-26.804716-12.225841c3.485494-8.087743 6.956156-16.18072 10.455611-24.262356.349858-.810519.322811-1.361044-.362073-2.013647-1.463995-1.393325-2.824167-2.894836-4.424265-4.559498-2.16284 10.678962-4.272458 21.093566-6.383821 31.507298l.236438.110803c.161406-.259121.358583-.504285.47811-.7826zm68.697828-78.655262c5.877791-1.516342 11.841084-2.702021 17.769477-4.024676.383885-.08638.759044-.212882 1.136821-.321068l-.05845-.289658c-8.350355 1.122862-16.699837 2.246596-25.470718 3.427039 2.391423 1.04434 4.234068 1.824323 6.622874 1.208363z" fill-rule="evenodd" stroke-width=".872464"/></svg>